<svg width="227" height="66" viewBox="0 0 227 66" fill="none" xmlns="http://www.w3.org/2000/svg">
<path d="M225.739 58.3886C225.739 61.9058 222.849 64.7548 219.274 64.7548H7.73331C4.16067 64.7548 1.26074 61.9058 1.26074 58.3886V7.61991C1.26074 4.10435 4.16067 1.24536 7.73331 1.24536H219.273C222.849 1.24536 225.737 4.10435 225.737 7.61991L225.739 58.3886Z" fill="black"/>
<path d="M218.593 1.32207C222.485 1.32207 225.653 4.43026 225.653 8.25001V57.75C225.653 61.5698 222.485 64.6779 218.593 64.6779H8.40741C4.51478 64.6779 1.34729 61.5698 1.34729 57.75V8.25001C1.34729 4.43026 4.51478 1.32207 8.40741 1.32207H218.593ZM218.593 7.62939e-06H8.40741C3.78544 7.62939e-06 0 3.71457 0 8.25001V57.75C0 62.2854 3.78544 66 8.40741 66H218.593C223.215 66 227 62.2854 227 57.75V8.25001C227 3.71457 223.215 7.62939e-06 218.593 7.62939e-06Z" fill="#A6A6A6"/>
<path d="M50.6601 32.6435C50.6113 27.3255 55.0975 24.7383 55.3027 24.6179C52.7619 20.9829 48.8239 20.4863 47.4401 20.4467C44.1326 20.1051 40.9243 22.3887 39.2395 22.3887C37.521 22.3887 34.9265 20.4797 32.1302 20.5358C28.5318 20.5902 25.1655 22.6346 23.3192 25.8092C19.509 32.2821 22.3507 41.7944 26.0012 47.0265C27.8273 49.589 29.9611 52.4501 32.754 52.3494C35.4864 52.2389 36.5071 50.64 39.8044 50.64C43.0716 50.64 44.03 52.3494 46.8784 52.2851C49.8109 52.2389 51.6572 49.7111 53.4194 47.1255C55.5297 44.1885 56.3771 41.2961 56.4108 41.1476C56.3418 41.1245 50.7156 39.0174 50.6601 32.6435Z" fill="white"/>
<path d="M45.2793 17.0048C46.749 15.2013 47.7545 12.7478 47.4754 10.2579C45.3483 10.3503 42.6882 11.7017 41.1564 13.4655C39.8011 15.0198 38.5904 17.5674 38.9032 19.9632C41.2926 20.1381 43.7458 18.7802 45.2793 17.0048Z" fill="white"/>
<path d="M82.4767 16.5147C82.4767 18.4568 81.8832 19.9187 80.6977 20.9004C79.5997 21.8063 78.0393 22.26 76.0181 22.26C75.016 22.26 74.1584 22.2171 73.4404 22.1313V11.5202C74.377 11.3717 75.3859 11.2958 76.4755 11.2958C78.4008 11.2958 79.8519 11.7066 80.8305 12.5283C81.9269 13.4573 82.4767 14.7855 82.4767 16.5147ZM80.6187 16.5626C80.6187 15.3036 80.279 14.3384 79.5997 13.6652C78.9204 12.9936 77.9283 12.657 76.6218 12.657C76.0669 12.657 75.5944 12.6933 75.2026 12.7692V20.8361C75.4195 20.8691 75.8164 20.8839 76.3931 20.8839C77.7417 20.8839 78.7825 20.516 79.5156 19.7801C80.2488 19.0442 80.6187 17.9717 80.6187 16.5626Z" fill="white"/>
<path d="M92.3288 18.2111C92.3288 19.4074 91.9808 20.3875 91.2846 21.1564C90.5549 21.9467 89.588 22.3411 88.3807 22.3411C87.2171 22.3411 86.2906 21.9632 85.5995 21.2042C84.9101 20.4469 84.5654 19.4915 84.5654 18.3398C84.5654 17.1353 84.9202 16.147 85.6332 15.3797C86.3461 14.6125 87.3046 14.228 88.5119 14.228C89.6755 14.228 90.6104 14.6059 91.3183 15.3632C91.9909 16.0991 92.3288 17.0495 92.3288 18.2111ZM90.5011 18.2672C90.5011 17.5495 90.343 16.934 90.0286 16.4209C89.6586 15.8005 89.1323 15.4903 88.448 15.4903C87.7401 15.4903 87.202 15.8005 86.8321 16.4209C86.5159 16.934 86.3596 17.5594 86.3596 18.2986C86.3596 19.0163 86.5176 19.6318 86.8321 20.1449C87.2138 20.7653 87.7451 21.0755 88.4312 21.0755C89.1038 21.0755 89.6317 20.7604 90.0118 20.1284C90.338 19.6054 90.5011 18.985 90.5011 18.2672Z" fill="white"/>
<path d="M105.538 14.3862L103.058 22.1643H101.444L100.416 18.7868C100.156 17.9436 99.9439 17.1054 99.7792 16.2738H99.7472C99.5942 17.1285 99.3823 17.9651 99.1099 18.7868L98.0186 22.1643H96.3859L94.0537 14.3862H95.8647L96.7609 18.0839C96.9778 18.9584 97.156 19.7916 97.299 20.5803H97.3309C97.4621 19.9302 97.679 19.1019 97.985 18.1004L99.1099 14.3879H100.546L101.624 18.0212C101.884 18.9072 102.096 19.7603 102.259 20.582H102.308C102.427 19.7817 102.607 18.9287 102.846 18.0212L103.808 14.3879H105.538V14.3862Z" fill="white"/>
<path d="M114.673 22.1645H112.911V17.7095C112.911 16.3367 112.38 15.6503 111.314 15.6503C110.791 15.6503 110.369 15.8384 110.041 16.2162C109.716 16.5941 109.552 17.0396 109.552 17.5494V22.1628H107.789V16.6089C107.789 15.9258 107.768 15.185 107.726 14.3831H109.274L109.357 15.5991H109.405C109.611 15.2213 109.917 14.9094 110.318 14.6603C110.796 14.3699 111.331 14.223 111.916 14.223C112.656 14.223 113.271 14.4573 113.76 14.9276C114.369 15.5034 114.673 16.3631 114.673 17.5049V22.1645Z" fill="white"/>
<path d="M119.533 22.1644H117.772V10.8174H119.533V22.1644Z" fill="white"/>
<path d="M129.908 18.2111C129.908 19.4074 129.56 20.3875 128.864 21.1564C128.134 21.9467 127.165 22.3411 125.96 22.3411C124.795 22.3411 123.868 21.9632 123.179 21.2042C122.489 20.4469 122.145 19.4915 122.145 18.3398C122.145 17.1353 122.499 16.147 123.212 15.3797C123.925 14.6125 124.884 14.228 126.089 14.228C127.255 14.228 128.188 14.6059 128.897 15.3632C129.57 16.0991 129.908 17.0495 129.908 18.2111ZM128.078 18.2672C128.078 17.5495 127.92 16.934 127.606 16.4209C127.238 15.8005 126.71 15.4903 126.027 15.4903C125.317 15.4903 124.779 15.8005 124.411 16.4209C124.095 16.934 123.939 17.5594 123.939 18.2986C123.939 19.0163 124.097 19.6318 124.411 20.1449C124.793 20.7653 125.324 21.0755 126.01 21.0755C126.683 21.0755 127.209 20.7604 127.589 20.1284C127.917 19.6054 128.078 18.985 128.078 18.2672Z" fill="white"/>
<path d="M138.436 22.1645H136.854L136.723 21.2686H136.674C136.132 21.983 135.361 22.3411 134.358 22.3411C133.61 22.3411 133.005 22.1051 132.549 21.6365C132.136 21.2108 131.929 20.6812 131.929 20.0525C131.929 19.1021 132.332 18.3778 133.144 17.8762C133.955 17.3746 135.095 17.1287 136.563 17.1403V16.9951C136.563 15.9704 136.015 15.4589 134.917 15.4589C134.135 15.4589 133.445 15.652 132.85 16.0348L132.492 14.8996C133.228 14.4524 134.138 14.228 135.211 14.228C137.283 14.228 138.322 15.3005 138.322 17.4455V20.3099C138.322 21.0871 138.36 21.7058 138.436 22.1645ZM136.607 19.4915V18.292C134.663 18.259 133.691 18.782 133.691 19.8595C133.691 20.2654 133.802 20.569 134.029 20.7719C134.256 20.9749 134.545 21.0755 134.89 21.0755C135.277 21.0755 135.638 20.9551 135.968 20.7158C136.299 20.4749 136.502 20.1697 136.578 19.7951C136.596 19.711 136.607 19.6087 136.607 19.4915Z" fill="white"/>
<path d="M148.449 22.1644H146.886L146.803 20.9154H146.755C146.255 21.8658 145.404 22.341 144.209 22.341C143.254 22.341 142.458 21.973 141.828 21.2371C141.197 20.5012 140.883 19.5459 140.883 18.3727C140.883 17.1138 141.224 16.0941 141.91 15.3153C142.574 14.5893 143.388 14.2263 144.357 14.2263C145.421 14.2263 146.166 14.5777 146.59 15.2823H146.623V10.8174H148.387V20.0689C148.387 20.8263 148.407 21.5242 148.449 22.1644ZM146.623 18.8842V17.5873C146.623 17.3629 146.607 17.1814 146.575 17.0428C146.475 16.627 146.262 16.2772 145.937 15.9951C145.609 15.7129 145.214 15.571 144.759 15.571C144.101 15.571 143.587 15.8268 143.208 16.3399C142.833 16.8531 142.643 17.5081 142.643 18.3084C142.643 19.0773 142.823 19.701 143.185 20.1811C143.566 20.6926 144.081 20.9484 144.725 20.9484C145.303 20.9484 145.766 20.7355 146.117 20.3082C146.457 19.9138 146.623 19.4386 146.623 18.8842Z" fill="white"/>
<path d="M163.521 18.2111C163.521 19.4074 163.173 20.3875 162.477 21.1564C161.747 21.9467 160.782 22.3411 159.573 22.3411C158.411 22.3411 157.485 21.9632 156.792 21.2042C156.103 20.4469 155.758 19.4915 155.758 18.3398C155.758 17.1353 156.113 16.147 156.826 15.3797C157.539 14.6125 158.497 14.228 159.706 14.228C160.868 14.228 161.804 14.6059 162.511 15.3632C163.183 16.0991 163.521 17.0495 163.521 18.2111ZM161.695 18.2672C161.695 17.5495 161.537 16.934 161.223 16.4209C160.851 15.8005 160.326 15.4903 159.64 15.4903C158.934 15.4903 158.396 15.8005 158.024 16.4209C157.708 16.934 157.552 17.5594 157.552 18.2986C157.552 19.0163 157.71 19.6318 158.024 20.1449C158.406 20.7653 158.937 21.0755 159.624 21.0755C160.296 21.0755 160.826 20.7604 161.206 20.1284C161.53 19.6054 161.695 18.985 161.695 18.2672Z" fill="white"/>
<path d="M172.996 22.1645H171.235V17.7095C171.235 16.3367 170.704 15.6503 169.636 15.6503C169.113 15.6503 168.691 15.8384 168.365 16.2162C168.039 16.5941 167.876 17.0396 167.876 17.5494V22.1628H166.112V16.6089C166.112 15.9258 166.092 15.185 166.05 14.3831H167.597L167.679 15.5991H167.728C167.935 15.2213 168.241 14.9094 168.641 14.6603C169.12 14.3699 169.653 14.223 170.24 14.223C170.978 14.223 171.594 14.4573 172.083 14.9276C172.693 15.5034 172.996 16.3631 172.996 17.5049V22.1645Z" fill="white"/>
<path d="M184.856 15.6817H182.915V19.4602C182.915 20.4205 183.26 20.9006 183.943 20.9006C184.259 20.9006 184.521 20.8742 184.728 20.8198L184.773 22.1315C184.425 22.2602 183.968 22.3246 183.405 22.3246C182.709 22.3246 182.167 22.1167 181.775 21.7009C181.382 21.2851 181.187 20.5855 181.187 19.6037V15.6817H180.028V14.3864H181.187V12.9608L182.914 12.4493V14.3848H184.854V15.6817H184.856Z" fill="white"/>
<path d="M194.184 22.1644H192.42V17.7424C192.42 16.3482 191.889 15.6502 190.824 15.6502C190.007 15.6502 189.449 16.0545 189.143 16.863C189.091 17.0329 189.06 17.2408 189.06 17.485V22.1628H187.3V10.8174H189.06V15.505H189.094C189.649 14.652 190.444 14.2263 191.475 14.2263C192.205 14.2263 192.808 14.4606 193.288 14.9308C193.885 15.5166 194.184 16.3878 194.184 17.5395V22.1644Z" fill="white"/>
<path d="M203.807 17.9075C203.807 18.2177 203.783 18.4784 203.741 18.6912H198.456C198.48 19.4601 198.732 20.0459 199.221 20.4518C199.669 20.8148 200.245 20.9963 200.952 20.9963C201.734 20.9963 202.447 20.8742 203.089 20.6283L203.365 21.8295C202.613 22.1496 201.729 22.3097 200.705 22.3097C199.477 22.3097 198.51 21.9549 197.811 21.2454C197.108 20.5359 196.76 19.5839 196.76 18.3893C196.76 17.2161 197.084 16.2393 197.738 15.4605C198.421 14.6289 199.344 14.2131 200.509 14.2131C201.65 14.2131 202.515 14.6289 203.101 15.4605C203.573 16.1205 203.807 16.9373 203.807 17.9075ZM202.125 17.4603C202.139 16.9472 202.023 16.505 201.784 16.1321C201.478 15.6519 201.012 15.411 200.382 15.411C199.807 15.411 199.337 15.6453 198.979 16.1156C198.687 16.4901 198.514 16.9373 198.456 17.4603H202.125Z" fill="white"/>
<path d="M90.203 51.9819H86.3843L84.2926 45.532H77.0218L75.0293 51.9819H71.3115L78.515 30.0237H82.9642L90.203 51.9819ZM83.662 42.826L81.7703 37.0923C81.5702 36.5065 81.1953 35.1271 80.6421 32.9557H80.5748C80.3545 33.8896 79.9997 35.269 79.5121 37.0923L77.6541 42.826H83.662Z" fill="white"/>
<path d="M108.728 43.8702C108.728 46.563 107.986 48.6915 106.503 50.254C105.175 51.645 103.526 52.3396 101.556 52.3396C99.4311 52.3396 97.9043 51.5905 96.9745 50.0923H96.9072V58.4331H93.3223V41.3605C93.3223 39.6676 93.2769 37.9302 93.1895 36.1482H96.3422L96.5423 38.6578H96.6096C97.8051 36.7669 99.6194 35.8231 102.054 35.8231C103.958 35.8231 105.547 36.5607 106.818 38.0374C108.092 39.5158 108.728 41.4595 108.728 43.8702ZM105.076 43.9989C105.076 42.4578 104.723 41.1873 104.013 40.1874C103.238 39.1446 102.197 38.6232 100.892 38.6232C100.008 38.6232 99.2041 38.9136 98.4861 39.4861C97.7664 40.0636 97.2956 40.8177 97.0754 41.7516C96.9644 42.1872 96.9089 42.5436 96.9089 42.8241V45.4641C96.9089 46.6158 97.2687 47.5876 97.9884 48.3813C98.7081 49.1749 99.643 49.5709 100.793 49.5709C102.143 49.5709 103.194 49.0594 103.946 48.0397C104.699 47.0184 105.076 45.672 105.076 43.9989Z" fill="white"/>
<path d="M127.286 43.8702C127.286 46.563 126.544 48.6915 125.06 50.254C123.733 51.645 122.083 52.3396 120.114 52.3396C117.989 52.3396 116.462 51.5905 115.534 50.0923H115.467V58.4331H111.882V41.3605C111.882 39.6676 111.836 37.9302 111.749 36.1482H114.902L115.102 38.6578H115.169C116.363 36.7669 118.177 35.8231 120.614 35.8231C122.516 35.8231 124.105 36.5607 125.379 38.0374C126.649 39.5158 127.286 41.4595 127.286 43.8702ZM123.634 43.9989C123.634 42.4578 123.279 41.1873 122.569 40.1874C121.794 39.1446 120.757 38.6232 119.45 38.6232C118.564 38.6232 117.762 38.9136 117.042 39.4861C116.323 40.0636 115.854 40.8177 115.633 41.7516C115.524 42.1872 115.467 42.5436 115.467 42.8241V45.4641C115.467 46.6158 115.827 47.5876 116.543 48.3813C117.263 49.1733 118.198 49.5709 119.351 49.5709C120.701 49.5709 121.752 49.0594 122.504 48.0397C123.257 47.0184 123.634 45.672 123.634 43.9989Z" fill="white"/>
<path d="M148.036 45.8239C148.036 47.6917 147.375 49.2114 146.048 50.3845C144.59 51.6666 142.561 52.3068 139.953 52.3068C137.545 52.3068 135.615 51.8514 134.153 50.9389L134.984 48.0069C136.558 48.9408 138.285 49.4094 140.166 49.4094C141.517 49.4094 142.567 49.1091 143.322 48.5118C144.074 47.9145 144.449 47.1126 144.449 46.1127C144.449 45.2217 144.14 44.4709 143.519 43.8621C142.902 43.2532 141.871 42.6873 140.432 42.1642C136.514 40.7304 134.557 38.6299 134.557 35.8678C134.557 34.0627 135.243 32.5827 136.617 31.431C137.985 30.2776 139.812 29.7018 142.095 29.7018C144.131 29.7018 145.823 30.0499 147.173 30.7446L146.277 33.6123C145.016 32.9391 143.59 32.6025 141.994 32.6025C140.733 32.6025 139.748 32.9077 139.041 33.5149C138.444 34.0578 138.145 34.7194 138.145 35.5032C138.145 36.3711 138.486 37.0888 139.173 37.6531C139.769 38.1745 140.854 38.7388 142.428 39.3477C144.353 40.1083 145.767 40.9977 146.677 42.0174C147.583 43.0338 148.036 44.3059 148.036 45.8239Z" fill="white"/>
<path d="M159.888 38.7882H155.937V46.4755C155.937 48.4308 156.633 49.4076 158.028 49.4076C158.669 49.4076 159.2 49.3531 159.621 49.2442L159.72 51.9156C159.014 52.1746 158.084 52.305 156.932 52.305C155.516 52.305 154.41 51.8809 153.611 51.0345C152.816 50.1864 152.416 48.7641 152.416 46.7659V38.7849H150.062V36.1449H152.416V33.2458L155.937 32.203V36.1449H159.888V38.7882Z" fill="white"/>
<path d="M177.717 43.9346C177.717 46.3683 177.008 48.3665 175.592 49.929C174.107 51.5378 172.136 52.3397 169.68 52.3397C167.312 52.3397 165.427 51.5691 164.022 50.028C162.616 48.4869 161.913 46.5416 161.913 44.1969C161.913 41.7434 162.636 39.7337 164.087 38.1711C165.535 36.6069 167.489 35.8248 169.946 35.8248C172.313 35.8248 174.218 36.5954 175.656 38.1381C177.031 39.6347 177.717 41.5668 177.717 43.9346ZM173.998 44.0484C173.998 42.5882 173.68 41.3358 173.036 40.2914C172.284 39.0275 171.21 38.3972 169.818 38.3972C168.377 38.3972 167.282 39.0291 166.53 40.2914C165.886 41.3375 165.569 42.6096 165.569 44.1144C165.569 45.5747 165.886 46.827 166.53 47.8698C167.306 49.1337 168.388 49.764 169.786 49.764C171.155 49.764 172.229 49.1205 173.004 47.8368C173.665 46.7726 173.998 45.507 173.998 44.0484Z" fill="white"/>
<path d="M189.37 39.2419C189.015 39.1776 188.637 39.1446 188.24 39.1446C186.979 39.1446 186.004 39.6115 185.318 40.5471C184.721 41.3721 184.421 42.4149 184.421 43.6738V51.9816H180.838L180.872 41.1345C180.872 39.3096 180.826 37.648 180.737 36.1498H183.86L183.991 39.1792H184.09C184.469 38.1381 185.065 37.2999 185.883 36.6712C186.681 36.1053 187.544 35.8231 188.474 35.8231C188.805 35.8231 189.104 35.8462 189.37 35.8875V39.2419Z" fill="white"/>
<path d="M205.403 43.3158C205.403 43.9461 205.361 44.4774 205.272 44.9114H194.517C194.559 46.4756 195.079 47.6718 196.078 48.4968C196.984 49.2344 198.156 49.604 199.595 49.604C201.188 49.604 202.64 49.3548 203.947 48.8549L204.509 51.2969C202.982 51.9503 201.179 52.2753 199.099 52.2753C196.597 52.2753 194.633 51.5526 193.204 50.1089C191.778 48.6651 191.063 46.7264 191.063 44.2943C191.063 41.9067 191.728 39.9185 193.058 38.3328C194.45 36.6399 196.332 35.7935 198.699 35.7935C201.025 35.7935 202.785 36.6399 203.981 38.3328C204.927 39.6776 205.403 41.3408 205.403 43.3158ZM201.985 42.4034C202.008 41.3606 201.775 40.4597 201.289 39.699C200.668 38.7206 199.715 38.2322 198.432 38.2322C197.26 38.2322 196.306 38.709 195.578 39.666C194.981 40.4267 194.627 41.3391 194.517 42.4017H201.985V42.4034Z" fill="white"/>
</svg>
