<svg width="24" height="22" viewBox="0 0 24 22" fill="none" xmlns="http://www.w3.org/2000/svg">
<path d="M12 10.7754L8.10005 14.6754C7.91672 14.8587 7.68338 14.9504 7.40005 14.9504C7.11672 14.9504 6.88338 14.8587 6.70005 14.6754C6.51672 14.4921 6.42505 14.2587 6.42505 13.9754C6.42505 13.6921 6.51672 13.4587 6.70005 13.2754L11.3 8.67539C11.4 8.57539 11.5084 8.50456 11.625 8.46289C11.7417 8.42122 11.8667 8.40039 12 8.40039C12.1334 8.40039 12.2584 8.42122 12.375 8.46289C12.4917 8.50456 12.6 8.57539 12.7 8.67539L17.3 13.2754C17.4834 13.4587 17.575 13.6921 17.575 13.9754C17.575 14.2587 17.4834 14.4921 17.3 14.6754C17.1167 14.8587 16.8834 14.9504 16.6 14.9504C16.3167 14.9504 16.0834 14.8587 15.9 14.6754L12 10.7754Z" fill="#3FB2FF"/>
</svg>
