<svg width="28" height="28" viewBox="0 0 28 28" fill="none" xmlns="http://www.w3.org/2000/svg">
<path d="M21.6879 21.6355C22.3258 20.9998 22.3258 19.9691 21.6879 19.3333L16.3321 13.9954L21.6928 8.60763C22.328 7.96925 22.3236 6.93854 21.6831 6.30548C21.0426 5.67242 20.0084 5.67674 19.3732 6.31512L14.0222 11.6932L8.62128 6.31029C7.98343 5.67456 6.94926 5.67456 6.3114 6.31029C5.67354 6.94602 5.67354 7.97673 6.3114 8.61246L11.722 14.005L6.36129 19.3927C5.72611 20.0311 5.73045 21.0618 6.37097 21.6948C7.01149 22.3279 8.04565 22.3236 8.68083 21.6852L14.0319 16.3072L19.3781 21.6355C20.0159 22.2712 21.0501 22.2712 21.6879 21.6355Z" fill="white"/>
</svg>
