<svg width="227" height="65" viewBox="0 0 227 65" fill="none" xmlns="http://www.w3.org/2000/svg">
<path d="M218.593 65H8.40741C3.78544 65 0 61.3417 0 56.875V8.125C0 3.65829 3.78544 4.76837e-06 8.40741 4.76837e-06H218.593C223.215 4.76837e-06 227 3.65829 227 8.125V56.875C227 61.3417 223.215 65 218.593 65Z" fill="black"/>
<path d="M218.593 1.30203C222.485 1.30203 225.653 4.36313 225.653 8.125V56.875C225.653 60.6369 222.485 63.698 218.593 63.698H8.40741C4.51478 63.698 1.34729 60.6369 1.34729 56.875V8.125C1.34729 4.36313 4.51478 1.30203 8.40741 1.30203H218.593ZM218.593 4.76837e-06H8.40741C3.78544 4.76837e-06 0 3.65829 0 8.125V56.875C0 61.3417 3.78544 65 8.40741 65H218.593C223.215 65 227 61.3417 227 56.875V8.125C227 3.65829 223.215 4.76837e-06 218.593 4.76837e-06Z" fill="#A6A6A6"/>
<path d="M17.5464 12.2505C17.0525 12.7502 16.7666 13.5282 16.7666 14.5357V50.4726C16.7666 51.4801 17.0525 52.2581 17.5464 52.7577L17.6683 52.8674L38.506 32.7377V32.2624L17.6683 12.1327L17.5464 12.2505Z" fill="url(#paint0_linear_42_1116)"/>
<path d="M45.4441 39.4512L38.5059 32.7379V32.2626L45.4525 25.5493L45.608 25.6366L53.8347 30.1602C56.1824 31.444 56.1824 33.5565 53.8347 34.8484L45.608 39.3638L45.4441 39.4512Z" fill="url(#paint1_linear_42_1116)"/>
<path d="M45.6077 39.3636L38.5056 32.5001L17.5459 52.7577C18.3257 53.5499 19.5973 53.6454 21.0434 52.8532L45.6077 39.3636Z" fill="url(#paint2_linear_42_1116)"/>
<path d="M45.6077 25.6364L21.0434 12.1469C19.5973 11.3628 18.3257 11.4583 17.5459 12.2505L38.5056 32.5L45.6077 25.6364Z" fill="url(#paint3_linear_42_1116)"/>
<path d="M79.7314 16.6461C79.7314 18.003 79.311 19.0897 78.4829 19.9002C77.5307 20.861 76.2907 21.3444 74.771 21.3444C73.3186 21.3444 72.0785 20.8528 71.0612 19.8839C70.0418 18.9008 69.5332 17.6942 69.5332 16.25C69.5332 14.8058 70.0418 13.5992 71.0612 12.6242C72.0785 11.6472 73.3186 11.1556 74.771 11.1556C75.4941 11.1556 76.1835 11.2999 76.8413 11.568C77.4971 11.8381 78.031 12.2038 78.4177 12.6547L77.5392 13.5119C76.8645 12.742 75.946 12.3622 74.771 12.3622C73.7117 12.3622 72.7932 12.7197 72.0134 13.4408C71.242 14.1639 70.8553 15.1003 70.8553 16.25C70.8553 17.3997 71.242 18.3442 72.0134 19.0674C72.7932 19.7803 73.7117 20.1459 74.771 20.1459C75.8955 20.1459 76.8413 19.7803 77.5875 19.0592C78.0793 18.5819 78.3589 17.9238 78.4324 17.0828H74.771V15.9088H79.6557C79.7146 16.1627 79.7314 16.4085 79.7314 16.6461Z" fill="white" stroke="white" stroke-width="0.776667" stroke-miterlimit="10"/>
<path d="M87.481 12.5754H82.8927V15.6629H87.0291V16.837H82.8927V19.9245H87.481V21.1209H81.5938V11.379H87.481V12.5754Z" fill="white" stroke="white" stroke-width="0.776667" stroke-miterlimit="10"/>
<path d="M92.9502 21.1209H91.6513V12.5754H88.8369V11.379H95.7667V12.5754H92.9502V21.1209Z" fill="white" stroke="white" stroke-width="0.776667" stroke-miterlimit="10"/>
<path d="M100.781 21.1209V11.379H102.078V21.1209H100.781Z" fill="white" stroke="white" stroke-width="0.776667" stroke-miterlimit="10"/>
<path d="M107.827 21.1209H106.539V12.5754H103.714V11.379H110.652V12.5754H107.827V21.1209Z" fill="white" stroke="white" stroke-width="0.776667" stroke-miterlimit="10"/>
<path d="M123.771 19.8677C122.777 20.8528 121.545 21.3444 120.076 21.3444C118.599 21.3444 117.367 20.8528 116.373 19.8677C115.381 18.8845 114.887 17.678 114.887 16.25C114.887 14.822 115.381 13.6155 116.373 12.6324C117.367 11.6472 118.599 11.1556 120.076 11.1556C121.537 11.1556 122.769 11.6472 123.763 12.6405C124.763 13.6317 125.257 14.8302 125.257 16.25C125.257 17.678 124.763 18.8845 123.771 19.8677ZM117.333 19.0511C118.082 19.7803 118.992 20.1459 120.076 20.1459C121.152 20.1459 122.071 19.7803 122.811 19.0511C123.557 18.3219 123.935 17.3855 123.935 16.25C123.935 15.1145 123.557 14.1781 122.811 13.4489C122.071 12.7197 121.152 12.3541 120.076 12.3541C118.992 12.3541 118.082 12.7197 117.333 13.4489C116.587 14.1781 116.209 15.1145 116.209 16.25C116.209 17.3855 116.587 18.3219 117.333 19.0511Z" fill="white" stroke="white" stroke-width="0.776667" stroke-miterlimit="10"/>
<path d="M127.08 21.1209V11.379H128.656L133.558 18.9556H133.615L133.558 17.0828V11.379H134.855V21.1209H133.501L128.369 13.1706H128.312L128.369 15.0515V21.1209H127.08Z" fill="white" stroke="white" stroke-width="0.776667" stroke-miterlimit="10"/>
<path d="M114.568 35.3479C110.618 35.3479 107.392 38.2525 107.392 42.2602C107.392 46.2354 110.618 49.1705 114.568 49.1705C118.525 49.1705 121.752 46.2354 121.752 42.2602C121.752 38.2525 118.525 35.3479 114.568 35.3479ZM114.568 46.4486C112.401 46.4486 110.536 44.72 110.536 42.2602C110.536 39.7679 112.401 38.0697 114.568 38.0697C116.735 38.0697 118.607 39.7679 118.607 42.2602C118.607 44.72 116.735 46.4486 114.568 46.4486ZM98.9108 35.3479C94.9531 35.3479 91.7351 38.2525 91.7351 42.2602C91.7351 46.2354 94.9531 49.1705 98.9108 49.1705C102.867 49.1705 106.087 46.2354 106.087 42.2602C106.087 38.2525 102.867 35.3479 98.9108 35.3479ZM98.9108 46.4486C96.7417 46.4486 94.8711 44.72 94.8711 42.2602C94.8711 39.7679 96.7417 38.0697 98.9108 38.0697C101.078 38.0697 102.942 39.7679 102.942 42.2602C102.942 44.72 101.078 46.4486 98.9108 46.4486ZM80.28 37.4664V40.4036H87.5377C87.3254 42.0449 86.7579 43.2515 85.8878 44.0924C84.8284 45.108 83.1785 46.2354 80.28 46.2354C75.8136 46.2354 72.3161 42.7518 72.3161 38.4354C72.3161 34.119 75.8136 30.6354 80.28 30.6354C82.6951 30.6354 84.4522 31.5474 85.7491 32.7296L87.8908 30.6597C86.0769 28.986 83.664 27.7002 80.28 27.7002C74.1552 27.7002 69.0078 32.5163 69.0078 38.4354C69.0078 44.3544 74.1552 49.1705 80.28 49.1705C83.5905 49.1705 86.0769 48.1224 88.0317 46.1561C90.0347 44.2204 90.659 41.4985 90.659 39.3007C90.659 38.6182 90.6001 37.9905 90.495 37.4664H80.28ZM156.464 39.7435C155.873 38.1977 154.051 35.3479 150.339 35.3479C146.661 35.3479 143.598 38.149 143.598 42.2602C143.598 46.1318 146.629 49.1705 150.692 49.1705C153.977 49.1705 155.873 47.2347 156.653 46.1074L154.215 44.5372C153.401 45.6869 152.294 46.4486 150.692 46.4486C149.101 46.4486 147.96 45.7438 147.228 44.3544L156.794 40.5296L156.464 39.7435ZM146.711 42.0449C146.629 39.3799 148.853 38.0149 150.446 38.0149C151.695 38.0149 152.754 38.6182 153.107 39.4815L146.711 42.0449ZM138.936 48.75H142.081V28.4375H138.936V48.75ZM133.787 36.8875H133.682C132.976 36.0791 131.628 35.3479 129.922 35.3479C126.34 35.3479 123.065 38.3866 123.065 42.2825C123.065 46.1561 126.34 49.1705 129.922 49.1705C131.628 49.1705 132.976 48.4332 133.682 47.6004H133.787V48.5916C133.787 51.2343 132.326 52.6541 129.97 52.6541C128.049 52.6541 126.857 51.3135 126.365 50.1861L123.631 51.2891C124.419 53.1213 126.506 55.376 129.97 55.376C133.657 55.376 136.767 53.2797 136.767 48.1793V35.7683H133.787V36.8875ZM130.191 46.4486C128.024 46.4486 126.21 44.6957 126.21 42.2825C126.21 39.8471 128.024 38.0697 130.191 38.0697C132.326 38.0697 134.01 39.8471 134.01 42.2825C134.01 44.6957 132.326 46.4486 130.191 46.4486ZM171.185 28.4375H163.665V48.75H166.801V41.0536H171.185C174.668 41.0536 178.083 38.6182 178.083 34.7446C178.083 30.873 174.659 28.4375 171.185 28.4375ZM171.267 38.2282H166.801V31.263H171.267C173.609 31.263 174.945 33.1419 174.945 34.7446C174.945 36.3168 173.609 38.2282 171.267 38.2282ZM190.652 35.3093C188.387 35.3093 186.03 36.2761 185.062 38.4191L187.844 39.5464C188.443 38.4191 189.545 38.0535 190.709 38.0535C192.336 38.0535 193.986 38.998 194.011 40.6657V40.8789C193.444 40.5621 192.229 40.0929 190.734 40.0929C187.737 40.0929 184.683 41.6874 184.683 44.6632C184.683 47.385 187.138 49.138 189.898 49.138C192.008 49.138 193.173 48.2179 193.904 47.1474H194.011V48.7175H197.04V40.9257C197.04 37.3243 194.257 35.3093 190.652 35.3093ZM190.274 46.4405C189.248 46.4405 187.819 45.9489 187.819 44.72C187.819 43.1479 189.602 42.5446 191.144 42.5446C192.525 42.5446 193.173 42.8391 194.011 43.2271C193.765 45.108 192.09 46.4405 190.274 46.4405ZM208.075 35.7541L204.47 44.5596H204.363L200.636 35.7541H197.254L202.854 48.0594L199.659 54.9068H202.936L211.564 35.7541H208.075ZM179.807 48.75H182.951V28.4375H179.807V48.75Z" fill="white"/>
<defs>
<linearGradient id="paint0_linear_42_1116" x1="36.6559" y1="50.8468" x2="9.40042" y2="22.644" gradientUnits="userSpaceOnUse">
<stop stop-color="#00A0FF"/>
<stop offset="0.0066" stop-color="#00A1FF"/>
<stop offset="0.2601" stop-color="#00BEFF"/>
<stop offset="0.5122" stop-color="#00D2FF"/>
<stop offset="0.7604" stop-color="#00DFFF"/>
<stop offset="1" stop-color="#00E3FF"/>
</linearGradient>
<linearGradient id="paint1_linear_42_1116" x1="56.8918" y1="32.498" x2="16.2052" y2="32.498" gradientUnits="userSpaceOnUse">
<stop stop-color="#FFE000"/>
<stop offset="0.4087" stop-color="#FFBD00"/>
<stop offset="0.7754" stop-color="#FFA500"/>
<stop offset="1" stop-color="#FF9C00"/>
</linearGradient>
<linearGradient id="paint2_linear_42_1116" x1="41.7458" y1="28.7689" x2="4.78512" y2="-9.47644" gradientUnits="userSpaceOnUse">
<stop stop-color="#FF3A44"/>
<stop offset="1" stop-color="#C31162"/>
</linearGradient>
<linearGradient id="paint3_linear_42_1116" x1="12.2699" y1="64.7137" x2="28.7745" y2="47.6356" gradientUnits="userSpaceOnUse">
<stop stop-color="#32A071"/>
<stop offset="0.0685" stop-color="#2DA771"/>
<stop offset="0.4762" stop-color="#15CF74"/>
<stop offset="0.8009" stop-color="#06E775"/>
<stop offset="1" stop-color="#00F076"/>
</linearGradient>
</defs>
</svg>
