<svg width="169" height="41" viewBox="0 0 169 41" fill="none" xmlns="http://www.w3.org/2000/svg">
<path fillRule="evenodd" clipRule="evenodd" d="M19.5754 35.3621C28.018 35.3621 34.8621 28.518 34.8621 20.0754C34.8621 11.6329 28.018 4.78882 19.5754 4.78882C11.1329 4.78882 4.28882 11.6329 4.28882 20.0754C4.28882 28.518 11.1329 35.3621 19.5754 35.3621ZM19.5754 31.2007C25.7198 31.2007 30.7007 26.2198 30.7007 20.0754C30.7007 13.9311 25.7198 8.95018 19.5754 8.95018C13.4311 8.95018 8.45018 13.9311 8.45018 20.0754C8.45018 26.2198 13.4311 31.2007 19.5754 31.2007Z" fill="#0066FF"/>
<path fillRule="evenodd" clipRule="evenodd" d="M19.5755 30.1816C25.1569 30.1816 29.6816 25.6569 29.6816 20.0755C29.6816 14.494 25.1569 9.9693 19.5755 9.9693C13.994 9.9693 9.4693 14.494 9.4693 20.0755C9.4693 25.6569 13.994 30.1816 19.5755 30.1816ZM19.5755 31.2007C25.7198 31.2007 30.7007 26.2198 30.7007 20.0755C30.7007 13.9311 25.7198 8.9502 19.5755 8.9502C13.4311 8.9502 8.4502 13.9311 8.4502 20.0755C8.4502 26.2198 13.4311 31.2007 19.5755 31.2007Z" fill="#7CCBFF"/>
<rect x="26.1233" y="29.5654" width="4.16131" height="10.1911" rx="2.08066" transform="rotate(-45 26.1233 29.5654)" fill="#0066FF"/>
<path d="M32.6857 20.0756C33.0668 20.0756 33.3776 19.7664 33.3585 19.3858C33.2341 16.8984 32.4384 14.4863 31.05 12.4085C29.5336 10.139 27.3782 8.37016 24.8565 7.32564C22.3348 6.28112 19.56 6.00783 16.883 6.54032C14.432 7.02786 12.1637 8.17082 10.3169 9.84165C10.0343 10.0973 10.0354 10.5356 10.3049 10.8051C10.5743 11.0746 11.01 11.073 11.294 10.8189C12.9468 9.34025 14.9689 8.32813 17.1522 7.89384C19.5616 7.4146 22.0589 7.66057 24.3284 8.60063C26.5979 9.5407 28.5377 11.1327 29.9025 13.1752C31.1392 15.0261 31.8534 17.1716 31.9766 19.3859C31.9977 19.7664 32.3046 20.0756 32.6857 20.0756Z" fill="#7CCBFF"/>
<path d="M32.6283 22.143C32.9473 22.1935 33.2481 21.9759 33.2851 21.6551C33.322 21.3343 33.0785 21.054 32.7564 21.0307L32.4881 21.0112C32.1982 20.9902 31.9474 21.2084 31.9141 21.4972C31.8808 21.7859 32.0755 22.0554 32.3626 22.1009L32.6283 22.143Z" fill="#7CCBFF"/>
<path fillRule="evenodd" clipRule="evenodd" d="M17.0703 15.2346C16.5075 15.2346 16.0512 15.6909 16.0512 16.2537C16.0512 16.8166 16.5075 17.2728 17.0703 17.2728H25.2232C25.786 17.2728 26.2423 16.8166 26.2423 16.2537C26.2423 15.6909 25.786 15.2346 25.2232 15.2346H17.0703ZM13.928 19.0563C13.3652 19.0563 12.9089 19.5125 12.9089 20.0754C12.9089 20.6382 13.3652 21.0945 13.928 21.0945H22.0809C22.6437 21.0945 23.1 20.6382 23.1 20.0754C23.1 19.5125 22.6437 19.0563 22.0809 19.0563H13.928ZM16.0512 23.897C16.0512 23.3342 16.5075 22.8779 17.0703 22.8779H25.2232C25.786 22.8779 26.2423 23.3342 26.2423 23.897C26.2423 24.4599 25.786 24.9162 25.2232 24.9162H17.0703C16.5075 24.9162 16.0512 24.4599 16.0512 23.897ZM13.928 15.2346C13.3652 15.2346 12.9089 15.6909 12.9089 16.2537C12.9089 16.8166 13.3652 17.2728 13.928 17.2728C14.4909 17.2728 14.9472 16.8166 14.9472 16.2537C14.9472 15.6909 14.4909 15.2346 13.928 15.2346ZM24.1191 20.0754C24.1191 19.5125 24.5754 19.0563 25.1382 19.0563C25.7011 19.0563 26.1573 19.5125 26.1573 20.0754C26.1573 20.6382 25.7011 21.0945 25.1382 21.0945C24.5754 21.0945 24.1191 20.6382 24.1191 20.0754ZM13.928 22.8779C13.3652 22.8779 12.9089 23.3342 12.9089 23.897C12.9089 24.4599 13.3652 24.9162 13.928 24.9162C14.4909 24.9162 14.9472 24.4599 14.9472 23.897C14.9472 23.3342 14.4909 22.8779 13.928 22.8779Z" fill="#FFA741"/>
<path d="M163.697 28.2825C162.604 28.2825 161.628 28.1051 160.771 27.7504C159.928 27.3808 159.248 26.8782 158.731 26.2426L160.682 24.5575C161.14 25.0453 161.65 25.4 162.212 25.6218C162.774 25.8287 163.335 25.9322 163.897 25.9322C164.119 25.9322 164.318 25.91 164.496 25.8657C164.688 25.8065 164.85 25.7326 164.983 25.6439C165.117 25.5405 165.213 25.4222 165.272 25.2892C165.346 25.1414 165.383 24.9861 165.383 24.8235C165.383 24.4983 165.25 24.2397 164.983 24.0475C164.836 23.9736 164.607 23.8849 164.296 23.7814C163.986 23.6632 163.587 23.5375 163.099 23.4045C162.345 23.2123 161.702 22.9906 161.17 22.7393C160.652 22.4732 160.238 22.1776 159.928 21.8524C159.662 21.5419 159.455 21.2094 159.307 20.8546C159.174 20.485 159.108 20.0785 159.108 19.6351C159.108 19.1029 159.226 18.6225 159.462 18.1938C159.699 17.7504 160.024 17.3734 160.438 17.063C160.867 16.7526 161.355 16.5161 161.901 16.3535C162.448 16.1761 163.025 16.0874 163.631 16.0874C164.237 16.0874 164.828 16.1613 165.405 16.3091C165.981 16.457 166.513 16.6713 167.001 16.9521C167.504 17.2182 167.94 17.536 168.309 17.9056L166.624 19.7681C166.358 19.5168 166.055 19.2877 165.715 19.0807C165.39 18.8738 165.05 18.7112 164.695 18.5929C164.34 18.4747 164.023 18.4156 163.742 18.4156C163.491 18.4156 163.261 18.4377 163.054 18.4821C162.862 18.5264 162.7 18.5929 162.567 18.6816C162.434 18.7703 162.33 18.8886 162.256 19.0364C162.197 19.1694 162.168 19.3173 162.168 19.4799C162.168 19.6425 162.204 19.7977 162.278 19.9455C162.367 20.0933 162.485 20.219 162.633 20.3224C162.796 20.4111 163.032 20.5146 163.343 20.6329C163.668 20.7511 164.104 20.8842 164.651 21.032C165.36 21.2241 165.959 21.4385 166.447 21.675C166.949 21.9115 167.349 22.185 167.644 22.4954C167.896 22.7615 168.08 23.0645 168.199 23.4045C168.317 23.7445 168.376 24.1214 168.376 24.5353C168.376 25.2596 168.169 25.91 167.755 26.4865C167.356 27.0482 166.802 27.4917 166.092 27.8169C165.383 28.1273 164.584 28.2825 163.697 28.2825Z" fill="#181A20"/>
<path d="M152.546 28.2825C151.275 28.2825 150.166 28.0238 149.22 27.5065C148.274 26.9891 147.535 26.2796 147.003 25.3779C146.47 24.4762 146.204 23.4414 146.204 22.2737C146.204 21.372 146.352 20.5442 146.648 19.7903C146.943 19.0364 147.357 18.386 147.889 17.8391C148.422 17.2774 149.05 16.8487 149.774 16.553C150.513 16.2426 151.312 16.0874 152.169 16.0874C152.967 16.0874 153.706 16.2352 154.386 16.5309C155.066 16.8117 155.65 17.2182 156.138 17.7504C156.64 18.2677 157.025 18.8812 157.291 19.5907C157.557 20.3003 157.675 21.0763 157.646 21.9189L157.623 22.8945H148.2L147.69 20.9655H155.029L154.674 21.3646V20.8768C154.645 20.4776 154.512 20.1155 154.275 19.7903C154.054 19.4651 153.765 19.2138 153.411 19.0364C153.056 18.859 152.657 18.7703 152.213 18.7703C151.563 18.7703 151.008 18.896 150.55 19.1473C150.107 19.3986 149.767 19.7681 149.53 20.2559C149.294 20.7437 149.176 21.335 149.176 22.0298C149.176 22.7393 149.323 23.3527 149.619 23.8701C149.929 24.3875 150.358 24.794 150.905 25.0896C151.467 25.3705 152.125 25.5109 152.878 25.5109C153.396 25.5109 153.869 25.4296 154.297 25.267C154.726 25.1044 155.184 24.8235 155.672 24.4244L157.18 26.5309C156.751 26.9152 156.278 27.2404 155.761 27.5065C155.244 27.7578 154.711 27.9499 154.164 28.083C153.617 28.216 153.078 28.2825 152.546 28.2825Z" fill="#181A20"/>
<path d="M137.225 24.5356L136.294 21.9413L141.837 16.3316H145.983L137.225 24.5356ZM134.232 28.0611V11.6531H137.38V28.0611H134.232ZM142.17 28.0611L137.957 22.7617L140.174 20.9879L145.961 28.0611H142.17Z" fill="#181A20"/>
<path d="M124.401 28.2825C123.426 28.2825 122.546 28.0164 121.763 27.4843C120.979 26.9521 120.358 26.2278 119.9 25.3113C119.442 24.3949 119.213 23.3453 119.213 22.1628C119.213 20.9802 119.442 19.9381 119.9 19.0364C120.373 18.1199 121.009 17.403 121.807 16.8856C122.605 16.3535 123.514 16.0874 124.534 16.0874C125.111 16.0874 125.636 16.1761 126.109 16.3535C126.596 16.5161 127.018 16.7452 127.373 17.0408C127.742 17.3365 128.053 17.6765 128.304 18.0608C128.555 18.4451 128.732 18.859 128.836 19.3025L128.171 19.1916V16.3313H131.297V28.0608H128.126V25.2448L128.836 25.1783C128.718 25.5922 128.526 25.9839 128.259 26.3535C127.993 26.723 127.661 27.0556 127.262 27.3513C126.877 27.6321 126.441 27.8612 125.953 28.0386C125.466 28.2012 124.948 28.2825 124.401 28.2825ZM125.266 25.5553C125.857 25.5553 126.375 25.4148 126.818 25.134C127.262 24.8531 127.602 24.4614 127.838 23.9588C128.089 23.4414 128.215 22.8428 128.215 22.1628C128.215 21.4976 128.089 20.9137 127.838 20.4111C127.602 19.9085 127.262 19.5168 126.818 19.236C126.375 18.9403 125.857 18.7925 125.266 18.7925C124.69 18.7925 124.18 18.9403 123.736 19.236C123.307 19.5168 122.968 19.9085 122.716 20.4111C122.465 20.9137 122.339 21.4976 122.339 22.1628C122.339 22.8428 122.465 23.4414 122.716 23.9588C122.968 24.4614 123.307 24.8531 123.736 25.134C124.18 25.4148 124.69 25.5553 125.266 25.5553Z" fill="#181A20"/>
<path d="M112.156 28.0611V15.5334H107.632V12.54H120.138V15.5334H115.482V28.0611H112.156Z" fill="#181A20"/>
<path d="M98.2219 24.5356L97.2906 21.9413L102.834 16.3316H106.98L98.2219 24.5356ZM95.2285 28.0611V11.6531H98.3771V28.0611H95.2285ZM103.166 28.0611L98.9536 22.7617L101.171 20.9879L106.958 28.0611H103.166Z" fill="#181A20"/>
<path d="M88.5323 28.2825C87.4089 28.2825 86.4037 28.0164 85.5168 27.4843C84.6299 26.9521 83.9277 26.2278 83.4104 25.3113C82.9078 24.3949 82.6565 23.3527 82.6565 22.185C82.6565 21.032 82.9078 19.9972 83.4104 19.0807C83.9277 18.1495 84.6299 17.4178 85.5168 16.8856C86.4037 16.3535 87.4089 16.0874 88.5323 16.0874C89.5818 16.0874 90.5427 16.2796 91.4148 16.6639C92.2869 17.0482 92.9669 17.5804 93.4547 18.2604L91.7252 20.3446C91.5183 20.0638 91.2596 19.8125 90.9492 19.5907C90.6388 19.3542 90.2988 19.1694 89.9292 19.0364C89.5745 18.9034 89.2049 18.8368 88.8206 18.8368C88.2145 18.8368 87.675 18.9847 87.2019 19.2803C86.7437 19.5612 86.3816 19.9529 86.1155 20.4555C85.8494 20.9581 85.7164 21.5346 85.7164 22.185C85.7164 22.8206 85.8494 23.3897 86.1155 23.8923C86.3963 24.3801 86.7733 24.7792 87.2463 25.0896C87.7193 25.3853 88.2515 25.5331 88.8427 25.5331C89.2271 25.5331 89.5892 25.4813 89.9292 25.3779C90.2692 25.2596 90.587 25.0896 90.8827 24.8679C91.1931 24.6462 91.4739 24.3801 91.7252 24.0697L93.4325 26.1539C92.93 26.7895 92.2352 27.3069 91.3483 27.706C90.4614 28.0904 89.5227 28.2825 88.5323 28.2825Z" fill="#181A20"/>
<path d="M77.1426 28.061V16.3315H80.2911V28.061H77.1426ZM78.6947 13.9146C78.0886 13.9146 77.6156 13.7668 77.2756 13.4712C76.9356 13.1755 76.7656 12.7543 76.7656 12.2073C76.7656 11.7047 76.9356 11.2982 77.2756 10.9878C77.6304 10.6626 78.1034 10.5 78.6947 10.5C79.3007 10.5 79.7738 10.6552 80.1137 10.9656C80.4537 11.2613 80.6237 11.6752 80.6237 12.2073C80.6237 12.7247 80.4463 13.1386 80.0916 13.449C79.7516 13.7594 79.286 13.9146 78.6947 13.9146Z" fill="#181A20"/>
<path d="M67.1671 28.2828C66.3098 28.2828 65.5707 28.098 64.9498 27.7284C64.3438 27.3441 63.8708 26.8046 63.5308 26.1098C63.2056 25.4003 63.043 24.5503 63.043 23.5599V16.3315H66.1915V23.0499C66.1915 23.5821 66.2802 24.0477 66.4576 24.4468C66.635 24.8312 66.8863 25.1268 67.2115 25.3338C67.5367 25.5407 67.9358 25.6442 68.4088 25.6442C68.7488 25.6442 69.0666 25.5924 69.3623 25.489C69.6579 25.3707 69.9092 25.2081 70.1161 25.0012C70.3231 24.7942 70.4857 24.5503 70.6039 24.2695C70.7222 23.9886 70.7813 23.6856 70.7813 23.3604V16.3315H73.9299V28.061H70.9365L70.8257 25.6442L71.4022 25.3781C71.2248 25.925 70.9291 26.4202 70.5153 26.8637C70.1014 27.3072 69.6062 27.6545 69.0297 27.9058C68.4532 28.1571 67.8323 28.2828 67.1671 28.2828Z" fill="#181A20"/>
<path d="M57.6386 30.5L51.7184 22.5843L54.2239 20.8326L60.0776 28.704L57.6386 30.5ZM52.8936 28.2827C51.7554 28.2827 50.7058 28.0832 49.745 27.684C48.7842 27.2849 47.9416 26.7306 47.2173 26.0211C46.5078 25.2968 45.9608 24.4468 45.5765 23.4712C45.1922 22.4808 45 21.4091 45 20.2561C45 19.0883 45.1922 18.024 45.5765 17.0632C45.9608 16.0876 46.5078 15.2376 47.2173 14.5133C47.9416 13.789 48.7842 13.2273 49.745 12.8282C50.7058 12.429 51.7554 12.2295 52.8936 12.2295C54.0466 12.2295 55.0961 12.429 56.0421 12.8282C57.003 13.2273 57.8381 13.789 58.5477 14.5133C59.272 15.2376 59.8263 16.0876 60.2106 17.0632C60.595 18.0388 60.7871 19.1031 60.7871 20.2561C60.7871 21.4091 60.595 22.4734 60.2106 23.449C59.8263 24.4246 59.272 25.2746 58.5477 25.9989C57.8381 26.7232 57.003 27.2849 56.0421 27.684C55.0961 28.0832 54.0466 28.2827 52.8936 28.2827ZM52.8936 25.1341C53.544 25.1341 54.1426 25.0159 54.6896 24.7794C55.2513 24.5429 55.7317 24.2029 56.1308 23.7594C56.5299 23.316 56.8404 22.7986 57.0621 22.2073C57.2986 21.616 57.4169 20.9656 57.4169 20.2561C57.4169 19.5466 57.2986 18.8962 57.0621 18.3049C56.8404 17.7136 56.5299 17.2036 56.1308 16.7749C55.7317 16.3315 55.2513 15.9915 54.6896 15.755C54.1426 15.5037 53.544 15.3781 52.8936 15.3781C52.2432 15.3781 51.6445 15.5037 51.0976 15.755C50.5506 15.9915 50.0702 16.3315 49.6563 16.7749C49.2424 17.2036 48.9246 17.7136 48.7029 18.3049C48.4959 18.8962 48.3925 19.5466 48.3925 20.2561C48.3925 20.9656 48.4959 21.616 48.7029 22.2073C48.9246 22.7986 49.2424 23.316 49.6563 23.7594C50.0702 24.2029 50.5506 24.5429 51.0976 24.7794C51.6445 25.0159 52.2432 25.1341 52.8936 25.1341Z" fill="#181A20"/>
</svg>
