<svg width="169" height="41" viewBox="0 0 169 41" fill="none" xmlns="http://www.w3.org/2000/svg">
<path fillRule="evenodd" clipRule="evenodd" d="M19.5757 35.362C28.0183 35.362 34.8623 28.518 34.8623 20.0754C34.8623 11.6328 28.0183 4.78876 19.5757 4.78876C11.1331 4.78876 4.28906 11.6328 4.28906 20.0754C4.28906 28.518 11.1331 35.362 19.5757 35.362ZM19.5757 31.2006C25.72 31.2006 30.701 26.2197 30.701 20.0754C30.701 13.9311 25.72 8.95012 19.5757 8.95012C13.4314 8.95012 8.45043 13.9311 8.45043 20.0754C8.45043 26.2197 13.4314 31.2006 19.5757 31.2006Z" fill="#0066FF"/>
<path fillRule="evenodd" clipRule="evenodd" d="M19.5755 30.1816C25.1569 30.1816 29.6816 25.6569 29.6816 20.0754C29.6816 14.4939 25.1569 9.96924 19.5755 9.96924C13.994 9.96924 9.4693 14.4939 9.4693 20.0754C9.4693 25.6569 13.994 30.1816 19.5755 30.1816ZM19.5755 31.2007C25.7198 31.2007 30.7007 26.2197 30.7007 20.0754C30.7007 13.9311 25.7198 8.95013 19.5755 8.95013C13.4311 8.95013 8.4502 13.9311 8.4502 20.0754C8.4502 26.2197 13.4311 31.2007 19.5755 31.2007Z" fill="#7CCBFF"/>
<rect x="26.1235" y="29.5654" width="4.16131" height="10.1911" rx="2.08066" transform="rotate(-45 26.1235 29.5654)" fill="#0066FF"/>
<path d="M32.6857 20.0754C33.0668 20.0754 33.3776 19.7662 33.3585 19.3856C33.2341 16.8983 32.4384 14.4862 31.05 12.4083C29.5336 10.1388 27.3782 8.36998 24.8565 7.32546C22.3348 6.28094 19.56 6.00764 16.883 6.54013C14.432 7.02767 12.1637 8.17064 10.3169 9.84146C10.0343 10.0971 10.0354 10.5355 10.3049 10.8049V10.8049C10.5743 11.0744 11.01 11.0728 11.294 10.8187C12.9468 9.34007 14.9689 8.32794 17.1522 7.89366C19.5615 7.41442 22.0589 7.66038 24.3284 8.60045C26.5979 9.54052 28.5377 11.1325 29.9025 13.175C31.1392 15.0259 31.8534 17.1715 31.9766 19.3857C31.9977 19.7662 32.3046 20.0754 32.6857 20.0754V20.0754Z" fill="#7CCBFF"/>
<path d="M32.6283 22.1428C32.9473 22.1933 33.2481 21.9758 33.2851 21.6549V21.6549C33.322 21.3341 33.0785 21.0538 32.7564 21.0305L32.4881 21.0111C32.1982 20.9901 31.9474 21.2082 31.9141 21.497V21.497C31.8808 21.7857 32.0755 22.0552 32.3626 22.1007L32.6283 22.1428Z" fill="#7CCBFF"/>
<path fillRule="evenodd" clipRule="evenodd" d="M17.0705 15.2346C16.5077 15.2346 16.0514 15.6909 16.0514 16.2537C16.0514 16.8166 16.5077 17.2728 17.0705 17.2728H25.2234C25.7862 17.2728 26.2425 16.8166 26.2425 16.2537C26.2425 15.6909 25.7862 15.2346 25.2234 15.2346H17.0705ZM13.9283 19.0563C13.3654 19.0563 12.9092 19.5125 12.9092 20.0754C12.9092 20.6382 13.3655 21.0945 13.9283 21.0945H22.0812C22.644 21.0945 23.1003 20.6382 23.1003 20.0754C23.1003 19.5125 22.644 19.0563 22.0812 19.0563H13.9283ZM16.0514 23.897C16.0514 23.3342 16.5077 22.8779 17.0705 22.8779H25.2234C25.7862 22.8779 26.2425 23.3342 26.2425 23.897C26.2425 24.4599 25.7862 24.9162 25.2234 24.9162H17.0705C16.5077 24.9162 16.0514 24.4599 16.0514 23.897ZM13.9283 15.2346C13.3655 15.2346 12.9092 15.6909 12.9092 16.2537C12.9092 16.8166 13.3655 17.2728 13.9283 17.2728C14.4911 17.2728 14.9474 16.8166 14.9474 16.2537C14.9474 15.6909 14.4911 15.2346 13.9283 15.2346ZM24.1194 20.0754C24.1194 19.5125 24.5756 19.0563 25.1385 19.0563C25.7013 19.0563 26.1576 19.5125 26.1576 20.0754C26.1576 20.6382 25.7013 21.0945 25.1385 21.0945C24.5756 21.0945 24.1194 20.6382 24.1194 20.0754ZM13.9283 22.8779C13.3655 22.8779 12.9092 23.3342 12.9092 23.897C12.9092 24.4599 13.3655 24.9162 13.9283 24.9162C14.4911 24.9162 14.9474 24.4599 14.9474 23.897C14.9474 23.3342 14.4911 22.8779 13.9283 22.8779Z" fill="#FFA741"/>
<path d="M163.698 28.2826C162.604 28.2826 161.628 28.1052 160.771 27.7504C159.928 27.3809 159.248 26.8783 158.731 26.2427L160.682 24.5575C161.14 25.0453 161.65 25.4001 162.212 25.6218C162.774 25.8288 163.336 25.9323 163.897 25.9323C164.119 25.9323 164.319 25.9101 164.496 25.8657C164.688 25.8066 164.851 25.7327 164.984 25.644C165.117 25.5405 165.213 25.4223 165.272 25.2892C165.346 25.1414 165.383 24.9862 165.383 24.8236C165.383 24.4984 165.25 24.2397 164.984 24.0476C164.836 23.9736 164.607 23.885 164.296 23.7815C163.986 23.6632 163.587 23.5376 163.099 23.4045C162.345 23.2124 161.702 22.9906 161.17 22.7393C160.653 22.4733 160.239 22.1776 159.928 21.8524C159.662 21.542 159.455 21.2094 159.307 20.8546C159.174 20.4851 159.108 20.0786 159.108 19.6351C159.108 19.103 159.226 18.6226 159.463 18.1939C159.699 17.7504 160.024 17.3735 160.438 17.0631C160.867 16.7527 161.355 16.5161 161.902 16.3535C162.449 16.1762 163.025 16.0875 163.631 16.0875C164.237 16.0875 164.829 16.1614 165.405 16.3092C165.982 16.457 166.514 16.6714 167.001 16.9522C167.504 17.2183 167.94 17.5361 168.31 17.9056L166.625 19.7682C166.358 19.5169 166.055 19.2878 165.715 19.0808C165.39 18.8739 165.05 18.7113 164.695 18.593C164.341 18.4748 164.023 18.4156 163.742 18.4156C163.491 18.4156 163.262 18.4378 163.055 18.4821C162.863 18.5265 162.7 18.593 162.567 18.6817C162.434 18.7704 162.33 18.8886 162.256 19.0365C162.197 19.1695 162.168 19.3173 162.168 19.4799C162.168 19.6425 162.205 19.7977 162.279 19.9456C162.367 20.0934 162.486 20.219 162.633 20.3225C162.796 20.4112 163.033 20.5147 163.343 20.6329C163.668 20.7512 164.104 20.8842 164.651 21.032C165.361 21.2242 165.959 21.4385 166.447 21.675C166.95 21.9116 167.349 22.185 167.644 22.4954C167.896 22.7615 168.081 23.0646 168.199 23.4045C168.317 23.7445 168.376 24.1215 168.376 24.5354C168.376 25.2597 168.169 25.9101 167.755 26.4866C167.356 27.0483 166.802 27.4918 166.092 27.817C165.383 28.1274 164.585 28.2826 163.698 28.2826Z" fill="white"/>
<path d="M152.546 28.2826C151.275 28.2826 150.166 28.0239 149.22 27.5065C148.274 26.9892 147.535 26.2796 147.003 25.3779C146.471 24.4762 146.205 23.4415 146.205 22.2737C146.205 21.372 146.352 20.5442 146.648 19.7903C146.944 19.0365 147.358 18.3861 147.89 17.8391C148.422 17.2774 149.05 16.8487 149.774 16.5531C150.514 16.2427 151.312 16.0875 152.169 16.0875C152.967 16.0875 153.706 16.2353 154.386 16.5309C155.066 16.8118 155.65 17.2183 156.138 17.7504C156.641 18.2678 157.025 18.8813 157.291 19.5908C157.557 20.3003 157.675 21.0764 157.646 21.9189L157.624 22.8946H148.2L147.69 20.9655H155.029L154.675 21.3646V20.8768C154.645 20.4777 154.512 20.1155 154.276 19.7903C154.054 19.4651 153.766 19.2138 153.411 19.0365C153.056 18.8591 152.657 18.7704 152.213 18.7704C151.563 18.7704 151.009 18.896 150.55 19.1473C150.107 19.3986 149.767 19.7682 149.531 20.256C149.294 20.7438 149.176 21.3351 149.176 22.0298C149.176 22.7393 149.324 23.3528 149.619 23.8702C149.93 24.3875 150.358 24.794 150.905 25.0897C151.467 25.3705 152.125 25.511 152.879 25.511C153.396 25.511 153.869 25.4297 154.298 25.2671C154.726 25.1045 155.185 24.8236 155.672 24.4245L157.18 26.5309C156.752 26.9153 156.278 27.2405 155.761 27.5065C155.244 27.7578 154.712 27.95 154.165 28.083C153.618 28.2161 153.078 28.2826 152.546 28.2826Z" fill="white"/>
<path d="M137.225 24.5356L136.294 21.9414L141.837 16.3316H145.984L137.225 24.5356ZM134.232 28.0611V11.6531H137.38V28.0611H134.232ZM142.17 28.0611L137.957 22.7618L140.174 20.9879L145.961 28.0611H142.17Z" fill="white"/>
<path d="M124.401 28.2826C123.426 28.2826 122.546 28.0165 121.763 27.4844C120.979 26.9522 120.358 26.2279 119.9 25.3114C119.442 24.3949 119.213 23.3454 119.213 22.1629C119.213 20.9803 119.442 19.9382 119.9 19.0365C120.373 18.12 121.009 17.4031 121.807 16.8857C122.605 16.3535 123.514 16.0875 124.534 16.0875C125.111 16.0875 125.636 16.1762 126.109 16.3535C126.596 16.5161 127.018 16.7453 127.373 17.0409C127.742 17.3365 128.053 17.6765 128.304 18.0609C128.555 18.4452 128.732 18.8591 128.836 19.3025L128.171 19.1917V16.3314H131.297V28.0609H128.126V25.2449L128.836 25.1784C128.718 25.5923 128.526 25.984 128.259 26.3535C127.993 26.7231 127.661 27.0557 127.262 27.3513C126.877 27.6322 126.441 27.8613 125.953 28.0387C125.466 28.2013 124.948 28.2826 124.401 28.2826ZM125.266 25.5553C125.857 25.5553 126.375 25.4149 126.818 25.134C127.262 24.8532 127.602 24.4614 127.838 23.9589C128.089 23.4415 128.215 22.8428 128.215 22.1629C128.215 21.4977 128.089 20.9138 127.838 20.4112C127.602 19.9086 127.262 19.5169 126.818 19.236C126.375 18.9404 125.857 18.7926 125.266 18.7926C124.69 18.7926 124.18 18.9404 123.736 19.236C123.307 19.5169 122.968 19.9086 122.716 20.4112C122.465 20.9138 122.339 21.4977 122.339 22.1629C122.339 22.8428 122.465 23.4415 122.716 23.9589C122.968 24.4614 123.307 24.8532 123.736 25.134C124.18 25.4149 124.69 25.5553 125.266 25.5553Z" fill="white"/>
<path d="M112.156 28.061V15.5333H107.632V12.54H120.138V15.5333H115.482V28.061H112.156Z" fill="white"/>
<path d="M98.2219 24.5356L97.2906 21.9414L102.834 16.3316H106.98L98.2219 24.5356ZM95.2285 28.0611V11.6531H98.3771V28.0611H95.2285ZM103.166 28.0611L98.9536 22.7618L101.171 20.9879L106.958 28.0611H103.166Z" fill="white"/>
<path d="M88.5321 28.2826C87.4086 28.2826 86.4035 28.0165 85.5166 27.4844C84.6296 26.9522 83.9275 26.2279 83.4101 25.3114C82.9075 24.3949 82.6562 23.3528 82.6562 22.185C82.6562 21.032 82.9075 19.9973 83.4101 19.0808C83.9275 18.1495 84.6296 17.4178 85.5166 16.8857C86.4035 16.3535 87.4086 16.0875 88.5321 16.0875C89.5816 16.0875 90.5424 16.2796 91.4146 16.664C92.2867 17.0483 92.9667 17.5804 93.4545 18.2604L91.725 20.3447C91.518 20.0638 91.2594 19.8125 90.9489 19.5908C90.6385 19.3543 90.2985 19.1695 89.929 19.0365C89.5742 18.9034 89.2047 18.8369 88.8203 18.8369C88.2143 18.8369 87.6747 18.9847 87.2017 19.2804C86.7435 19.5612 86.3813 19.9529 86.1152 20.4555C85.8492 20.9581 85.7161 21.5346 85.7161 22.185C85.7161 22.8206 85.8492 23.3898 86.1152 23.8923C86.3961 24.3801 86.773 24.7793 87.2461 25.0897C87.7191 25.3853 88.2512 25.5331 88.8425 25.5331C89.2268 25.5331 89.589 25.4814 89.929 25.3779C90.269 25.2597 90.5868 25.0897 90.8824 24.868C91.1928 24.6462 91.4737 24.3801 91.725 24.0697L93.4323 26.154C92.9297 26.7896 92.235 27.307 91.348 27.7061C90.4611 28.0904 89.5225 28.2826 88.5321 28.2826Z" fill="white"/>
<path d="M77.1426 28.061V16.3315H80.2911V28.061H77.1426ZM78.6947 13.9146C78.0886 13.9146 77.6156 13.7668 77.2756 13.4712C76.9356 13.1755 76.7656 12.7543 76.7656 12.2073C76.7656 11.7047 76.9356 11.2982 77.2756 10.9878C77.6304 10.6626 78.1034 10.5 78.6947 10.5C79.3007 10.5 79.7738 10.6552 80.1137 10.9656C80.4537 11.2613 80.6237 11.6752 80.6237 12.2073C80.6237 12.7247 80.4463 13.1386 80.0916 13.449C79.7516 13.7594 79.286 13.9146 78.6947 13.9146Z" fill="white"/>
<path d="M67.1671 28.2826C66.3098 28.2826 65.5707 28.0979 64.9498 27.7283C64.3438 27.344 63.8708 26.8044 63.5308 26.1097C63.2056 25.4002 63.043 24.5502 63.043 23.5598V16.3314H66.1915V23.0498C66.1915 23.582 66.2802 24.0476 66.4576 24.4467C66.635 24.8311 66.8863 25.1267 67.2115 25.3336C67.5367 25.5406 67.9358 25.6441 68.4088 25.6441C68.7488 25.6441 69.0666 25.5923 69.3623 25.4888C69.6579 25.3706 69.9092 25.208 70.1161 25.001C70.3231 24.7941 70.4857 24.5502 70.6039 24.2693C70.7222 23.9885 70.7813 23.6855 70.7813 23.3602V16.3314H73.9299V28.0609H70.9365L70.8257 25.6441L71.4022 25.378C71.2248 25.9249 70.9291 26.4201 70.5153 26.8636C70.1014 27.307 69.6062 27.6544 69.0297 27.9057C68.4532 28.157 67.8323 28.2826 67.1671 28.2826Z" fill="white"/>
<path d="M57.6386 30.4999L51.7184 22.5842L54.2239 20.8325L60.0776 28.7039L57.6386 30.4999ZM52.8936 28.2826C51.7554 28.2826 50.7058 28.0831 49.745 27.684C48.7842 27.2849 47.9416 26.7305 47.2173 26.021C46.5078 25.2967 45.9608 24.4467 45.5765 23.4711C45.1922 22.4807 45 21.409 45 20.256C45 19.0883 45.1922 18.024 45.5765 17.0631C45.9608 16.0875 46.5078 15.2376 47.2173 14.5132C47.9416 13.7889 48.7842 13.2272 49.745 12.8281C50.7058 12.429 51.7554 12.2294 52.8936 12.2294C54.0466 12.2294 55.0961 12.429 56.0421 12.8281C57.003 13.2272 57.8381 13.7889 58.5477 14.5132C59.272 15.2376 59.8263 16.0875 60.2106 17.0631C60.595 18.0387 60.7871 19.103 60.7871 20.256C60.7871 21.409 60.595 22.4733 60.2106 23.4489C59.8263 24.4246 59.272 25.2745 58.5477 25.9988C57.8381 26.7232 57.003 27.2849 56.0421 27.684C55.0961 28.0831 54.0466 28.2826 52.8936 28.2826ZM52.8936 25.1341C53.544 25.1341 54.1426 25.0158 54.6896 24.7793C55.2513 24.5428 55.7317 24.2028 56.1308 23.7594C56.5299 23.3159 56.8404 22.7985 57.0621 22.2073C57.2986 21.616 57.4169 20.9656 57.4169 20.256C57.4169 19.5465 57.2986 18.8961 57.0621 18.3048C56.8404 17.7135 56.5299 17.2036 56.1308 16.7749C55.7317 16.3314 55.2513 15.9914 54.6896 15.7549C54.1426 15.5036 53.544 15.378 52.8936 15.378C52.2432 15.378 51.6445 15.5036 51.0976 15.7549C50.5506 15.9914 50.0702 16.3314 49.6563 16.7749C49.2424 17.2036 48.9246 17.7135 48.7029 18.3048C48.4959 18.8961 48.3925 19.5465 48.3925 20.256C48.3925 20.9656 48.4959 21.616 48.7029 22.2073C48.9246 22.7985 49.2424 23.3159 49.6563 23.7594C50.0702 24.2028 50.5506 24.5428 51.0976 24.7793C51.6445 25.0158 52.2432 25.1341 52.8936 25.1341Z" fill="white"/>
</svg>
