<svg width="200" height="56" viewBox="0 0 200 56" fill="none" xmlns="http://www.w3.org/2000/svg">
<path fill-rule="evenodd" clip-rule="evenodd" d="M23.0013 46.9617C32.9214 46.9617 40.9631 38.9199 40.9631 28.9999C40.9631 19.0798 32.9214 11.0381 23.0013 11.0381C13.0813 11.0381 5.03955 19.0798 5.03955 28.9999C5.03955 38.9199 13.0813 46.9617 23.0013 46.9617ZM23.0013 42.0721C30.2209 42.0721 36.0735 36.2195 36.0735 28.9999C36.0735 21.7803 30.2209 15.9277 23.0013 15.9277C15.7818 15.9277 9.92914 21.7803 9.92914 28.9999C9.92914 36.2195 15.7818 42.0721 23.0013 42.0721Z" fill="#0066FF"/>
<path fill-rule="evenodd" clip-rule="evenodd" d="M23.0014 40.8747C29.5596 40.8747 34.8761 35.5582 34.8761 28.9999C34.8761 22.4417 29.5596 17.1252 23.0014 17.1252C16.4432 17.1252 11.1267 22.4417 11.1267 28.9999C11.1267 35.5582 16.4432 40.8747 23.0014 40.8747ZM23.0014 42.0721C30.221 42.0721 36.0736 36.2195 36.0736 28.9999C36.0736 21.7804 30.221 15.9277 23.0014 15.9277C15.7818 15.9277 9.9292 21.7804 9.9292 28.9999C9.9292 36.2195 15.7818 42.0721 23.0014 42.0721Z" fill="#7CCBFF"/>
<rect x="30.6948" y="40.1514" width="4.88954" height="11.9745" rx="2.44477" transform="rotate(-45 30.6948 40.1514)" fill="#0066FF"/>
<path d="M38.4059 29.0007C38.8536 29.0007 39.2188 28.6374 39.1964 28.1902C39.0501 25.2675 38.1152 22.4333 36.4838 19.9918C34.7021 17.3252 32.1695 15.2468 29.2065 14.0195C26.2436 12.7922 22.9832 12.4711 19.8377 13.0967C16.9577 13.6696 14.2925 15.0126 12.1225 16.9758C11.7904 17.2762 11.7917 17.7912 12.1084 18.1079V18.1079C12.425 18.4245 12.9369 18.4226 13.2706 18.1241C15.2126 16.3867 17.5886 15.1974 20.154 14.6871C22.985 14.124 25.9193 14.413 28.586 15.5176C31.2527 16.6222 33.532 18.4927 35.1356 20.8927C36.5887 23.0675 37.4279 25.5885 37.5726 28.1903C37.5974 28.6374 37.9581 29.0007 38.4059 29.0007V29.0007Z" fill="#7CCBFF"/>
<path d="M38.3384 31.4298C38.7132 31.4892 39.0666 31.2336 39.1101 30.8566V30.8566C39.1535 30.4796 38.8674 30.1503 38.4889 30.1229L38.1737 30.1001C37.8331 30.0754 37.5383 30.3317 37.4992 30.671V30.671C37.4601 31.0103 37.6889 31.327 38.0262 31.3804L38.3384 31.4298Z" fill="#7CCBFF"/>
<path fill-rule="evenodd" clip-rule="evenodd" d="M20.0576 23.3125C19.3962 23.3125 18.8601 23.8486 18.8601 24.51C18.8601 25.1713 19.3962 25.7074 20.0576 25.7074H29.6372C30.2985 25.7074 30.8346 25.1713 30.8346 24.51C30.8346 23.8486 30.2985 23.3125 29.6372 23.3125H20.0576ZM16.3654 27.803C15.7041 27.803 15.168 28.3391 15.168 29.0004C15.168 29.6617 15.7041 30.1979 16.3654 30.1979H25.945C26.6064 30.1979 27.1425 29.6617 27.1425 29.0004C27.1425 28.3391 26.6064 27.803 25.945 27.803H16.3654ZM18.8601 33.4908C18.8601 32.8295 19.3962 32.2934 20.0576 32.2934H29.6372C30.2985 32.2934 30.8346 32.8295 30.8346 33.4908C30.8346 34.1522 30.2985 34.6883 29.6372 34.6883H20.0576C19.3962 34.6883 18.8601 34.1522 18.8601 33.4908ZM16.3654 23.3125C15.7041 23.3125 15.168 23.8486 15.168 24.51C15.168 25.1713 15.7041 25.7074 16.3654 25.7074C17.0268 25.7074 17.5629 25.1713 17.5629 24.51C17.5629 23.8486 17.0268 23.3125 16.3654 23.3125ZM28.3399 29.0004C28.3399 28.3391 28.8761 27.803 29.5374 27.803C30.1987 27.803 30.7348 28.3391 30.7348 29.0004C30.7348 29.6617 30.1987 30.1979 29.5374 30.1979C28.8761 30.1979 28.3399 29.6617 28.3399 29.0004ZM16.3654 32.2934C15.7041 32.2934 15.168 32.8295 15.168 33.4908C15.168 34.1522 15.7041 34.6883 16.3654 34.6883C17.0268 34.6883 17.5629 34.1522 17.5629 33.4908C17.5629 32.8295 17.0268 32.2934 16.3654 32.2934Z" fill="#FFA741"/>
<path d="M171.698 27.783C170.604 27.783 169.628 27.6056 168.771 27.2509C167.928 26.8813 167.248 26.3787 166.731 25.7431L168.682 24.058C169.14 24.5458 169.65 24.9005 170.212 25.1223C170.774 25.3292 171.336 25.4327 171.897 25.4327C172.119 25.4327 172.319 25.4105 172.496 25.3662C172.688 25.307 172.851 25.2331 172.984 25.1444C173.117 25.041 173.213 24.9227 173.272 24.7897C173.346 24.6418 173.383 24.4866 173.383 24.324C173.383 23.9988 173.25 23.7401 172.984 23.548C172.836 23.4741 172.607 23.3854 172.296 23.2819C171.986 23.1636 171.587 23.038 171.099 22.905C170.345 22.7128 169.702 22.4911 169.17 22.2398C168.653 21.9737 168.239 21.6781 167.928 21.3529C167.662 21.0424 167.455 20.7098 167.307 20.3551C167.174 19.9855 167.108 19.579 167.108 19.1356C167.108 18.6034 167.226 18.123 167.463 17.6943C167.699 17.2509 168.024 16.8739 168.438 16.5635C168.867 16.2531 169.355 16.0166 169.902 15.854C170.449 15.6766 171.025 15.5879 171.631 15.5879C172.237 15.5879 172.829 15.6618 173.405 15.8096C173.982 15.9574 174.514 16.1718 175.001 16.4526C175.504 16.7187 175.94 17.0365 176.31 17.4061L174.625 19.2686C174.358 19.0173 174.055 18.7882 173.715 18.5812C173.39 18.3743 173.05 18.2117 172.695 18.0934C172.341 17.9752 172.023 17.916 171.742 17.916C171.491 17.916 171.262 17.9382 171.055 17.9826C170.863 18.0269 170.7 18.0934 170.567 18.1821C170.434 18.2708 170.33 18.3891 170.256 18.5369C170.197 18.6699 170.168 18.8177 170.168 18.9804C170.168 19.143 170.205 19.2982 170.279 19.446C170.367 19.5938 170.486 19.7194 170.633 19.8229C170.796 19.9116 171.033 20.0151 171.343 20.1333C171.668 20.2516 172.104 20.3846 172.651 20.5325C173.361 20.7246 173.959 20.939 174.447 21.1755C174.95 21.412 175.349 21.6855 175.644 21.9959C175.896 22.2619 176.081 22.565 176.199 22.905C176.317 23.2449 176.376 23.6219 176.376 24.0358C176.376 24.7601 176.169 25.4105 175.755 25.987C175.356 26.5487 174.802 26.9922 174.092 27.3174C173.383 27.6278 172.585 27.783 171.698 27.783Z" fill="white"/>
<path d="M160.546 27.783C159.275 27.783 158.166 27.5243 157.22 27.007C156.274 26.4896 155.535 25.7801 155.003 24.8784C154.471 23.9767 154.205 22.9419 154.205 21.7741C154.205 20.8724 154.352 20.0447 154.648 19.2908C154.944 18.5369 155.358 17.8865 155.89 17.3396C156.422 16.7778 157.05 16.3492 157.774 16.0535C158.514 15.7431 159.312 15.5879 160.169 15.5879C160.967 15.5879 161.706 15.7357 162.386 16.0313C163.066 16.3122 163.65 16.7187 164.138 17.2509C164.641 17.7682 165.025 18.3817 165.291 19.0912C165.557 19.8008 165.675 20.5768 165.646 21.4194L165.624 22.395H156.2L155.69 20.4659H163.029L162.675 20.8651V20.3772C162.645 19.9781 162.512 19.616 162.276 19.2908C162.054 18.9656 161.766 18.7143 161.411 18.5369C161.056 18.3595 160.657 18.2708 160.213 18.2708C159.563 18.2708 159.009 18.3965 158.55 18.6478C158.107 18.8991 157.767 19.2686 157.531 19.7564C157.294 20.2442 157.176 20.8355 157.176 21.5302C157.176 22.2398 157.324 22.8532 157.619 23.3706C157.93 23.888 158.358 24.2945 158.905 24.5901C159.467 24.871 160.125 25.0114 160.879 25.0114C161.396 25.0114 161.869 24.9301 162.298 24.7675C162.726 24.6049 163.185 24.324 163.672 23.9249L165.18 26.0313C164.752 26.4157 164.278 26.7409 163.761 27.007C163.244 27.2583 162.712 27.4504 162.165 27.5835C161.618 27.7165 161.078 27.783 160.546 27.783Z" fill="white"/>
<path d="M145.225 24.0358L144.294 21.4416L149.837 15.8318H153.984L145.225 24.0358ZM142.232 27.5613V11.1533H145.38V27.5613H142.232ZM150.17 27.5613L145.957 22.262L148.174 20.4881L153.961 27.5613H150.17Z" fill="white"/>
<path d="M132.401 27.783C131.426 27.783 130.546 27.5169 129.763 26.9848C128.979 26.4526 128.358 25.7283 127.9 24.8118C127.442 23.8954 127.213 22.8458 127.213 21.6633C127.213 20.4807 127.442 19.4386 127.9 18.5369C128.373 17.6204 129.009 16.9035 129.807 16.3861C130.605 15.854 131.514 15.5879 132.534 15.5879C133.111 15.5879 133.636 15.6766 134.109 15.854C134.596 16.0166 135.018 16.2457 135.373 16.5413C135.742 16.837 136.053 17.177 136.304 17.5613C136.555 17.9456 136.732 18.3595 136.836 18.803L136.171 18.6921V15.8318H139.297V27.5613H136.126V24.7453L136.836 24.6788C136.718 25.0927 136.526 25.4844 136.259 25.854C135.993 26.2235 135.661 26.5561 135.262 26.8517C134.877 27.1326 134.441 27.3617 133.953 27.5391C133.466 27.7017 132.948 27.783 132.401 27.783ZM133.266 25.0557C133.857 25.0557 134.375 24.9153 134.818 24.6345C135.262 24.3536 135.602 23.9619 135.838 23.4593C136.089 22.9419 136.215 22.3432 136.215 21.6633C136.215 20.9981 136.089 20.4142 135.838 19.9116C135.602 19.409 135.262 19.0173 134.818 18.7364C134.375 18.4408 133.857 18.293 133.266 18.293C132.69 18.293 132.18 18.4408 131.736 18.7364C131.307 19.0173 130.968 19.409 130.716 19.9116C130.465 20.4142 130.339 20.9981 130.339 21.6633C130.339 22.3432 130.465 22.9419 130.716 23.4593C130.968 23.9619 131.307 24.3536 131.736 24.6345C132.18 24.9153 132.69 25.0557 133.266 25.0557Z" fill="white"/>
<path d="M120.156 27.5611V15.0334H115.632V12.04H128.138V15.0334H123.482V27.5611H120.156Z" fill="white"/>
<path d="M106.222 24.0358L105.291 21.4416L110.834 15.8318H114.98L106.222 24.0358ZM103.229 27.5613V11.1533H106.377V27.5613H103.229ZM111.166 27.5613L106.954 22.262L109.171 20.4881L114.958 27.5613H111.166Z" fill="white"/>
<path d="M96.5321 27.783C95.4086 27.783 94.4035 27.5169 93.5166 26.9848C92.6296 26.4526 91.9275 25.7283 91.4101 24.8118C90.9075 23.8954 90.6562 22.8532 90.6562 21.6855C90.6562 20.5325 90.9075 19.4977 91.4101 18.5812C91.9275 17.65 92.6296 16.9183 93.5166 16.3861C94.4035 15.854 95.4086 15.5879 96.5321 15.5879C97.5816 15.5879 98.5424 15.7801 99.4146 16.1644C100.287 16.5487 100.967 17.0809 101.454 17.7608L99.725 19.8451C99.518 19.5642 99.2594 19.3129 98.9489 19.0912C98.6385 18.8547 98.2985 18.6699 97.929 18.5369C97.5742 18.4039 97.2047 18.3373 96.8203 18.3373C96.2143 18.3373 95.6747 18.4852 95.2017 18.7808C94.7435 19.0617 94.3813 19.4534 94.1152 19.956C93.8492 20.4585 93.7161 21.035 93.7161 21.6855C93.7161 22.3211 93.8492 22.8902 94.1152 23.3928C94.3961 23.8806 94.773 24.2797 95.2461 24.5901C95.7191 24.8857 96.2512 25.0336 96.8425 25.0336C97.2268 25.0336 97.589 24.9818 97.929 24.8784C98.269 24.7601 98.5868 24.5901 98.8824 24.3684C99.1928 24.1466 99.4737 23.8806 99.725 23.5702L101.432 25.6544C100.93 26.29 100.235 26.8074 99.348 27.2065C98.4611 27.5908 97.5225 27.783 96.5321 27.783Z" fill="white"/>
<path d="M85.1426 27.561V15.8315H88.2911V27.561H85.1426ZM86.6947 13.4146C86.0886 13.4146 85.6156 13.2668 85.2756 12.9712C84.9356 12.6755 84.7656 12.2543 84.7656 11.7073C84.7656 11.2047 84.9356 10.7982 85.2756 10.4878C85.6304 10.1626 86.1034 10 86.6947 10C87.3007 10 87.7738 10.1552 88.1137 10.4656C88.4537 10.7613 88.6237 11.1752 88.6237 11.7073C88.6237 12.2247 88.4463 12.6386 88.0916 12.949C87.7516 13.2594 87.286 13.4146 86.6947 13.4146Z" fill="white"/>
<path d="M75.1671 27.7823C74.3098 27.7823 73.5707 27.5975 72.9498 27.228C72.3438 26.8436 71.8708 26.3041 71.5308 25.6093C71.2056 24.8998 71.043 24.0498 71.043 23.0594V15.8311H74.1915V22.5495C74.1915 23.0816 74.2802 23.5472 74.4576 23.9464C74.635 24.3307 74.8863 24.6263 75.2115 24.8333C75.5367 25.0402 75.9358 25.1437 76.4088 25.1437C76.7488 25.1437 77.0666 25.092 77.3623 24.9885C77.6579 24.8702 77.9092 24.7076 78.1161 24.5007C78.3231 24.2937 78.4857 24.0498 78.6039 23.769C78.7222 23.4881 78.7813 23.1851 78.7813 22.8599V15.8311H81.9299V27.5605H78.9365L78.8257 25.1437L79.4022 24.8776C79.2248 25.4246 78.9291 25.9197 78.5153 26.3632C78.1014 26.8067 77.6062 27.154 77.0297 27.4053C76.4532 27.6566 75.8323 27.7823 75.1671 27.7823Z" fill="white"/>
<path d="M65.6386 30L59.7184 22.0843L62.2239 20.3326L68.0776 28.204L65.6386 30ZM60.8936 27.7827C59.7554 27.7827 58.7058 27.5832 57.745 27.184C56.7842 26.7849 55.9416 26.2306 55.2173 25.5211C54.5078 24.7968 53.9608 23.9468 53.5765 22.9712C53.1922 21.9808 53 20.9091 53 19.7561C53 18.5883 53.1922 17.524 53.5765 16.5632C53.9608 15.5876 54.5078 14.7376 55.2173 14.0133C55.9416 13.289 56.7842 12.7273 57.745 12.3282C58.7058 11.929 59.7554 11.7295 60.8936 11.7295C62.0466 11.7295 63.0961 11.929 64.0421 12.3282C65.003 12.7273 65.8381 13.289 66.5477 14.0133C67.272 14.7376 67.8263 15.5876 68.2106 16.5632C68.595 17.5388 68.7871 18.6031 68.7871 19.7561C68.7871 20.9091 68.595 21.9734 68.2106 22.949C67.8263 23.9246 67.272 24.7746 66.5477 25.4989C65.8381 26.2232 65.003 26.7849 64.0421 27.184C63.0961 27.5832 62.0466 27.7827 60.8936 27.7827ZM60.8936 24.6341C61.544 24.6341 62.1426 24.5159 62.6896 24.2794C63.2513 24.0429 63.7317 23.7029 64.1308 23.2594C64.5299 22.816 64.8404 22.2986 65.0621 21.7073C65.2986 21.116 65.4169 20.4656 65.4169 19.7561C65.4169 19.0466 65.2986 18.3962 65.0621 17.8049C64.8404 17.2136 64.5299 16.7036 64.1308 16.2749C63.7317 15.8315 63.2513 15.4915 62.6896 15.255C62.1426 15.0037 61.544 14.8781 60.8936 14.8781C60.2432 14.8781 59.6445 15.0037 59.0976 15.255C58.5506 15.4915 58.0702 15.8315 57.6563 16.2749C57.2424 16.7036 56.9246 17.2136 56.7029 17.8049C56.4959 18.3962 56.3925 19.0466 56.3925 19.7561C56.3925 20.4656 56.4959 21.116 56.7029 21.7073C56.9246 22.2986 57.2424 22.816 57.6563 23.2594C58.0702 23.7029 58.5506 24.0429 59.0976 24.2794C59.6445 24.5159 60.2432 24.6341 60.8936 24.6341Z" fill="white"/>
<path d="M54.668 48L56.5 38.0469H57.6211L55.7891 48H54.668ZM57.334 48L59.166 38.0469H60.2871L58.4551 48H57.334ZM61.2168 41.9502H54.1074V40.8906H61.2168V41.9502ZM60.7041 45.1973H53.5879V44.1377H60.7041V45.1973ZM66.6992 38.0127V48H65.0518V39.9678L62.6113 40.7949V39.4346L66.501 38.0127H66.6992ZM77.7803 39.373L74.8066 48H73.0088L76.7549 38.0469H77.9033L77.7803 39.373ZM80.2686 48L77.2881 39.373L77.1582 38.0469H78.3135L82.0732 48H80.2686ZM80.125 44.3086V45.6689H74.7109V44.3086H80.125ZM85.0195 38.0469V48H83.3037V38.0469H85.0195ZM95.875 45.4365C95.875 45.2314 95.8431 45.0492 95.7793 44.8896C95.7201 44.7301 95.613 44.5843 95.458 44.4521C95.3031 44.32 95.0843 44.1924 94.8018 44.0693C94.5238 43.9417 94.1683 43.8118 93.7354 43.6797C93.2614 43.5339 92.8239 43.3721 92.4229 43.1943C92.0264 43.012 91.68 42.8024 91.3838 42.5654C91.0876 42.3239 90.8574 42.0482 90.6934 41.7383C90.5293 41.4238 90.4473 41.0615 90.4473 40.6514C90.4473 40.2458 90.5316 39.8766 90.7002 39.5439C90.8734 39.2113 91.1172 38.9242 91.4316 38.6826C91.7507 38.4365 92.1266 38.2474 92.5596 38.1152C92.9925 37.9785 93.471 37.9102 93.9951 37.9102C94.7334 37.9102 95.3691 38.0469 95.9023 38.3203C96.4401 38.5938 96.8525 38.9606 97.1396 39.4209C97.4313 39.8812 97.5771 40.3893 97.5771 40.9453H95.875C95.875 40.6172 95.8044 40.3278 95.6631 40.0771C95.5264 39.8219 95.3167 39.6214 95.0342 39.4756C94.7562 39.3298 94.403 39.2568 93.9746 39.2568C93.569 39.2568 93.2318 39.3184 92.9629 39.4414C92.694 39.5645 92.4935 39.7308 92.3613 39.9404C92.2292 40.1501 92.1631 40.387 92.1631 40.6514C92.1631 40.8382 92.2064 41.0091 92.293 41.1641C92.3796 41.3145 92.5117 41.4557 92.6895 41.5879C92.8672 41.7155 93.0905 41.8363 93.3594 41.9502C93.6283 42.0641 93.945 42.1735 94.3096 42.2783C94.861 42.4424 95.3418 42.6247 95.752 42.8252C96.1621 43.0212 96.5039 43.2445 96.7773 43.4951C97.0508 43.7458 97.2559 44.0306 97.3926 44.3496C97.5293 44.6641 97.5977 45.0218 97.5977 45.4229C97.5977 45.8421 97.5133 46.2204 97.3447 46.5576C97.1761 46.8903 96.9346 47.1751 96.6201 47.4121C96.3102 47.6445 95.9365 47.8245 95.499 47.9521C95.0661 48.0752 94.583 48.1367 94.0498 48.1367C93.5713 48.1367 93.0996 48.0729 92.6348 47.9453C92.1745 47.8177 91.7552 47.624 91.377 47.3643C90.9987 47.0999 90.6979 46.7718 90.4746 46.3799C90.2513 45.9834 90.1396 45.5208 90.1396 44.9922H91.8555C91.8555 45.3158 91.9102 45.5915 92.0195 45.8193C92.1335 46.0472 92.2907 46.234 92.4912 46.3799C92.6917 46.5212 92.9242 46.626 93.1885 46.6943C93.4574 46.7627 93.7445 46.7969 94.0498 46.7969C94.4508 46.7969 94.7858 46.7399 95.0547 46.626C95.3281 46.512 95.5332 46.3525 95.6699 46.1475C95.8066 45.9424 95.875 45.7054 95.875 45.4365ZM102.342 40.6035V41.8066H98.1719V40.6035H102.342ZM99.375 38.792H101.022V45.9561C101.022 46.1839 101.054 46.3594 101.118 46.4824C101.187 46.6009 101.28 46.6807 101.398 46.7217C101.517 46.7627 101.656 46.7832 101.815 46.7832C101.929 46.7832 102.039 46.7764 102.144 46.7627C102.248 46.749 102.333 46.7354 102.396 46.7217L102.403 47.9795C102.267 48.0205 102.107 48.057 101.925 48.0889C101.747 48.1208 101.542 48.1367 101.31 48.1367C100.931 48.1367 100.596 48.0706 100.305 47.9385C100.013 47.8018 99.7852 47.5807 99.6211 47.2754C99.457 46.9701 99.375 46.5645 99.375 46.0586V38.792ZM108.063 46.2568V40.6035H109.718V48H108.159L108.063 46.2568ZM108.296 44.7188L108.85 44.7051C108.85 45.2018 108.795 45.6598 108.686 46.0791C108.576 46.4938 108.408 46.8561 108.18 47.166C107.952 47.4714 107.66 47.7106 107.305 47.8838C106.949 48.0524 106.523 48.1367 106.026 48.1367C105.666 48.1367 105.336 48.0843 105.035 47.9795C104.734 47.8747 104.475 47.7129 104.256 47.4941C104.042 47.2754 103.875 46.9906 103.757 46.6396C103.638 46.2887 103.579 45.8695 103.579 45.3818V40.6035H105.227V45.3955C105.227 45.6644 105.258 45.89 105.322 46.0723C105.386 46.25 105.473 46.3936 105.582 46.5029C105.691 46.6123 105.819 46.6898 105.965 46.7354C106.111 46.7809 106.266 46.8037 106.43 46.8037C106.899 46.8037 107.268 46.7126 107.537 46.5303C107.811 46.3434 108.004 46.0928 108.118 45.7783C108.237 45.4639 108.296 45.1107 108.296 44.7188ZM115.918 46.4688V37.5H117.572V48H116.075L115.918 46.4688ZM111.105 44.3838V44.2402C111.105 43.6797 111.172 43.1693 111.304 42.709C111.436 42.2441 111.627 41.8454 111.878 41.5127C112.129 41.1755 112.434 40.918 112.794 40.7402C113.154 40.5579 113.56 40.4668 114.011 40.4668C114.457 40.4668 114.849 40.5534 115.187 40.7266C115.524 40.8997 115.811 41.1481 116.048 41.4717C116.285 41.7907 116.474 42.1735 116.615 42.6201C116.757 43.0622 116.857 43.5544 116.916 44.0967V44.5547C116.857 45.0833 116.757 45.5664 116.615 46.0039C116.474 46.4414 116.285 46.8197 116.048 47.1387C115.811 47.4577 115.521 47.7038 115.18 47.877C114.842 48.0501 114.448 48.1367 113.997 48.1367C113.55 48.1367 113.147 48.0433 112.787 47.8564C112.432 47.6696 112.129 47.4076 111.878 47.0703C111.627 46.7331 111.436 46.3366 111.304 45.8809C111.172 45.4206 111.105 44.9215 111.105 44.3838ZM112.753 44.2402V44.3838C112.753 44.721 112.783 45.0355 112.842 45.3271C112.906 45.6188 113.004 45.8763 113.136 46.0996C113.268 46.3184 113.439 46.4915 113.648 46.6191C113.863 46.7422 114.118 46.8037 114.414 46.8037C114.788 46.8037 115.095 46.7217 115.337 46.5576C115.578 46.3936 115.768 46.1725 115.904 45.8945C116.046 45.612 116.141 45.2975 116.191 44.9512V43.7139C116.164 43.445 116.107 43.1943 116.021 42.9619C115.938 42.7295 115.827 42.5267 115.686 42.3535C115.544 42.1758 115.369 42.0391 115.159 41.9434C114.954 41.8431 114.71 41.793 114.428 41.793C114.127 41.793 113.872 41.8568 113.662 41.9844C113.452 42.112 113.279 42.2874 113.143 42.5107C113.01 42.734 112.912 42.9938 112.849 43.29C112.785 43.5863 112.753 43.903 112.753 44.2402ZM121.441 47.1934L123.451 40.6035H125.215L122.248 49.1279C122.18 49.3102 122.091 49.5085 121.981 49.7227C121.872 49.9368 121.729 50.1396 121.551 50.3311C121.378 50.527 121.161 50.6842 120.901 50.8027C120.642 50.9258 120.327 50.9873 119.958 50.9873C119.812 50.9873 119.671 50.9736 119.534 50.9463C119.402 50.9235 119.277 50.8984 119.158 50.8711L119.151 49.6133C119.197 49.6178 119.252 49.6224 119.315 49.627C119.384 49.6315 119.438 49.6338 119.479 49.6338C119.753 49.6338 119.981 49.5996 120.163 49.5312C120.345 49.4674 120.493 49.3626 120.607 49.2168C120.726 49.071 120.826 48.875 120.908 48.6289L121.441 47.1934ZM120.307 40.6035L122.063 46.1406L122.357 47.877L121.216 48.1709L118.529 40.6035H120.307ZM135.688 44.7598H137.396C137.342 45.4115 137.16 45.9925 136.85 46.5029C136.54 47.0088 136.104 47.4076 135.544 47.6992C134.983 47.9909 134.302 48.1367 133.5 48.1367C132.885 48.1367 132.331 48.0273 131.839 47.8086C131.347 47.5853 130.925 47.2708 130.574 46.8652C130.223 46.4551 129.954 45.9606 129.768 45.3818C129.585 44.8031 129.494 44.1559 129.494 43.4404V42.6133C129.494 41.8978 129.588 41.2507 129.774 40.6719C129.966 40.0931 130.239 39.5986 130.595 39.1885C130.95 38.7738 131.376 38.457 131.873 38.2383C132.374 38.0195 132.937 37.9102 133.562 37.9102C134.354 37.9102 135.024 38.056 135.571 38.3477C136.118 38.6393 136.542 39.0426 136.843 39.5576C137.148 40.0726 137.335 40.6628 137.403 41.3281H135.694C135.649 40.8997 135.549 40.5329 135.394 40.2275C135.243 39.9222 135.02 39.6898 134.724 39.5303C134.427 39.3662 134.04 39.2842 133.562 39.2842C133.17 39.2842 132.828 39.3571 132.536 39.5029C132.244 39.6488 132.001 39.863 131.805 40.1455C131.609 40.4281 131.461 40.7767 131.36 41.1914C131.265 41.6016 131.217 42.071 131.217 42.5996V43.4404C131.217 43.9417 131.26 44.3975 131.347 44.8076C131.438 45.2132 131.575 45.5618 131.757 45.8535C131.944 46.1452 132.181 46.3708 132.468 46.5303C132.755 46.6898 133.099 46.7695 133.5 46.7695C133.988 46.7695 134.382 46.6921 134.683 46.5371C134.988 46.3822 135.218 46.1566 135.373 45.8604C135.533 45.5596 135.637 45.1927 135.688 44.7598ZM138.477 44.3838V44.2266C138.477 43.6934 138.554 43.1989 138.709 42.7432C138.864 42.2829 139.087 41.8841 139.379 41.5469C139.675 41.2051 140.035 40.9408 140.459 40.7539C140.887 40.5625 141.37 40.4668 141.908 40.4668C142.451 40.4668 142.934 40.5625 143.357 40.7539C143.786 40.9408 144.148 41.2051 144.444 41.5469C144.741 41.8841 144.966 42.2829 145.121 42.7432C145.276 43.1989 145.354 43.6934 145.354 44.2266V44.3838C145.354 44.917 145.276 45.4115 145.121 45.8672C144.966 46.3229 144.741 46.7217 144.444 47.0635C144.148 47.4007 143.788 47.665 143.364 47.8564C142.94 48.0433 142.46 48.1367 141.922 48.1367C141.38 48.1367 140.894 48.0433 140.466 47.8564C140.042 47.665 139.682 47.4007 139.386 47.0635C139.09 46.7217 138.864 46.3229 138.709 45.8672C138.554 45.4115 138.477 44.917 138.477 44.3838ZM140.124 44.2266V44.3838C140.124 44.7165 140.158 45.0309 140.227 45.3271C140.295 45.6234 140.402 45.8831 140.548 46.1064C140.694 46.3298 140.881 46.5052 141.108 46.6328C141.336 46.7604 141.607 46.8242 141.922 46.8242C142.227 46.8242 142.492 46.7604 142.715 46.6328C142.943 46.5052 143.13 46.3298 143.275 46.1064C143.421 45.8831 143.528 45.6234 143.597 45.3271C143.67 45.0309 143.706 44.7165 143.706 44.3838V44.2266C143.706 43.8984 143.67 43.5885 143.597 43.2969C143.528 43.0007 143.419 42.7386 143.269 42.5107C143.123 42.2829 142.936 42.1051 142.708 41.9775C142.485 41.8454 142.218 41.7793 141.908 41.7793C141.598 41.7793 141.329 41.8454 141.102 41.9775C140.878 42.1051 140.694 42.2829 140.548 42.5107C140.402 42.7386 140.295 43.0007 140.227 43.2969C140.158 43.5885 140.124 43.8984 140.124 44.2266ZM148.382 42.1074V48H146.734V40.6035H148.286L148.382 42.1074ZM148.115 44.0283L147.555 44.0215C147.555 43.5111 147.618 43.0394 147.746 42.6064C147.874 42.1735 148.061 41.7975 148.307 41.4785C148.553 41.1549 148.858 40.9066 149.223 40.7334C149.592 40.5557 150.018 40.4668 150.501 40.4668C150.838 40.4668 151.146 40.5169 151.424 40.6172C151.706 40.7129 151.95 40.8656 152.155 41.0752C152.365 41.2848 152.524 41.5537 152.634 41.8818C152.748 42.21 152.805 42.6064 152.805 43.0713V48H151.157V43.2148C151.157 42.8548 151.103 42.5723 150.993 42.3672C150.888 42.1621 150.736 42.0163 150.535 41.9297C150.339 41.8385 150.104 41.793 149.831 41.793C149.521 41.793 149.257 41.8522 149.038 41.9707C148.824 42.0892 148.648 42.251 148.512 42.4561C148.375 42.6611 148.275 42.8981 148.211 43.167C148.147 43.4359 148.115 43.723 148.115 44.0283ZM152.702 43.5908L151.93 43.7617C151.93 43.3151 151.991 42.8936 152.114 42.4971C152.242 42.096 152.426 41.7451 152.668 41.4443C152.914 41.139 153.217 40.8997 153.577 40.7266C153.937 40.5534 154.35 40.4668 154.814 40.4668C155.193 40.4668 155.53 40.5192 155.826 40.624C156.127 40.7243 156.382 40.8838 156.592 41.1025C156.801 41.3213 156.961 41.6061 157.07 41.957C157.18 42.3034 157.234 42.7227 157.234 43.2148V48H155.58V43.208C155.58 42.8343 155.525 42.5449 155.416 42.3398C155.311 42.1348 155.161 41.9935 154.965 41.916C154.769 41.834 154.534 41.793 154.261 41.793C154.006 41.793 153.78 41.8408 153.584 41.9365C153.393 42.0277 153.231 42.1576 153.099 42.3262C152.966 42.4902 152.866 42.6794 152.798 42.8936C152.734 43.1077 152.702 43.3402 152.702 43.5908ZM160.584 42.0254V50.8438H158.937V40.6035H160.454L160.584 42.0254ZM165.403 44.2334V44.377C165.403 44.9147 165.34 45.4137 165.212 45.874C165.089 46.3298 164.904 46.7285 164.658 47.0703C164.417 47.4076 164.118 47.6696 163.763 47.8564C163.407 48.0433 162.997 48.1367 162.532 48.1367C162.072 48.1367 161.669 48.0524 161.322 47.8838C160.98 47.7106 160.691 47.4668 160.454 47.1523C160.217 46.8379 160.026 46.4688 159.88 46.0449C159.739 45.6165 159.638 45.1471 159.579 44.6367V44.083C159.638 43.5407 159.739 43.0485 159.88 42.6064C160.026 42.1644 160.217 41.7839 160.454 41.4648C160.691 41.1458 160.98 40.8997 161.322 40.7266C161.664 40.5534 162.063 40.4668 162.519 40.4668C162.983 40.4668 163.396 40.5579 163.756 40.7402C164.116 40.918 164.419 41.1732 164.665 41.5059C164.911 41.834 165.096 42.2305 165.219 42.6953C165.342 43.1556 165.403 43.6683 165.403 44.2334ZM163.756 44.377V44.2334C163.756 43.8916 163.724 43.5749 163.66 43.2832C163.596 42.987 163.496 42.7272 163.359 42.5039C163.223 42.2806 163.047 42.1074 162.833 41.9844C162.623 41.8568 162.37 41.793 162.074 41.793C161.783 41.793 161.532 41.8431 161.322 41.9434C161.113 42.0391 160.937 42.1735 160.796 42.3467C160.655 42.5199 160.545 42.7227 160.468 42.9551C160.39 43.1829 160.336 43.4313 160.304 43.7002V45.0264C160.358 45.3545 160.452 45.6553 160.584 45.9287C160.716 46.2021 160.903 46.4209 161.145 46.585C161.391 46.7445 161.705 46.8242 162.088 46.8242C162.384 46.8242 162.637 46.7604 162.847 46.6328C163.056 46.5052 163.227 46.3298 163.359 46.1064C163.496 45.8786 163.596 45.6165 163.66 45.3203C163.724 45.0241 163.756 44.7096 163.756 44.377ZM170.975 46.5166V42.9893C170.975 42.7249 170.927 42.4971 170.831 42.3057C170.735 42.1143 170.59 41.9661 170.394 41.8613C170.202 41.7565 169.961 41.7041 169.669 41.7041C169.4 41.7041 169.168 41.7497 168.972 41.8408C168.776 41.932 168.623 42.055 168.514 42.21C168.404 42.3649 168.35 42.5404 168.35 42.7363H166.709C166.709 42.4447 166.78 42.1621 166.921 41.8887C167.062 41.6152 167.267 41.3714 167.536 41.1572C167.805 40.943 168.126 40.7744 168.5 40.6514C168.874 40.5283 169.293 40.4668 169.758 40.4668C170.314 40.4668 170.806 40.5602 171.234 40.7471C171.667 40.9339 172.007 41.2165 172.253 41.5947C172.504 41.9684 172.629 42.4378 172.629 43.0029V46.291C172.629 46.6283 172.652 46.9313 172.697 47.2002C172.747 47.4645 172.818 47.6947 172.909 47.8906V48H171.221C171.143 47.8223 171.082 47.5967 171.036 47.3232C170.995 47.0452 170.975 46.7764 170.975 46.5166ZM171.214 43.502L171.228 44.5205H170.045C169.74 44.5205 169.471 44.5501 169.238 44.6094C169.006 44.6641 168.812 44.7461 168.657 44.8555C168.502 44.9648 168.386 45.097 168.309 45.252C168.231 45.4069 168.192 45.5824 168.192 45.7783C168.192 45.9743 168.238 46.1543 168.329 46.3184C168.42 46.4779 168.552 46.6032 168.726 46.6943C168.903 46.7855 169.118 46.8311 169.368 46.8311C169.705 46.8311 169.999 46.7627 170.25 46.626C170.505 46.4847 170.706 46.3138 170.852 46.1133C170.997 45.9082 171.075 45.7145 171.084 45.5322L171.617 46.2637C171.562 46.4505 171.469 46.651 171.337 46.8652C171.205 47.0794 171.032 47.2845 170.817 47.4805C170.608 47.6719 170.355 47.8291 170.059 47.9521C169.767 48.0752 169.43 48.1367 169.047 48.1367C168.564 48.1367 168.133 48.041 167.755 47.8496C167.377 47.6536 167.08 47.3916 166.866 47.0635C166.652 46.7308 166.545 46.3548 166.545 45.9355C166.545 45.5436 166.618 45.1973 166.764 44.8965C166.914 44.5911 167.133 44.3359 167.42 44.1309C167.712 43.9258 168.067 43.7708 168.486 43.666C168.906 43.5566 169.384 43.502 169.922 43.502H171.214ZM175.985 42.1826V48H174.338V40.6035H175.89L175.985 42.1826ZM175.691 44.0283L175.158 44.0215C175.163 43.4974 175.236 43.0166 175.377 42.5791C175.523 42.1416 175.723 41.7656 175.979 41.4512C176.238 41.1367 176.548 40.8952 176.908 40.7266C177.268 40.5534 177.669 40.4668 178.111 40.4668C178.467 40.4668 178.788 40.5169 179.075 40.6172C179.367 40.7129 179.615 40.8701 179.82 41.0889C180.03 41.3076 180.189 41.5924 180.299 41.9434C180.408 42.2897 180.463 42.7158 180.463 43.2217V48H178.809V43.2148C178.809 42.8594 178.756 42.5791 178.651 42.374C178.551 42.1644 178.403 42.0163 178.207 41.9297C178.016 41.8385 177.776 41.793 177.489 41.793C177.207 41.793 176.954 41.8522 176.73 41.9707C176.507 42.0892 176.318 42.251 176.163 42.4561C176.013 42.6611 175.896 42.8981 175.814 43.167C175.732 43.4359 175.691 43.723 175.691 44.0283ZM183.908 40.6035V48H182.254V40.6035H183.908ZM182.145 38.6621C182.145 38.4115 182.227 38.2041 182.391 38.04C182.559 37.8714 182.792 37.7871 183.088 37.7871C183.38 37.7871 183.61 37.8714 183.778 38.04C183.947 38.2041 184.031 38.4115 184.031 38.6621C184.031 38.9082 183.947 39.1133 183.778 39.2773C183.61 39.4414 183.38 39.5234 183.088 39.5234C182.792 39.5234 182.559 39.4414 182.391 39.2773C182.227 39.1133 182.145 38.9082 182.145 38.6621ZM185.398 44.3838V44.2266C185.398 43.6934 185.476 43.1989 185.631 42.7432C185.786 42.2829 186.009 41.8841 186.301 41.5469C186.597 41.2051 186.957 40.9408 187.381 40.7539C187.809 40.5625 188.292 40.4668 188.83 40.4668C189.372 40.4668 189.855 40.5625 190.279 40.7539C190.708 40.9408 191.07 41.2051 191.366 41.5469C191.662 41.8841 191.888 42.2829 192.043 42.7432C192.198 43.1989 192.275 43.6934 192.275 44.2266V44.3838C192.275 44.917 192.198 45.4115 192.043 45.8672C191.888 46.3229 191.662 46.7217 191.366 47.0635C191.07 47.4007 190.71 47.665 190.286 47.8564C189.862 48.0433 189.382 48.1367 188.844 48.1367C188.301 48.1367 187.816 48.0433 187.388 47.8564C186.964 47.665 186.604 47.4007 186.308 47.0635C186.011 46.7217 185.786 46.3229 185.631 45.8672C185.476 45.4115 185.398 44.917 185.398 44.3838ZM187.046 44.2266V44.3838C187.046 44.7165 187.08 45.0309 187.148 45.3271C187.217 45.6234 187.324 45.8831 187.47 46.1064C187.616 46.3298 187.802 46.5052 188.03 46.6328C188.258 46.7604 188.529 46.8242 188.844 46.8242C189.149 46.8242 189.413 46.7604 189.637 46.6328C189.865 46.5052 190.051 46.3298 190.197 46.1064C190.343 45.8831 190.45 45.6234 190.519 45.3271C190.591 45.0309 190.628 44.7165 190.628 44.3838V44.2266C190.628 43.8984 190.591 43.5885 190.519 43.2969C190.45 43.0007 190.341 42.7386 190.19 42.5107C190.045 42.2829 189.858 42.1051 189.63 41.9775C189.407 41.8454 189.14 41.7793 188.83 41.7793C188.52 41.7793 188.251 41.8454 188.023 41.9775C187.8 42.1051 187.616 42.2829 187.47 42.5107C187.324 42.7386 187.217 43.0007 187.148 43.2969C187.08 43.5885 187.046 43.8984 187.046 44.2266ZM195.29 42.1826V48H193.643V40.6035H195.194L195.29 42.1826ZM194.996 44.0283L194.463 44.0215C194.467 43.4974 194.54 43.0166 194.682 42.5791C194.827 42.1416 195.028 41.7656 195.283 41.4512C195.543 41.1367 195.853 40.8952 196.213 40.7266C196.573 40.5534 196.974 40.4668 197.416 40.4668C197.771 40.4668 198.093 40.5169 198.38 40.6172C198.672 40.7129 198.92 40.8701 199.125 41.0889C199.335 41.3076 199.494 41.5924 199.604 41.9434C199.713 42.2897 199.768 42.7158 199.768 43.2217V48H198.113V43.2148C198.113 42.8594 198.061 42.5791 197.956 42.374C197.856 42.1644 197.708 42.0163 197.512 41.9297C197.32 41.8385 197.081 41.793 196.794 41.793C196.511 41.793 196.258 41.8522 196.035 41.9707C195.812 42.0892 195.623 42.251 195.468 42.4561C195.317 42.6611 195.201 42.8981 195.119 43.167C195.037 43.4359 194.996 43.723 194.996 44.0283Z" fill="white"/>
</svg>
