<svg width="45" height="45" viewBox="0 0 45 45" fill="none" xmlns="http://www.w3.org/2000/svg">
<rect width="45" height="45" rx="7.61719" fill="#191927"/>
<path d="M36.0087 33.7338L33.5234 31.2474C35.5498 28.7828 36.7665 25.6272 36.7665 22.1866C36.7665 14.3041 30.3793 7.91406 22.5003 7.91406C14.6212 7.91406 8.23438 14.3041 8.23438 22.1866C8.23438 30.0691 14.6216 36.4591 22.5006 36.4591C25.5246 36.4591 28.3286 35.5179 30.6361 33.9123L33.233 36.5103C33.9994 37.2771 35.2422 37.2771 36.0087 36.5103C36.7751 35.7435 36.7751 34.5002 36.0087 33.7334V33.7338ZM12.1573 22.1866C12.1573 16.4718 16.788 11.8391 22.5003 11.8391C28.2125 11.8391 32.8432 16.4718 32.8432 22.1866C32.8432 27.9014 28.2125 32.5341 22.5003 32.5341C16.788 32.5341 12.1573 27.9014 12.1573 22.1866Z" fill="#0066FF"/>
<path fillRule="evenodd" clipRule="evenodd" d="M22.5258 31.3947C27.6171 31.3947 31.7445 27.2655 31.7445 22.1719C31.7445 17.0783 27.6171 12.9491 22.5258 12.9491C17.4344 12.9491 13.307 17.0783 13.307 22.1719C13.307 27.2655 17.4344 31.3947 22.5258 31.3947ZM22.5258 32.4815C28.2171 32.4815 32.8309 27.8658 32.8309 22.1719C32.8309 16.4781 28.2171 11.8623 22.5258 11.8623C16.8344 11.8623 12.2207 16.4781 12.2207 22.1719C12.2207 27.8658 16.8344 32.4815 22.5258 32.4815Z" fill="#7CCBFF"/>
<path d="M25.102 21.2266H17.2188C16.6962 21.2266 16.2725 21.6505 16.2725 22.1734C16.2725 22.6963 16.6962 23.1202 17.2188 23.1202H25.102C25.6246 23.1202 26.0484 22.6963 26.0484 22.1734C26.0484 21.6505 25.6246 21.2266 25.102 21.2266Z" fill="#FFA741"/>
<path d="M18.2502 18.6314C18.2502 18.1085 17.8265 17.6846 17.3038 17.6846C16.7811 17.6846 16.3574 18.1085 16.3574 18.6314C16.3574 19.1543 16.7811 19.5782 17.3038 19.5782C17.8265 19.5782 18.2502 19.1543 18.2502 18.6314Z" fill="#FFA741"/>
<path d="M28.8566 22.1734C28.8566 21.6505 28.4329 21.2266 27.9102 21.2266C27.3876 21.2266 26.9639 21.6505 26.9639 22.1734C26.9639 22.6963 27.3876 23.1202 27.9102 23.1202C28.4329 23.1202 28.8566 22.6963 28.8566 22.1734Z" fill="#FFA741"/>
<path d="M27.9096 17.6846H20.0265C19.5038 17.6846 19.0801 18.1085 19.0801 18.6314C19.0801 19.1543 19.5038 19.5782 20.0265 19.5782H27.9096C28.4323 19.5782 28.856 19.1543 28.856 18.6314C28.856 18.1085 28.4323 17.6846 27.9096 17.6846Z" fill="#FFA741"/>
<path d="M18.2922 25.7154C18.2922 25.1925 17.8685 24.7686 17.3458 24.7686C16.8231 24.7686 16.3994 25.1925 16.3994 25.7154C16.3994 26.2383 16.8231 26.6621 17.3458 26.6621C17.8685 26.6621 18.2922 26.2383 18.2922 25.7154Z" fill="#FFA741"/>
<path d="M27.9526 24.7686H20.0694C19.5468 24.7686 19.123 25.1925 19.123 25.7154C19.123 26.2383 19.5468 26.6621 20.0694 26.6621H27.9526C28.4752 26.6621 28.8989 26.2383 28.8989 25.7154C28.8989 25.1925 28.4752 24.7686 27.9526 24.7686Z" fill="#FFA741"/>
<path d="M22.5892 9.26014C19.4174 9.26014 16.5141 10.4071 14.2696 12.3089C13.9314 12.5954 13.9071 13.1093 14.2144 13.429C14.4947 13.7207 14.9547 13.748 15.263 13.4862C17.2394 11.8111 19.7963 10.8004 22.5892 10.8004C28.6105 10.8004 33.5358 15.4952 33.9073 21.4258C33.9327 21.8311 34.2698 22.1463 34.6756 22.1463C35.1206 22.1463 35.4723 21.7702 35.4443 21.3257C35.0213 14.591 29.4274 9.25977 22.5892 9.25977V9.26014Z" fill="#7CCBFF"/>
<path d="M35.4616 23.927C35.4616 23.4754 35.0957 23.1094 34.6444 23.1094C34.193 23.1094 33.8271 23.4754 33.8271 23.927C33.8271 24.3785 34.193 24.7446 34.6444 24.7446C35.0957 24.7446 35.4616 24.3785 35.4616 23.927Z" fill="#7CCBFF"/>
</svg>
