<svg width="100" height="100" viewBox="0 0 100 100" fill="none" xmlns="http://www.w3.org/2000/svg">
<g clip-path="url(#clip0_1167_3689)">
<rect width="100" height="100" rx="50" fill="white"/>
<path d="M70.9311 24.749C73.0758 26.4704 74.7723 28.685 75.8759 31.2038C76.9796 33.7226 77.4577 36.4711 77.2694 39.2146C77.0649 41.8726 76.3391 44.8987 78.0668 46.9228C79.7945 48.947 83.1783 48.8754 84.7629 50.9405C86.695 53.3634 85.0798 56.9823 85.7852 60.0083C86.1528 61.4196 87.0113 62.6538 88.2066 63.4893C89.4019 64.3249 90.8558 64.7073 92.3075 64.5678C88.893 67.3313 84.7827 69.1 80.4283 69.6793L77.1058 65.4061C78.3633 66.8987 78.0259 69.2806 76.8094 70.8141C75.4766 72.26 73.7493 73.2836 71.841 73.7583C67.3656 75.139 62.6318 75.4671 58.0088 74.717C53.3858 73.9669 48.9986 72.1589 45.1895 69.434" fill="#672F23"/>
<path d="M21.0423 48.2007C21.7068 46.1561 22.8211 44.2852 23.2709 42.1895C24.2319 37.6914 22.0339 32.631 24.2217 28.5724C25.7756 25.6895 29.0878 24.2787 32.2161 23.3178C35.3443 22.3568 38.7077 21.5389 41.0386 19.2285C42.7458 17.5417 43.7272 15.2211 45.4345 13.5343C47.8574 11.1217 51.4559 10.3038 54.8704 10.0994C58.3787 9.75285 61.9172 10.3162 65.1445 11.735C66.748 12.4666 68.157 13.5648 69.258 14.941C70.359 16.3172 71.1211 17.933 71.4828 19.6579C71.7589 21.3549 71.5544 23.1235 72.086 24.7694C72.6687 26.5585 74.0795 27.9488 74.9485 29.6254C75.8224 31.4223 76.0747 33.4586 75.6658 35.4144C75.2568 37.3703 74.2098 39.1349 72.6891 40.4312L48.6445 71.5706C43.533 73.4823 31.3267 71.1719 27.4112 67.4302C23.4958 63.6886 19.3555 53.3429 21.0423 48.2007Z" fill="#672F23"/>
<path d="M72.0561 36.5056C71.0338 29.4415 65.6871 21.0995 58.6741 22.3876L37.0217 29.6664C34.885 30.0549 36.4185 33.5307 36.623 35.6878L41.3358 84.5335C41.3358 84.5335 38.412 86.5781 37.359 86.2203C37.3008 86.2 37.2377 86.1983 37.1785 86.2155C37.1193 86.2327 37.0669 86.2679 37.0286 86.3163C36.9904 86.3647 36.9682 86.4238 36.9651 86.4854C36.962 86.5469 36.9782 86.608 37.0114 86.6599C39.6183 90.4322 51.886 106.942 64.5421 101.902C67.3739 100.778 64.2457 91.8737 64.5421 88.6125L64.1639 80.1785C63.8776 75.8746 63.7447 74.1162 63.7549 74.1571C63.7652 74.198 72.7001 71.9489 73.6713 59.9777C74.2029 53.9768 73.1806 44.3569 72.0561 36.5056Z" fill="#FFBF9D"/>
<path d="M69.3464 47.9252C69.381 48.3198 69.2605 48.7124 69.0105 49.0197C68.7605 49.327 68.4006 49.5248 68.0072 49.5711C67.8155 49.6014 67.6197 49.593 67.4313 49.5463C67.243 49.4997 67.0659 49.4157 66.9106 49.2994C66.7552 49.1832 66.6247 49.0369 66.5269 48.8694C66.429 48.7018 66.3657 48.5163 66.3408 48.3239C66.3062 47.9293 66.4267 47.5367 66.6767 47.2294C66.9267 46.9221 67.2866 46.7243 67.68 46.678C67.8717 46.6477 68.0675 46.6561 68.2558 46.7028C68.4442 46.7494 68.6213 46.8334 68.7766 46.9496C68.932 47.0659 69.0624 47.2122 69.1603 47.3797C69.2582 47.5473 69.3214 47.7327 69.3464 47.9252Z" fill="#181A20"/>
<path d="M54.7789 48.8339C54.816 49.2306 54.6951 49.626 54.4425 49.9342C54.1898 50.2424 53.8258 50.4384 53.4294 50.4798C53.2377 50.5101 53.042 50.5017 52.8536 50.455C52.6653 50.4083 52.4882 50.3244 52.3328 50.2081C52.1775 50.0918 52.047 49.9456 51.9491 49.778C51.8513 49.6105 51.788 49.425 51.7631 49.2326C51.7286 48.8363 51.8505 48.4424 52.1026 48.1348C52.3548 47.8273 52.7172 47.6305 53.1125 47.5867C53.304 47.5578 53.4993 47.5672 53.6871 47.6145C53.8749 47.6617 54.0514 47.7458 54.2065 47.8618C54.3615 47.9779 54.4919 48.1235 54.5902 48.2904C54.6885 48.4573 54.7526 48.642 54.7789 48.8339Z" fill="#181A20"/>
<path d="M71.1357 42.4042C70.9721 42.6802 69.5613 41.7908 67.7927 42.0464C66.0242 42.3019 64.8894 43.5185 64.6543 43.2936C64.4191 43.0687 64.6543 42.7211 65.1756 42.1588C65.8096 41.4433 66.6791 40.9787 67.6262 40.8493C68.5734 40.7199 69.5356 40.9342 70.3383 41.4534C70.921 41.8215 71.1357 42.2508 71.1357 42.4042Z" fill="#181A20"/>
<path d="M55.2184 43.6818C55.0139 43.9374 53.6236 42.9355 51.7221 43.0173C49.8206 43.0991 48.4712 44.1725 48.2565 43.9272C48.0418 43.6818 48.3485 43.3649 48.9414 42.9049C49.7232 42.2683 50.6939 41.9088 51.7017 41.8826C52.7011 41.8419 53.6849 42.141 54.4926 42.7311C55.106 43.1298 55.3206 43.5694 55.2184 43.6818Z" fill="#181A20"/>
<path d="M61.1784 54.8766C62.0192 54.5412 62.8983 54.3112 63.7956 54.1916C64.2045 54.1201 64.5929 54.0076 64.6441 53.7214C64.6457 53.2882 64.5175 52.8644 64.276 52.5048L62.7937 49.4379C60.7491 45.042 59.2054 41.423 59.3894 41.3412C59.5734 41.2595 61.434 44.7557 63.4786 49.1414C63.9796 50.2251 64.4498 51.2576 64.9099 52.2083C65.2078 52.6945 65.3271 53.2692 65.2472 53.8338C65.1973 53.9846 65.1146 54.1224 65.005 54.2373C64.8953 54.3522 64.7616 54.4413 64.6134 54.4983C64.3851 54.577 64.1483 54.6285 63.908 54.6517C63.0118 54.8448 62.0942 54.9204 61.1784 54.8766Z" fill="#181A20"/>
<path d="M63.7959 74.0952C58.2249 74.5919 52.6255 73.5301 47.623 71.0283C47.623 71.0283 52.2439 79.033 63.9799 77.0088L63.7959 74.0952Z" fill="#FF9A6C"/>
<path d="M56.2 59.6397C56.3849 59.2313 56.674 58.8788 57.0383 58.6174C57.4764 58.4029 57.9768 58.3522 58.449 58.4743C59.1511 58.58 59.8002 58.9099 60.2994 59.4148C60.5445 59.6689 60.7173 59.9839 60.8 60.3272C60.8827 60.6704 60.8722 61.0295 60.7697 61.3674C60.5857 62.0524 59.5634 62.3897 58.8682 62.5533C58.1574 62.6539 57.4339 62.5019 56.8236 62.1239C56.5561 61.9994 56.3231 61.8113 56.1449 61.5761C55.9667 61.3409 55.8487 61.0657 55.8013 60.7745C55.825 60.3663 55.9632 59.973 56.2 59.6397Z" fill="#DF6F1E"/>
<path d="M56.5369 57.3498C56.7925 57.3498 56.9356 59.0775 58.5815 60.2225C60.2274 61.3674 62.0676 61.0199 62.0982 61.2448C62.0982 61.347 61.7097 61.6128 60.9123 61.6946C59.8745 61.7933 58.8352 61.5217 57.9783 60.9278C57.1592 60.3549 56.5947 59.4862 56.404 58.505C56.2506 57.7996 56.4142 57.3396 56.5369 57.3498Z" fill="#181A20"/>
<path d="M55.0755 37.293C54.9529 37.7531 53.3069 37.6713 51.4055 38.0495C49.504 38.4278 48.0012 39.0718 47.7149 38.6834C47.582 38.4993 47.8274 38.07 48.4101 37.5895C49.1994 36.9883 50.1214 36.5851 51.0988 36.4138C52.0686 36.2209 53.0704 36.2594 54.0226 36.5263C54.7791 36.7614 55.1266 37.0783 55.0755 37.293Z" fill="#181A20"/>
<path d="M70.1134 36.4037C69.817 36.7922 68.4982 36.5162 66.9545 36.6082C65.4108 36.7002 64.1227 37.0785 63.7854 36.7104C63.6423 36.5366 63.7854 36.1482 64.3681 35.7597C65.113 35.2578 65.9851 34.9777 66.883 34.9521C67.7764 34.8925 68.6686 35.0836 69.4592 35.5041C70.0112 35.8415 70.2157 36.2095 70.1134 36.4037Z" fill="#181A20"/>
<path d="M32.2266 31.3635C33.3205 29.6869 35.2935 28.8179 37.1541 28.1023C45.2333 24.9841 53.6551 22.8392 62.2415 21.7129C63.2638 23.4713 62.3233 25.8635 60.7081 27.1516C59.0928 28.4397 57.0278 28.9406 55.0956 29.6562C53.1634 30.3718 51.1904 31.4861 50.4032 33.3876C49.616 35.2891 50.2703 37.804 49.524 39.8588C48.2462 43.4062 43.2982 44.5512 42.0408 48.0986C41.09 50.7873 42.6541 53.6497 43.0631 56.4713C43.2571 57.9053 43.1445 59.3642 42.7326 60.7515C42.3208 62.1388 41.6191 63.4228 40.674 64.5187C39.7289 65.6146 38.5619 66.4973 37.2501 67.1085C35.9384 67.7197 34.5119 68.0455 33.0649 68.0642C32.472 57.8957 31.8824 47.7238 31.2963 37.5484C31.1532 35.4322 31.0714 33.2036 32.2266 31.3635Z" fill="#672F23"/>
<path d="M11.7397 57.0644C13.3448 55.623 15.3587 54.3758 16.0028 52.3209C16.9331 49.3154 14.5306 45.7884 16.0743 43.0589C17.4953 40.5644 21.6663 40.6973 22.9749 38.1518C23.9972 36.1072 22.8215 34.3999 23.21 32.6518C23.5985 30.9037 26.0827 29.3804 27.8615 29.5849L41.7546 49.7141C43.0427 56.4715 44.3411 60.0598 42.8894 64.0263C41.9407 66.1308 41.2209 68.3312 40.7426 70.5896C40.4359 72.8795 41.0186 75.4659 42.8894 76.8256C34.5781 77.4697 26.7983 73.1249 19.6115 68.9232L11.9953 64.4762C11.1667 64.0745 10.4477 63.4782 9.89961 62.7382C8.77507 60.8776 10.1347 58.5059 11.7397 57.0644Z" fill="#672F23"/>
<path d="M19.397 66.8788C19.6857 66.9712 19.9842 67.0295 20.2864 67.0526C21.1528 67.1347 22.0268 67.0725 22.8728 66.8686C24.2236 66.5444 25.467 65.8751 26.4816 64.9262C27.8204 63.6382 28.6605 61.9181 28.8533 60.0703C28.9756 58.9999 28.8853 57.916 28.5875 56.8807C28.2085 55.7956 27.6895 54.7646 27.0438 53.8138C26.3575 52.8315 25.8201 51.7533 25.449 50.6139C25.2553 50.0316 25.1951 49.4131 25.273 48.8043C25.3509 48.1955 25.5648 47.6121 25.8988 47.0972C26.6553 46.0749 28.0559 45.8296 29.3542 45.3082C30.0862 45.0855 30.7188 44.617 31.1453 43.9819C31.5718 43.3467 31.7661 42.5839 31.6953 41.8221C31.5211 40.3538 31.2062 38.9057 30.7548 37.4978C30.5913 36.7984 30.5913 36.0707 30.7548 35.3714C30.9414 34.6853 31.3652 34.0877 31.9509 33.6846C33.2276 32.9465 34.6779 32.5619 36.1526 32.5703C37.6642 32.5141 39.1373 32.0782 40.436 31.3026C41.6801 30.5311 42.6909 29.4356 43.3598 28.1334C43.9249 26.872 44.2904 25.5304 44.4435 24.1567C44.5827 22.8849 44.8533 21.631 45.2511 20.415C45.6878 19.3049 46.3571 18.301 47.2139 17.4708C48.6331 16.096 50.4524 15.2075 52.4093 14.9338C54.3662 14.66 56.3594 15.015 58.1015 15.9476C59.3033 16.5634 60.3866 17.3871 61.3013 18.3807C62.0656 19.2456 62.7277 20.1958 63.2743 21.2124C63.2574 21.1373 63.2299 21.0651 63.1925 20.9978C63.1312 20.8649 63.0494 20.6502 62.9063 20.3946C62.5083 19.6228 62.0136 18.9048 61.4342 18.258C60.5299 17.2164 59.4418 16.3501 58.2241 15.7022C56.6052 14.8194 54.7686 14.4152 52.9286 14.5368C50.685 14.7099 48.5679 15.6441 46.9277 17.1846C46.0344 18.0487 45.3372 19.0946 44.8831 20.2515C44.4602 21.4879 44.1723 22.7664 44.0243 24.0647C43.8788 25.3868 43.5342 26.6793 43.002 27.8983C42.367 29.1267 41.4092 30.1587 40.2316 30.8834C38.9897 31.6157 37.5834 32.0236 36.1423 32.0693C34.5825 32.0703 33.0511 32.4866 31.7055 33.2757C30.995 33.7343 30.4755 34.4355 30.2436 35.2487C30.0647 36.0188 30.0647 36.8197 30.2436 37.5898C30.6881 38.9717 31.003 40.392 31.1842 41.8323C31.2177 42.5 31.0503 43.1623 30.7037 43.7338C30.3284 44.2438 29.8136 44.6344 29.2213 44.8584C28.5977 45.1242 27.9332 45.3082 27.2892 45.574C26.6229 45.8271 26.0344 46.25 25.5819 46.8008C25.2113 47.3726 24.9738 48.0204 24.8871 48.6964C24.8004 49.3723 24.8667 50.0591 25.081 50.7059C25.4677 51.884 26.0294 52.9971 26.7474 54.008C27.3809 54.9336 27.8929 55.9369 28.2706 56.9931C28.5695 57.9861 28.6668 59.0289 28.5568 60.0601C28.3877 61.8381 27.6031 63.5014 26.3384 64.7626C25.3672 65.6965 24.1748 66.3684 22.8728 66.7153C21.7354 66.9921 20.5554 67.0477 19.397 66.8788Z" fill="#AE7461"/>
<path d="M8.32525 52.5661C8.18396 52.7675 8.08964 52.9981 8.04922 53.2408C7.92007 53.9432 8.04703 54.6686 8.40704 55.2854C8.65189 55.7346 9.00284 56.1171 9.42934 56.3997C9.96301 56.7194 10.5759 56.8824 11.1979 56.87C11.9595 56.862 12.7038 56.6415 13.3468 56.2333C13.9898 55.8251 14.5061 55.2454 14.8373 54.5595C15.2357 53.778 15.4392 52.9117 15.4303 52.0345C15.406 51.0898 15.2085 50.1577 14.8476 49.2844C14.1831 47.4954 12.987 45.7371 12.9665 43.6413C12.926 43.1257 12.9902 42.6071 13.1554 42.117C13.3205 41.6268 13.5832 41.1751 13.9275 40.7891C14.7685 40.0876 15.8521 39.746 16.9433 39.8384C18.1552 39.9357 19.3747 39.811 20.5418 39.4703C21.1547 39.2207 21.6734 38.7843 22.0242 38.2231C22.3593 37.6658 22.5654 37.0405 22.6273 36.3932C22.6815 35.1555 22.5819 33.9158 22.3308 32.7027C22.148 31.5604 22.2143 30.3922 22.5251 29.2779C23.1035 27.1384 24.4886 25.3062 26.3894 24.1664C28.1719 23.2648 30.1477 22.8121 32.145 22.8476C33.9292 22.8499 35.7026 22.5704 37.3996 22.0196C39.839 21.0865 41.8776 19.3335 43.1654 17.0614C43.6653 16.2525 44.0119 15.3584 44.1877 14.4238C43.8883 15.307 43.5049 16.1594 43.0428 16.9694C42.4862 17.902 41.7975 18.7491 40.9981 19.4842C39.9402 20.4576 38.6997 21.2116 37.3485 21.7026C35.6759 22.2141 33.9348 22.4658 32.1859 22.4489C30.1203 22.3972 28.0737 22.8535 26.2258 23.7779C24.23 24.9679 22.7665 26.8778 22.1366 29.1144C21.8095 30.2884 21.7363 31.5186 21.9219 32.7231C22.1667 33.8957 22.2663 35.094 22.2184 36.291C22.1998 36.8612 22.0225 37.4149 21.7064 37.8898C21.3904 38.3648 20.9481 38.7422 20.4293 38.9796C19.3174 39.2976 18.1578 39.4153 17.0046 39.3272C15.7934 39.2418 14.597 39.6345 13.6719 40.4211C13.2851 40.8519 12.9896 41.3567 12.8034 41.9049C12.6171 42.4531 12.5439 43.0334 12.5883 43.6106C12.6419 44.6731 12.9024 45.7149 13.355 46.6776C13.7537 47.6181 14.2035 48.4871 14.5409 49.3662C14.8919 50.189 15.0894 51.069 15.1236 51.9629C15.1401 52.7836 14.9614 53.5965 14.6022 54.3346C14.3003 54.9704 13.8301 55.5113 13.2426 55.8988C12.6551 56.2862 11.9727 56.5054 11.2695 56.5326C10.6909 56.5588 10.1167 56.4205 9.61336 56.1339C9.19398 55.882 8.84291 55.531 8.59106 55.1116C8.23386 54.5269 8.08268 53.8396 8.16168 53.159C8.20425 52.9582 8.25887 52.7602 8.32525 52.5661Z" fill="#181A20"/>
<path d="M95.8449 57.5242C96.0952 58.2285 96.0952 58.9975 95.8449 59.7017C95.7065 60.1024 95.4805 60.4673 95.1834 60.7697C94.8864 61.0721 94.5256 61.3044 94.1274 61.4499C93.5893 61.605 93.019 61.6098 92.4784 61.4639C91.9377 61.3179 91.4474 61.0267 91.0605 60.6218C90.629 60.139 90.3795 59.5207 90.3551 58.8737C90.322 58.161 90.4297 57.4489 90.672 56.7779C91.1116 55.3671 92.0112 53.8439 91.8681 52.0038C91.807 51.0722 91.5507 50.1639 91.1156 49.3378C90.6806 48.5118 90.0766 47.7865 89.343 47.2092C88.5743 46.5944 87.697 46.1297 86.7566 45.8393C85.7939 45.5727 84.8009 45.4319 83.8021 45.4201C82.8376 45.4072 81.8762 45.3079 80.9294 45.1237C80.0452 44.932 79.2544 44.4409 78.6906 43.7333C78.1963 43.0037 77.9165 42.1502 77.883 41.2696C77.8358 40.4118 77.908 39.5517 78.0976 38.7138C78.5549 37.1306 78.8057 35.495 78.8439 33.8476C78.7609 32.3876 78.2449 30.9853 77.3616 29.8197C76.6111 28.8924 75.6919 28.1154 74.6525 27.5298C73.9002 27.0821 73.1795 26.5834 72.4954 26.0372C71.9256 25.5554 71.4625 24.96 71.1357 24.2891C71.1357 24.2891 71.1357 24.2891 71.1357 24.4322C71.1821 24.5716 71.2367 24.7082 71.2993 24.8411C71.5539 25.3471 71.9006 25.8013 72.3216 26.1803C72.9951 26.7603 73.7129 27.2867 74.4685 27.7547C75.4592 28.3467 76.3325 29.116 77.0447 30.0242C77.8653 31.1443 78.3382 32.4811 78.4043 33.8681C78.3403 35.4784 78.0793 37.0748 77.6274 38.6218C77.4211 39.4988 77.3385 40.4003 77.382 41.3002C77.4155 42.2693 77.724 43.209 78.2714 44.0093C78.891 44.817 79.7797 45.3756 80.7761 45.5837C81.7482 45.7856 82.7377 45.8918 83.7306 45.9006C84.6911 45.9106 85.6463 46.0446 86.5726 46.2993C87.4563 46.5694 88.2816 47.0029 89.0057 47.5772C89.6904 48.1141 90.2558 48.7876 90.6659 49.555C91.076 50.3224 91.3218 51.1668 91.3876 52.0344C91.5307 53.711 90.7027 55.1729 90.2426 56.6553C90.0014 57.3793 89.8974 58.1421 89.936 58.9043C89.9762 59.6307 90.2733 60.3192 90.7742 60.8467C91.2003 61.2937 91.7439 61.6115 92.3425 61.7634C92.9411 61.9153 93.5704 61.8952 94.1581 61.7054C94.5878 61.5392 94.9746 61.2782 95.2896 60.9419C95.6047 60.6057 95.8398 60.2027 95.9778 59.7631C96.1643 59.2164 96.1927 58.6281 96.0596 58.066C96.0142 57.8761 95.9419 57.6936 95.8449 57.5242Z" fill="#181A20"/>
<path d="M92.0522 102.251C90.9658 98.553 89.0138 95.1677 86.358 92.3751C84.3951 90.3305 66.5559 84.1353 66.5559 84.1353C50.9555 87.7134 43.4211 80.6288 41.8059 80.3937C40.6916 80.2301 32.2987 84.1349 32.2987 84.1349L40.5602 104.37C40.5602 104.37 77.5353 106.577 92.0522 102.251Z" fill="#FF725E"/>
<path d="M32.2987 84.1349C32.2987 84.1349 16.7691 87.1435 15.1743 104.921L40.5602 104.37" fill="#FF725E"/>
</g>
<defs>
<clipPath id="clip0_1167_3689">
<rect width="100" height="100" rx="50" fill="white"/>
</clipPath>
</defs>
</svg>
