<svg width="100" height="100" viewBox="0 0 100 100" fill="none" xmlns="http://www.w3.org/2000/svg">
<g clip-path="url(#clip0_1112_3496)">
<rect width="100" height="100" rx="50" fill="white"/>
<path d="M40.1606 71.805C39.6418 68.3898 33.6759 65.5257 28.272 60.7703C20.8471 54.1559 15.9187 41.608 25.0945 31.1569C25.9051 15.8638 43.176 10.5356 57.8638 12.6647C66.683 13.9508 75.1563 18.9656 79.0255 27.0823C81.7923 32.9401 82.484 40.5056 78.8634 46.5364C79.0579 44.6126 79.0039 41.7485 78.1717 40.1381C77.975 41.1664 77.6291 42.1604 77.1449 43.0887C76.9035 43.554 76.5655 43.9624 76.1536 44.2867C75.7417 44.611 75.2654 44.8437 74.7564 44.9692C73.6756 45.1638 73.0164 44.6342 72.0653 44.4288C71.1142 44.2235 71.1142 44.3532 70.39 44.98L67.7854 47.2929L61.6682 52.6968L48.8069 64.1423C48.3205 64.5854 40.193 71.9671 40.1606 71.805Z" fill="#263238"/>
<path d="M36.2698 63.1587C35.4307 63.3083 34.5679 63.2528 33.7549 62.9968C32.9419 62.7409 32.2028 62.2921 31.6008 61.6888C30.2043 60.5028 29.1924 58.928 28.6939 57.165C28.1954 55.402 28.2329 53.5305 28.8016 51.7888C28.9812 51.2047 29.2917 50.6693 29.7093 50.2231C30.1269 49.777 30.6407 49.432 31.2117 49.2142C31.7827 48.9964 32.3958 48.9117 33.0045 48.9664C33.6131 49.0211 34.2013 49.2139 34.7243 49.53C36.6048 50.7513 37.2317 53.0425 38.842 52.6318C40.2038 52.286 39.4256 50.4703 39.4256 49.3247C47.4018 45.6176 46.7534 38.0629 46.0725 32.4429C47.7152 28.725 53.3353 25.7636 59.7444 29.4599C60.8251 27.2983 61.2791 26.1527 64.0675 25.407C68.0123 24.3262 70.9737 27.2659 72.4111 29.903C74.9509 34.572 75.5021 40.4082 75.9993 45.596C76.9612 55.5175 77.0152 62.9533 73.2109 67.4926C70.8764 70.281 66.1642 70.9079 61.3763 71.0916L60.2199 78.8192C60.2199 78.8192 63.2569 85.8983 59.9605 89.8539C55.8953 90.9592 51.5585 90.4195 47.8882 88.3517C38.7339 83.1963 38.7988 75.3823 38.7988 75.3823L39.3824 60.4027C39.1832 61.1126 38.7837 61.75 38.2317 62.2388C37.6797 62.7276 36.9986 63.0469 36.2698 63.1587Z" fill="#C8856A"/>
<path d="M56.7506 44.4721C57.291 45.6177 55.8212 44.9476 54.6755 45.5529C53.5299 46.1581 53.1408 47.7144 52.6004 46.6336C52.3426 46.0725 52.3111 45.4336 52.5124 44.8498C52.7137 44.266 53.1324 43.7824 53.6812 43.4994C53.9458 43.3578 54.236 43.2706 54.5349 43.243C54.8337 43.2153 55.135 43.2478 55.4211 43.3384C55.7071 43.4291 55.9722 43.5761 56.2005 43.7708C56.4289 43.9655 56.6159 44.2039 56.7506 44.4721Z" fill="#263238"/>
<path d="M71.6652 43.2289C71.7516 44.4934 70.5844 43.3154 69.3523 43.4343C68.1202 43.5532 67.1151 44.9149 67.0286 43.6504C66.9979 43.0348 67.2053 42.431 67.6077 41.9642C68.0101 41.4974 68.5768 41.2033 69.1902 41.143C69.491 41.1103 69.7953 41.1389 70.0847 41.2271C70.3741 41.3154 70.6426 41.4614 70.874 41.6564C71.1053 41.8514 71.2947 42.0913 71.4307 42.3616C71.5667 42.6319 71.6465 42.9269 71.6652 43.2289Z" fill="#263238"/>
<path d="M73.0054 37.4357L67.9797 35.1229C68.1147 34.7882 68.3164 34.4844 68.5726 34.2302C68.8287 33.976 69.1339 33.7765 69.4696 33.6441C69.8053 33.5116 70.1645 33.4489 70.5253 33.4597C70.886 33.4705 71.2408 33.5547 71.5679 33.707C72.2369 34.0291 72.758 34.594 73.0251 35.2867C73.2921 35.9795 73.2851 36.748 73.0054 37.4357Z" fill="#263238"/>
<path d="M52.3086 37.3493L48.5907 41.4454C48.3122 41.216 48.0833 40.9322 47.918 40.6115C47.7527 40.2907 47.6544 39.9396 47.6291 39.5797C47.6038 39.2197 47.6521 38.8584 47.7709 38.5176C47.8898 38.1769 48.0768 37.864 48.3205 37.5978C48.8289 37.0569 49.5244 36.7301 50.2653 36.6839C51.0062 36.6377 51.7369 36.8756 52.3086 37.3493Z" fill="#263238"/>
<path d="M56.0911 55.7119L64.7373 58.6084C64.5908 59.2404 64.3082 59.8328 63.9093 60.3445C63.5104 60.8561 63.0048 61.2747 62.4276 61.571C61.8505 61.8672 61.2157 62.0342 60.5674 62.0601C59.9192 62.086 59.2731 61.9703 58.6741 61.7211C56.2964 60.824 55.4426 58.3706 56.0911 55.7119Z" fill="#AF6152"/>
<path d="M58.6528 61.7215C59.29 61.9647 59.9712 62.0715 60.6523 62.0349C60.5016 60.9725 59.9659 60.0025 59.147 59.3091C58.3281 58.6157 57.283 58.2473 56.2102 58.2738H55.9617C56.0531 59.0393 56.3522 59.7652 56.8265 60.3729C57.3009 60.9806 57.9324 61.447 58.6528 61.7215Z" fill="#FFA8A7"/>
<path d="M61.5491 41.4458L63.9484 54.3395L70.606 51.1296L61.5491 41.4458Z" fill="#AF6152"/>
<path d="M61.4196 71.0911C56.3507 71.0911 46.0833 70.1832 42.0952 64.1309C42.0952 64.1309 44.0406 69.3186 47.564 71.264C51.0873 73.2094 60.9981 73.966 60.9981 73.966L61.4196 71.0911Z" fill="#AF6152"/>
<path d="M74.5835 82.5154C78.3338 83.4449 99.1265 90.3713 83.2298 99.97L60.7171 80.8402L60.1875 78.8516C60.1875 78.8516 69.3741 81.186 74.5835 82.5154Z" fill="#37474F"/>
<path d="M76.6583 93.226C67.0934 85.2714 60.8141 80.9375 60.8141 80.9375C62.057 85.9847 60.8789 88.9569 58.3715 89.7459C55.8641 90.5348 47.0557 88.6651 41.922 83.9745L14.2865 103.828C15.9401 108.703 19.2364 117.187 20.1443 122.385C21.0521 127.584 22.9327 137.711 22.3058 142.92C21.679 148.13 13.7893 158.592 11.217 172.739C11.217 172.739 27.4287 186.789 57.2259 185.233C81.0031 184.022 85.0128 174.047 85.0128 174.047C85.0128 174.047 82.246 162.472 80.2465 154.085C81.9866 141.278 83.6294 131.615 83.6294 131.615C83.6294 131.615 92.2756 121.888 89.4224 111.318C86.9474 101.84 80.6032 96.5008 76.6583 93.226Z" fill="#BA68C8"/>
<path d="M12.6638 89.8307C12.6638 79.0229 38.8094 75.3716 38.8094 75.3716C38.8094 75.3716 38.4203 82.8074 43.5432 86.0497C43.5432 86.0497 32.7354 110.184 24.2837 116.203C15.832 122.223 12.6638 89.8307 12.6638 89.8307Z" fill="#37474F"/>
<path d="M38.8093 75.3716C39.22 78.6139 42.5596 83.0127 45.5102 85.0338C51.7679 89.3569 56.5774 90.1134 59.355 88.4382C62.1326 86.763 60.587 81.3807 60.2304 78.8193L61.7327 79.2084C62.954 81.8779 64.975 89.5622 60.6519 91.486C54.6644 94.1448 43.8782 89.4542 39.7172 84.1691C35.5562 78.8841 35.394 76.0092 35.394 76.0092C35.9963 76.0507 36.6012 76.029 37.1989 75.9444C37.7508 75.7988 38.2895 75.6072 38.8093 75.3716Z" fill="#263238"/>
</g>
<defs>
<clipPath id="clip0_1112_3496">
<rect width="100" height="100" rx="50" fill="white"/>
</clipPath>
</defs>
</svg>
