<svg width="100" height="100" viewBox="0 0 100 100" fill="none" xmlns="http://www.w3.org/2000/svg">
<g clip-path="url(#clip0_1167_3710)">
<rect width="100" height="100" rx="50" fill="white"/>
<path d="M25.6724 84.7253C25.6724 84.7253 21.7017 87.0972 18 90.9995L32.3373 102.5H66L90.5 83.9995L62.3339 79.6377L38.4551 80.9597L32.3373 83.0932L25.6724 84.7253Z" fill="#407BFF"/>
<path d="M41.5461 16.0979C41.9867 15.0877 42.7285 14.2381 43.6701 13.6654C44.6117 13.0926 45.7072 12.8244 46.8069 12.8976C48.0096 11.8049 49.5427 11.1451 51.163 11.0229C52.7834 10.9007 54.3981 11.323 55.7512 12.2229C56.6678 11.5742 57.7337 11.1679 58.8497 11.042C59.9656 10.916 61.0952 11.0745 62.1334 11.5026C63.1524 11.9451 64.0424 12.639 64.7201 13.5192C65.3978 14.3994 65.8411 15.4373 66.0083 16.5355C67.1077 16.2709 68.2616 16.3483 69.3157 16.7573C70.3699 17.1662 71.2741 17.8873 71.9074 18.824C72.5037 19.7766 72.792 20.8899 72.7333 22.0122C72.6746 23.1346 72.2716 24.2116 71.5791 25.0968C72.8255 25.3783 73.9231 26.1122 74.6595 27.1563C75.3959 28.2005 75.7187 29.4807 75.5656 30.7492C75.4124 32.0177 74.7941 33.1843 73.8303 34.0231C72.8665 34.862 71.6258 35.3135 70.3483 35.2902L43.0869 22.006C42.2486 21.303 41.6498 20.3565 41.3737 19.2978C41.0976 18.2391 41.1578 17.1208 41.5461 16.0979Z" fill="#263238"/>
<path d="M75.3993 63.6179C74.9343 57.9651 73.0105 46.3949 71.1596 35.9463C70.1719 30.5052 67.1729 25.635 62.7589 22.3038C58.3448 18.9726 52.8389 17.4242 47.3356 17.9665L46.1959 18.0759C33.9876 19.945 28.7632 31.269 30.9788 43.3223L37.7166 84.652C38.2951 88.1956 40.2246 91.377 43.0997 93.5278C45.9748 95.6786 49.5716 96.6312 53.1343 96.1856C55.016 95.9501 56.8295 95.3311 58.4625 94.3669C60.0955 93.4028 61.5134 92.1139 62.6286 90.58C63.7438 89.0462 64.5325 87.2999 64.946 85.4491C65.3595 83.5983 65.389 81.6824 65.0327 79.8197L64.7409 78.2697C64.7409 78.2697 76.311 75.3339 75.3993 63.6179Z" fill="#FFBF9D"/>
<path d="M64.8138 78.2438C59.3487 78.757 53.8502 77.7073 48.9585 75.2168C48.9585 75.2168 53.3987 83.2949 65.0691 81.125L64.8138 78.2438Z" fill="#FF8B56"/>
<path d="M67.0661 47.344C67.1073 47.7793 66.9769 48.2135 66.7028 48.5541C66.4286 48.8947 66.0322 49.1148 65.5982 49.1675C65.3866 49.2053 65.1696 49.2004 64.9599 49.1532C64.7502 49.1059 64.5521 49.0173 64.3772 48.8924C64.2022 48.7676 64.0539 48.6091 63.9411 48.4261C63.8282 48.2432 63.7531 48.0396 63.72 47.8272C63.6786 47.3933 63.8077 46.9603 64.08 46.62C64.3523 46.2796 64.7464 46.0586 65.1788 46.0037C65.3909 45.9659 65.6084 45.9707 65.8187 46.0178C66.029 46.0649 66.2277 46.1535 66.4034 46.2782C66.5791 46.403 66.7282 46.5615 66.8419 46.7445C66.9557 46.9274 67.0319 47.1312 67.0661 47.344Z" fill="#263238"/>
<path d="M69.1448 41.909C68.9625 42.146 67.5948 41.3254 65.7804 41.5078C63.9661 41.6901 62.7261 42.7022 62.5073 42.5016C62.2884 42.301 62.5802 42.0001 63.1181 41.526C63.8517 40.9138 64.7555 40.5415 65.7075 40.4593C66.6592 40.3588 67.618 40.5665 68.4428 41.0519C69.0172 41.4257 69.236 41.7996 69.1448 41.909Z" fill="#263238"/>
<path d="M50.6 48.9569C50.639 49.3903 50.509 49.822 50.2371 50.1619C49.9653 50.5017 49.5726 50.7233 49.1412 50.7804C48.9289 50.8181 48.7113 50.8129 48.5011 50.7651C48.2908 50.7173 48.0923 50.6278 47.9173 50.5021C47.7422 50.3763 47.5941 50.2167 47.4817 50.0327C47.3693 49.8488 47.2949 49.6442 47.2629 49.431C47.2216 48.9971 47.3507 48.5641 47.623 48.2237C47.8953 47.8834 48.2894 47.6624 48.7218 47.6075C48.9341 47.5685 49.1522 47.5727 49.3629 47.62C49.5736 47.6672 49.7726 47.7565 49.948 47.8825C50.1233 48.0085 50.2715 48.1686 50.3835 48.3532C50.4955 48.5378 50.5692 48.7431 50.6 48.9569Z" fill="#263238"/>
<path d="M51.3569 43.8879C51.1654 44.1249 49.7978 43.3135 47.9925 43.4867C46.1872 43.6599 44.9381 44.6902 44.7193 44.4896C44.5005 44.289 44.7831 43.9881 45.3302 43.514C46.0627 42.8985 46.9666 42.523 47.9195 42.4382C48.8709 42.344 49.8277 42.5514 50.6548 43.0308C51.2201 43.4411 51.448 43.8149 51.3569 43.8879Z" fill="#263238"/>
<path d="M59.2067 56.6535C60.1328 56.2664 61.1038 55.9969 62.0969 55.8512C62.5619 55.76 63.0087 55.6324 63.0087 55.3041C63.0279 54.8149 62.8975 54.3315 62.6348 53.9183L60.9299 50.5539C58.5593 45.7581 56.7905 41.792 56.9911 41.7008C57.1917 41.6096 59.2705 45.4208 61.641 50.2166C62.2154 51.4018 62.7625 52.5324 63.2913 53.6083C63.6379 54.1491 63.7832 54.7946 63.7016 55.4318C63.6486 55.6013 63.5579 55.7567 63.4363 55.8861C63.3148 56.0156 63.1654 56.1159 62.9995 56.1794C62.75 56.2729 62.4896 56.3341 62.2245 56.3618C61.2354 56.5889 60.221 56.687 59.2067 56.6535Z" fill="#263238"/>
<path d="M51.1561 36.8414C51.0193 37.3429 49.1867 37.2791 47.0896 37.7532C44.9926 38.2273 43.315 38.9476 42.9959 38.5373C42.85 38.3367 43.1053 37.8535 43.7526 37.3155C44.6252 36.6464 45.6377 36.1832 46.7145 35.9606C47.7913 35.738 48.9045 35.7617 49.9708 36.03C50.7822 36.2488 51.2108 36.5953 51.1561 36.8414Z" fill="#263238"/>
<path d="M67.987 36.7679C67.7043 37.2055 66.4188 36.8955 64.9144 37.0232C63.41 37.1508 62.1791 37.5611 61.8327 37.1599C61.6868 36.9593 61.8327 36.5399 62.3615 36.0932C63.0661 35.5595 63.9125 35.2455 64.7947 35.1904C65.6769 35.1353 66.5558 35.3414 67.3214 35.7832C67.8958 36.1479 68.1055 36.5946 67.987 36.7679Z" fill="#263238"/>
<path d="M69.4911 30.6856C69.4911 30.6856 65.68 23.656 61.96 22.2793C57.4469 20.6199 56.0428 25.4886 51.8214 24.7319C47.5999 23.9751 43.2965 22.3887 39.3942 25.9354C35.1272 29.8194 37.5069 32.035 37.7166 37.2502C38.5736 58.4119 35.264 64.7213 33.2125 54.9199C32.9937 53.8441 29.8664 53.2697 28.982 48.72C27.8332 42.821 26.9123 35.6182 27.8514 31.2691C28.6446 27.6221 30.4499 24.9507 33.869 21.8963C39.2483 17.0732 47.1988 16.2252 52.6511 16.2526C58.1033 16.2799 69.1173 21.4678 69.4911 30.6856Z" fill="#263238"/>
<path d="M33.933 54.5282C33.8745 54.0989 33.73 53.6859 33.5081 53.3139C33.2862 52.9418 32.9914 52.6184 32.6415 52.363C32.2916 52.1076 31.8937 51.9255 31.4717 51.8275C31.0498 51.7295 30.6124 51.7178 30.1857 51.7929C28.0066 52.2123 25.627 53.6803 26.2469 58.1752C27.2681 66.153 35.1365 63.4816 35.1183 63.2536C35.1 63.0257 34.3706 57.8561 33.933 54.5282Z" fill="#FFBF9D"/>
<path d="M32.9846 60.473C32.9846 60.473 32.8569 60.5915 32.629 60.7282C32.3144 60.9089 31.9432 60.9643 31.5896 60.8832C30.6779 60.6735 29.7661 59.4335 29.5929 58.0021C29.4831 57.3198 29.5298 56.6214 29.7296 55.9598C29.7741 55.702 29.8802 55.4587 30.039 55.2507C30.1977 55.0427 30.4044 54.8762 30.6414 54.7654C30.8006 54.6923 30.9811 54.6797 31.1489 54.7301C31.3167 54.7804 31.4604 54.8902 31.5531 55.0389C31.6899 55.2486 31.6534 55.4127 31.699 55.4218C31.7446 55.431 31.854 55.2669 31.699 54.9477C31.6301 54.7552 31.4984 54.5914 31.3252 54.4827C31.0807 54.3472 30.7932 54.3113 30.5229 54.3824C30.2009 54.4862 29.9114 54.6718 29.6828 54.9212C29.4543 55.1705 29.2944 55.475 29.2191 55.8048C28.9656 56.5365 28.8967 57.3194 29.0185 58.0842C29.2738 59.6888 30.2949 61.0838 31.4984 61.2662C31.7214 61.3029 31.9497 61.2883 32.1662 61.2236C32.3826 61.1588 32.5814 61.0455 32.7475 60.8923C32.9937 60.6644 33.0119 60.4821 32.9846 60.473Z" fill="#FF8B56"/>
<path d="M32.6205 39.0197C33.6929 39.7155 34.9207 40.1352 36.1946 40.2414C37.471 40.2414 38.8478 39.3844 38.9298 38.1262C38.9754 37.5609 38.7748 36.9318 39.1031 36.4668C39.4313 36.0018 40.3248 35.9927 40.9995 36.0018C42.1836 35.9846 43.3259 35.5614 44.2353 34.8029C45.1448 34.0445 45.7663 32.9968 45.9959 31.8351C46.6797 32.6648 48.0747 32.5007 48.9226 31.8351C49.6949 31.0812 50.3605 30.2254 50.9011 29.2913C51.1767 28.8275 51.5602 28.4369 52.0189 28.1528C52.4776 27.8687 52.998 27.6994 53.5361 27.6593C54.1336 27.8015 54.7454 27.875 55.3596 27.8781C56.4172 27.6866 56.8184 26.4011 56.8731 25.3434C56.9278 24.2858 56.946 23.0641 57.7848 22.4076C58.6236 21.7511 59.6813 22.0064 60.666 22.0611C61.6507 22.1158 62.8906 21.7602 63.0548 20.7938C63.0722 20.5365 63.0367 20.2783 62.9504 20.0352C62.8642 19.7922 62.729 19.5694 62.5533 19.3806C61.7992 18.467 60.7598 17.8336 59.6022 17.5822C58.4446 17.3309 57.2361 17.4762 56.171 17.9947C55.6354 16.7007 54.7311 15.5928 53.5705 14.8089C52.41 14.0251 51.0445 13.5999 49.6441 13.5863C48.2437 13.5727 46.8702 13.9713 45.6946 14.7324C44.5191 15.4936 43.5933 16.5837 43.0327 17.8671C42.1012 17.1868 41.0216 16.7372 39.8825 16.5551C38.7435 16.3731 37.5776 16.4637 36.4804 16.8197C35.3832 17.1756 34.3861 17.7867 33.5709 18.6027C32.7557 19.4188 32.1456 20.4165 31.7908 21.5141C30.7819 21.3648 29.7514 21.5059 28.8198 21.9208C27.8881 22.3358 27.0939 23.0075 26.53 23.8573C25.9954 24.721 25.7214 25.7207 25.7408 26.7363C25.7602 27.7519 26.0722 28.7404 26.6394 29.5831C25.9254 30.0203 25.3347 30.6324 24.9231 31.3615C24.5115 32.0905 24.2926 32.9125 24.2871 33.7498C24.4148 35.4 26.2018 36.8953 27.77 36.3118C27.5286 36.9973 27.5476 37.7476 27.8233 38.42C28.099 39.0924 28.6122 39.64 29.2653 39.9588C29.94 40.2392 30.6935 40.2652 31.386 40.0322C32.0785 39.7991 32.6629 39.3227 33.0308 38.6915" fill="#263238"/>
<path d="M59.7811 60.3005L55.4959 59.3887C55.252 59.3157 54.9921 59.3157 54.7483 59.3887C54.4896 59.5094 54.2872 59.7248 54.183 59.9905C53.8508 60.638 53.7169 61.3691 53.7979 62.0924C53.879 62.8156 54.1715 63.499 54.6388 64.0569C55.1306 64.591 55.7942 64.9357 56.514 65.0307C57.2338 65.1256 57.9641 64.9649 58.5776 64.5766C59.8267 63.6648 60.1367 61.9599 59.9088 60.4464L59.7811 60.3005Z" fill="#FF8B56"/>
<path d="M58.7602 64.7579C58.7602 64.7579 58.6144 64.9403 58.2405 65.1044C57.7068 65.3345 57.1225 65.4225 56.5447 65.3597C55.6643 65.2587 54.8508 64.8406 54.2562 64.1835C53.8894 63.7818 53.6172 63.303 53.4595 62.7824C53.3017 62.2618 53.2624 61.7125 53.3444 61.1747C53.4259 60.618 53.6282 60.0859 53.9371 59.6156C54.0908 59.3935 54.2681 59.1887 54.4659 59.0048C54.5783 58.8877 54.72 58.8027 54.8762 58.7586C55.0322 58.7224 55.1943 58.7224 55.3503 58.7586C55.5829 58.8124 55.8114 58.8824 56.0341 58.9683L56.6268 59.1689L57.7117 59.5518C58.445 59.7621 59.1471 60.0687 59.7996 60.4636C59.0423 60.4058 58.2967 60.2432 57.5841 59.9803L56.4809 59.6703L55.87 59.488C55.6603 59.4333 55.4324 59.3512 55.2591 59.3239C55.1834 59.3055 55.1041 59.3085 55.03 59.3327C54.9559 59.3568 54.89 59.4011 54.8397 59.4606C54.3412 59.95 54.0203 60.5917 53.928 61.2841C53.8603 61.7392 53.8912 62.2034 54.0186 62.6455C54.146 63.0875 54.367 63.497 54.6665 63.8462C55.1607 64.4318 55.8448 64.8254 56.5994 64.9585C57.1201 65.0522 57.6548 65.0336 58.1676 64.9038C58.5323 64.7944 58.7329 64.7123 58.7602 64.7579Z" fill="#263238"/>
</g>
<defs>
<clipPath id="clip0_1167_3710">
<rect width="100" height="100" rx="50" fill="white"/>
</clipPath>
</defs>
</svg>
