<svg width="100" height="100" viewBox="0 0 100 100" fill="none" xmlns="http://www.w3.org/2000/svg">
<g clip-path="url(#clip0_1167_3667)">
<rect width="100" height="100" rx="50" fill="white"/>
<path d="M50.4206 81.2144L48.6681 62.9109L21.223 28.999C19.3988 37.3924 17.3594 53.5951 20.0957 61.6913C21.1205 64.7658 22.4733 67.8403 22.1454 71.0583C21.8277 74.0303 20.0957 76.8076 20.2904 79.7899C20.4647 82.0138 21.7457 83.9815 22.9858 85.8467C23.1607 86.308 23.4251 86.7301 23.7639 87.0888C24.1026 87.4475 24.5089 87.7357 24.9595 87.9366C25.4101 88.1376 25.8959 88.2475 26.3891 88.2599C26.8823 88.2724 27.3731 88.1871 27.8332 88.0091L48.4837 83.9098C49.1452 83.8619 49.764 83.5653 50.2156 83.0796C50.507 82.5031 50.5798 81.8405 50.4206 81.2144Z" fill="#101E38"/>
<path d="M80.9912 62.9197C77.2813 56.7707 74.2273 39.5124 74.0121 33.8758C73.7969 28.2392 70.5686 21.5778 66.6333 17.54C62.6979 13.5021 55.8725 11.9444 51.2607 15.2136L50.3179 20.0098C52.1318 41.7671 51.8859 63.8728 53.6896 85.5993C53.9355 88.4586 56.2517 91.0412 57.5532 93.6033C58.8548 96.1654 61.4578 98.2663 64.3171 98.0921C68.068 97.8564 73.7456 96.1551 74.9037 92.5785C79.1363 79.686 96.9172 89.217 80.9912 62.9197Z" fill="#101E38"/>
<path d="M68.1399 19.9805C65.5193 16.6174 62.1773 13.8852 58.3603 11.9856C54.5433 10.0859 50.3486 9.06724 46.0854 9.00453C41.074 8.92254 39.0038 9.96786 35.3964 10.9415C31.7873 11.8061 28.5979 13.9142 26.3881 16.8958C23.826 20.5237 21.6841 24.5923 21.2024 28.9991C20.5645 33.5161 20.345 38.0823 20.5465 42.6396C20.7563 47.2202 22.2282 51.6536 24.7996 55.4501L36.37 57.4998C42.7547 57.7252 49.2317 57.9302 55.4524 56.4749C61.6732 55.0197 67.7505 51.6684 71.0504 46.2266C75.6725 38.5915 73.7458 26.8982 68.1399 19.9805Z" fill="#101E38"/>
<path d="M57.8914 19.9078L42.5188 13.7588L38.4912 14.22C29.4317 14.22 23.1802 24.2531 23.1187 31.6422C23.0572 39.8409 23.2929 49.7613 24.5944 55.7668C27.1975 67.8599 37.5074 68.8643 37.5074 68.8643C37.5074 68.8643 37.3024 75.3002 37.2204 79.3586L60.7917 77.6573L61.9702 24.0789C61.943 22.997 61.5072 21.9655 60.7506 21.1917C59.9939 20.418 58.9724 19.9592 57.8914 19.9078Z" fill="#FFBF9D"/>
<path d="M42.6215 52.909C42.5519 52.4688 42.3722 52.0534 42.0991 51.7013C41.826 51.3492 41.4684 51.0719 41.0594 50.895C40.6505 50.7181 40.2034 50.6474 39.7598 50.6896C39.3162 50.7317 38.8905 50.8853 38.5221 51.136C38.0238 51.5181 37.6366 52.0265 37.4006 52.6085C37.1645 53.1904 37.0882 53.8249 37.1796 54.4462C37.445 54.8192 37.7872 55.1311 38.1831 55.3609C38.5791 55.5907 39.0197 55.7331 39.4752 55.7785H39.9056C40.6244 55.7721 41.315 55.498 41.8426 55.0099C42.1237 54.742 42.34 54.4136 42.4749 54.0495C42.6099 53.6854 42.66 53.2953 42.6215 52.909Z" fill="#FF8B56"/>
<path d="M27.1465 41.9317C27.1625 42.3395 27.3379 42.7247 27.635 43.0045C27.932 43.2843 28.327 43.4364 28.735 43.428C28.9349 43.4335 29.1339 43.3988 29.3202 43.3261C29.5065 43.2533 29.6763 43.144 29.8196 43.0045C29.963 42.865 30.0768 42.6982 30.1546 42.514C30.2323 42.3297 30.2724 42.1317 30.2723 41.9317C30.2537 41.5249 30.0775 41.1412 29.781 40.8619C29.4845 40.5827 29.091 40.4297 28.6838 40.4355C28.4835 40.4285 28.2839 40.4622 28.097 40.5344C27.91 40.6067 27.7396 40.7159 27.596 40.8557C27.4524 40.9955 27.3386 41.1629 27.2613 41.3478C27.1841 41.5327 27.145 41.7313 27.1465 41.9317Z" fill="#101E38"/>
<path d="M25.783 35.6919C25.988 35.8866 27.1153 34.9438 28.8576 34.8516C30.5998 34.7593 31.8193 35.5382 31.9321 35.323C32.0448 35.1078 31.7988 34.8721 31.2454 34.5134C30.4923 34.043 29.6105 33.8207 28.7243 33.878C27.8478 33.9254 27.0086 34.2482 26.3262 34.8003C25.8343 35.2307 25.6806 35.6099 25.783 35.6919Z" fill="#101E38"/>
<path d="M36.5952 48.8913C35.6921 48.6544 34.7618 48.5372 33.8281 48.5429C33.3977 48.5429 32.9878 48.4609 32.8955 48.174C32.8392 47.7307 32.9178 47.2807 33.121 46.8827C33.4592 45.8578 33.8281 44.71 34.2073 43.5417C35.7138 38.7865 36.7796 34.8818 36.5952 34.8306C36.4107 34.7793 35.0169 38.5713 33.5207 43.3265C33.162 44.5051 32.8135 45.6221 32.4958 46.688C32.2533 47.2219 32.2062 47.824 32.3626 48.3892C32.4356 48.5364 32.5407 48.6653 32.6702 48.7664C32.7997 48.8675 32.9502 48.9382 33.1107 48.9733C33.3494 49.0265 33.5942 49.0472 33.8384 49.0348C34.7597 49.1001 35.6856 49.0519 36.5952 48.8913Z" fill="#101E38"/>
<path d="M37.395 68.8136C43.1409 68.589 48.7113 66.7724 53.4849 63.5664C53.4849 63.5664 49.6008 72.257 37.3335 71.7651L37.395 68.8136Z" fill="#FF9A6C"/>
<path d="M41.6071 49.7819C41.3304 49.7819 41.4329 51.6061 39.9366 52.9897C38.4404 54.3732 36.4932 54.2707 36.4932 54.5269C36.4932 54.7831 36.9441 54.8651 37.764 54.8344C38.8363 54.7954 39.8602 54.3779 40.654 53.6558C41.4132 52.9609 41.8726 51.9981 41.935 50.9707C41.9658 50.2021 41.7301 49.7614 41.6071 49.7819Z" fill="#101E38"/>
<path d="M26.3473 29.7967C26.6548 30.1862 27.9358 29.848 29.4218 29.889C30.9078 29.93 32.2094 30.258 32.4963 29.889C32.6296 29.7045 32.4963 29.3151 31.9019 28.9257C31.157 28.4603 30.2985 28.2085 29.4202 28.1976C28.5419 28.1868 27.6775 28.4174 26.9212 28.8642C26.4088 29.2126 26.2141 29.602 26.3473 29.7967Z" fill="#101E38"/>
<path d="M45.4708 41.5119C45.4794 41.9192 45.329 42.3138 45.0517 42.6123C44.7743 42.9107 44.3917 43.0894 43.9848 43.1106C43.7858 43.1303 43.5848 43.1099 43.3938 43.0505C43.2028 42.9912 43.0256 42.8942 42.8727 42.7652C42.7199 42.6362 42.5944 42.4779 42.5038 42.2996C42.4131 42.1213 42.3592 41.9266 42.3451 41.7271C42.3365 41.3198 42.4869 40.9251 42.7642 40.6267C43.0416 40.3283 43.4242 40.1496 43.8311 40.1284C44.0301 40.1087 44.2311 40.1291 44.4221 40.1884C44.6131 40.2478 44.7903 40.3448 44.9432 40.4738C45.096 40.6027 45.2215 40.7611 45.3121 40.9394C45.4028 41.1177 45.4567 41.3124 45.4708 41.5119Z" fill="#101E38"/>
<path d="M48.5551 35.0349C48.3604 35.2502 47.1613 34.3893 45.4806 34.42C43.7999 34.4508 42.5803 35.3219 42.4061 35.1169C42.2319 34.912 42.5086 34.6557 43.0312 34.2561C43.7505 33.7363 44.6137 33.4534 45.5011 33.4465C46.38 33.4256 47.2422 33.6879 47.9607 34.1946C48.4629 34.584 48.6678 34.9427 48.5551 35.0349Z" fill="#101E38"/>
<path d="M61.9291 41.2451L59.8179 43.428C50.6969 34.7066 32.8852 12.8571 33.8793 14.1587C38.0342 12.6036 42.5131 12.1173 46.905 12.7444C53.6791 13.8922 66.5408 17.2844 66.3768 25.2884C66.2129 33.2924 61.9291 41.2451 61.9291 41.2451Z" fill="#101E38"/>
<path d="M74.002 39.4306C73.9836 39.2651 73.9422 39.103 73.8791 38.9489C73.7274 38.4969 73.5389 38.0582 73.3154 37.6371C72.4523 36.1004 71.2672 34.7684 69.8412 33.7325C67.7189 32.215 65.3511 31.0745 62.8416 30.3608C60.0643 29.4589 56.9283 28.7518 53.8538 27.44C50.9542 26.2242 48.2033 24.6803 45.6551 22.8385C43.5716 21.312 41.6333 19.5967 39.8648 17.7143C38.6684 16.4577 37.5493 15.1298 36.5135 13.7379C36.1651 13.2768 35.8884 12.8976 35.6732 12.6003C35.5849 12.4599 35.4819 12.3294 35.3657 12.2109C35.4299 12.3619 35.5088 12.506 35.6014 12.6414C35.7757 12.9181 36.0216 13.328 36.3701 13.8404C37.3682 15.2775 38.4603 16.6469 39.6393 17.9398C41.4013 19.8443 43.3401 21.5772 45.4296 23.1152C47.9912 24.9956 50.7676 26.5644 53.7 27.7884C56.6616 28.9116 59.6786 29.8831 62.7391 30.699C65.212 31.382 67.5534 32.473 69.667 33.9272C71.0859 34.9205 72.2829 36.1978 73.1822 37.6781C73.7766 38.7747 73.9611 39.4408 74.002 39.4306Z" fill="#3B8BB2"/>
<path d="M71.5831 40.7319C71.6117 40.1113 71.5032 39.492 71.2654 38.918C70.6385 37.3298 69.5497 35.9661 68.1397 35.0031C66.0298 33.6471 63.6714 32.724 61.2016 32.2873C58.2397 31.6962 55.3525 30.7784 52.5929 29.551C49.8411 28.2995 47.2586 26.7052 44.9067 24.806C42.9862 23.2757 41.2217 21.5593 39.639 19.6818C38.5757 18.3982 37.5934 17.0497 36.6977 15.6439C36.421 15.1725 36.1853 14.7934 36.0008 14.4859C35.8164 14.1785 35.7446 14.0862 35.7241 14.0965C35.7789 14.2443 35.844 14.3881 35.9188 14.5269L36.5645 15.7362C37.4099 17.1698 38.3587 18.5399 39.4033 19.8355C40.9696 21.774 42.7314 23.5461 44.6607 25.1237C47.0272 27.0561 49.6308 28.6782 52.4085 29.9507C55.1985 31.189 58.1213 32.1037 61.1196 32.6767C63.5461 33.0905 65.8703 33.9672 67.9655 35.2593C69.3521 36.1733 70.4447 37.4688 71.1117 38.9897C71.325 39.5538 71.4829 40.1373 71.5831 40.7319Z" fill="#3B8BB2"/>
<path d="M37.2003 77.2974L61.079 74.7148L65.455 78.6912L48.4018 88.7141L40.8795 92.6187L33.4494 90.3539L31.0923 85.9266L37.2003 77.2974Z" fill="#FFBF9D"/>
<path d="M20 97.4995C20 97.4995 12.4915 92.0254 14.3465 88.8689C16.6222 85.3682 19.7317 82.4876 23.3958 80.4857L37.2003 77.2984C37.2003 77.2984 35.7655 84.2059 44.3742 84.6875C55.2887 85.2922 62.0731 74.8184 62.0731 74.8184C62.0731 74.8184 74.5351 76.0994 77.9785 77.5547C81.422 79.0099 90.0652 82.0661 91.5 94.9995C91.5 94.9995 70.9593 103.846 57 104.5C42.3104 105.187 20 97.4995 20 97.4995Z" fill="#06B169"/>
<path d="M76.3383 61.5367L61.1195 58.0215C61.1195 68.7618 58.1372 73.0763 55.6161 78.7334C53.095 84.3905 50.9428 90.765 52.7568 96.6886C53.4127 98.8407 54.8065 100.983 56.9381 101.598C58.4698 101.944 60.0758 101.691 61.4269 100.89C64.5014 99.2507 66.4793 96.0942 67.8116 92.8762C69.1439 89.6582 69.9945 86.2352 71.5625 83.1197C72.8846 80.4756 74.7293 78.0878 75.7131 75.3002C76.697 72.5127 78.2752 64.9801 76.3383 61.5367Z" fill="#101E38"/>
<circle cx="39" cy="90" r="3" fill="#055B37"/>
</g>
<defs>
<clipPath id="clip0_1167_3667">
<rect width="100" height="100" rx="50" fill="white"/>
</clipPath>
</defs>
</svg>
