<svg width="100" height="100" viewBox="0 0 100 100" fill="none" xmlns="http://www.w3.org/2000/svg">
<g clip-path="url(#clip0_1167_3649)">
<rect width="100" height="100" rx="50" fill="white"/>
<path d="M18.4655 47.8552C17.7373 40.7995 19.7126 33.7303 23.993 28.0742L23.3517 27.9197C25.6799 26.1302 28.5964 25.2826 31.521 25.5457C34.4456 25.8087 37.1641 27.163 39.1357 29.3392C40.5397 31.2913 41.7611 33.3684 42.7844 35.5444C43.8225 37.7207 45.614 39.4472 47.8273 40.404C49.0361 40.8217 50.3574 40.8395 51.5959 41.1822C52.2259 41.3006 52.8125 41.5857 53.2949 42.0078C53.7772 42.4299 54.1376 42.9736 54.3386 43.5822C54.6975 45.1907 53.2328 46.6948 51.8244 47.4062C50.2794 47.9629 48.8451 48.7886 47.588 49.8452C48.2733 50.0308 48.9129 50.3563 49.4661 50.8015C50.0193 51.2466 50.4742 51.8016 50.8022 52.4314C51.1301 53.0611 51.3239 53.7521 51.3714 54.4606C51.4189 55.169 51.319 55.8797 51.078 56.5476C50.8371 57.2155 50.4603 57.8262 49.9714 58.3412C49.4826 58.8561 48.8922 59.2642 48.2377 59.5396C47.5832 59.8149 46.8788 59.9516 46.1688 59.941C45.4588 59.9304 44.7588 59.7728 44.1128 59.478C44.9643 60.6453 45.3807 62.0736 45.2898 63.5157C45.1988 64.9577 44.6064 66.3224 43.6149 67.3735C42.5862 68.3882 41.3264 69.1378 39.9438 69.5578C38.5612 69.9777 37.0973 70.0554 35.678 69.7841C32.8412 69.1938 30.2129 67.8586 28.0632 65.9158C22.6978 61.3238 19.269 54.8715 18.4655 47.8552Z" fill="#263238"/>
<path d="M74.0055 19.0291C73.4866 18.1823 72.7363 17.5017 71.8432 17.0675C70.9501 16.6332 69.9514 16.4634 68.965 16.578C67.014 16.849 65.1334 17.4931 63.4259 18.4752C63.4809 15.8287 63.0102 13.1976 62.0412 10.7344C61.5304 9.5197 60.677 8.48002 59.5852 7.7423C58.4934 7.00458 57.2104 6.60075 55.8928 6.58008C54.7646 6.76633 53.6883 7.18811 52.7339 7.81799C51.7796 8.44786 50.9686 9.27169 50.3538 10.2358C49.1351 12.154 47.7095 13.9325 46.1026 15.5395C41.5744 19.3476 34.6091 17.9766 29.3054 20.5938C24.0018 23.211 20.7753 31.1734 23.171 36.754C33.529 37.8064 43.9424 38.8727 53.8711 42.1822C59.2163 43.9686 65.0877 46.4057 70.239 44.107C71.8459 43.3865 73.2282 42.2453 74.2401 40.804C75.2519 39.3628 75.8557 37.6749 75.9877 35.9189C76.1196 34.1628 75.7747 32.4037 74.9895 30.8274C74.2043 29.2512 73.008 27.9163 71.5268 26.9637C73.3824 24.5681 75.3903 21.577 74.0055 19.0291Z" fill="#263238"/>
<path d="M68.1621 34.566C65.5449 27.1437 55.2699 21.8954 47.9584 24.8726L24.8329 36.4354L26.0653 40.4789L41.81 90.4272C41.81 90.4272 48.4984 106.089 61.9583 101.284C74.0057 96.9078 69.6853 84.1127 69.6853 84.1127L66.611 74.724C66.611 74.724 76.4567 71.5114 74.9196 58.3423C74.1164 51.7647 71.07 42.8191 68.1621 34.566Z" fill="#B5675E"/>
<path d="M68.0508 46.7249C68.1732 47.1454 68.1276 47.597 67.9235 47.9846C67.7194 48.3721 67.3728 48.6652 66.9568 48.8021C66.7562 48.8785 66.5423 48.9135 66.3278 48.9051C66.1133 48.8968 65.9027 48.8451 65.7087 48.7533C65.5147 48.6614 65.3411 48.5313 65.1987 48.3708C65.0562 48.2102 64.9477 48.0225 64.8796 47.8189C64.7535 47.3984 64.7975 46.9451 65.0021 46.5567C65.2067 46.1682 65.5555 45.8756 65.9736 45.7418C66.1744 45.6673 66.388 45.6338 66.6019 45.6431C66.8158 45.6524 67.0257 45.7044 67.2192 45.796C67.4127 45.8876 67.586 46.017 67.7288 46.1765C67.8716 46.336 67.9811 46.5225 68.0508 46.7249Z" fill="#263238"/>
<path d="M67.8294 41.9043C67.6909 42.1674 66.2092 41.6136 64.4783 42.1121C62.7473 42.6106 61.7088 43.8292 61.4595 43.6768C61.2103 43.5245 61.4595 43.1645 61.8749 42.6106C62.477 41.8711 63.2953 41.3385 64.2152 41.0873C65.1269 40.831 66.0963 40.8698 66.9847 41.1981C67.6217 41.4474 67.9125 41.7797 67.8294 41.9043Z" fill="#263238"/>
<path d="M53.3447 50.8802C53.4672 51.3007 53.4215 51.7523 53.2174 52.1398C53.0134 52.5273 52.6667 52.8204 52.2507 52.9573C52.0501 53.0337 51.8361 53.0688 51.6216 53.0604C51.4071 53.052 51.1966 53.0004 51.0026 52.9085C50.8086 52.8167 50.6351 52.6866 50.4926 52.526C50.3502 52.3655 50.2416 52.1777 50.1736 51.9742C50.0511 51.5537 50.0968 51.1021 50.3009 50.7145C50.505 50.327 50.8516 50.0339 51.2676 49.897C51.4683 49.8226 51.6819 49.7891 51.8958 49.7984C52.1097 49.8077 52.3196 49.8597 52.5131 49.9513C52.7067 50.0429 52.8799 50.1723 53.0227 50.3318C53.1655 50.4913 53.275 50.6778 53.3447 50.8802Z" fill="#263238"/>
<path d="M51.8498 46.7253C51.7113 47.0023 50.2296 46.4345 48.4848 46.933C46.74 47.4316 45.7153 48.664 45.4661 48.4978C45.2168 48.3317 45.4661 47.9993 45.8953 47.4316C46.5 46.6979 47.3178 46.1704 48.2356 45.9222C49.1448 45.6526 50.117 45.6866 51.0051 46.0191C51.6836 46.2545 51.9744 46.5869 51.8498 46.7253Z" fill="#263238"/>
<path d="M60.7111 57.8026C61.5826 57.2809 62.5121 56.8627 63.4806 56.5564C63.9099 56.3902 64.3114 56.1825 64.3114 55.9055C64.3114 55.6286 64.0483 55.2547 63.716 54.8808L61.6111 52.3882C60.8356 51.4743 56.7922 46.2814 56.6121 45.7275C58.6794 47.6301 60.5704 49.7157 62.262 51.959L64.2976 54.4792C64.4905 54.656 64.6463 54.8696 64.7557 55.1074C64.8651 55.3452 64.9259 55.6024 64.9346 55.864C64.8989 56.0237 64.8298 56.1741 64.732 56.3054C64.6341 56.4366 64.5097 56.5457 64.3668 56.6256C64.1319 56.7492 63.8863 56.8512 63.6329 56.9302C62.6957 57.3323 61.7153 57.625 60.7111 57.8026Z" fill="#263238"/>
<path d="M66.7212 74.752C60.8101 76.5143 54.5266 76.6053 48.567 75.0151C48.567 75.0151 55.3661 82.6036 67.6489 77.8538L66.7212 74.752Z" fill="#894943"/>
<path d="M55.5327 59.4899C55.8096 59.393 56.3497 61.2763 58.3022 62.1625C60.2547 63.0488 62.2488 62.2733 62.3457 62.5226C62.4427 62.7718 61.9995 63.0211 61.1548 63.2842C60.0541 63.6137 58.8726 63.5451 57.8175 63.0903C56.8055 62.643 56.003 61.8255 55.5742 60.8055C55.325 60.0439 55.408 59.5176 55.5327 59.4899Z" fill="#263238"/>
<path d="M49.6891 41.0603C49.6891 41.6558 48.0274 41.6835 46.255 42.3205C44.4825 42.9574 43.1115 43.8991 42.7792 43.4283C42.6269 43.2067 42.7792 42.6251 43.2777 41.9743C43.8892 41.1719 44.7291 40.5733 45.6872 40.2571C46.604 39.9249 47.6024 39.891 48.5398 40.1602C49.2737 40.3956 49.703 40.7834 49.6891 41.0603Z" fill="#263238"/>
<path d="M66.1954 35.9092C66.0569 36.4769 64.6583 36.4492 63.1628 36.9754C61.6672 37.5016 60.5456 38.2633 60.0887 37.8894C59.8809 37.7094 59.9086 37.1831 60.2963 36.5046C60.8261 35.7313 61.5975 35.1554 62.4895 34.8673C63.3815 34.5791 64.3439 34.5949 65.2261 34.9121C65.9184 35.2306 66.2646 35.6461 66.1954 35.9092Z" fill="#263238"/>
<path d="M65.0596 27.7264C63.2498 25.9454 61.1024 24.544 58.7434 23.6047C56.3844 22.6654 53.8614 22.207 51.3228 22.2566C46.2349 22.3864 41.2547 23.7503 36.8105 26.2309C32.3882 28.7006 28.1739 31.5255 24.2092 34.6779C23.726 34.8791 23.2901 35.1788 22.9292 35.5579C22.5683 35.9371 22.2905 36.3872 22.1133 36.8797C21.9361 37.3722 21.8634 37.8963 21.9 38.4184C21.9366 38.9405 22.0817 39.4493 22.3259 39.9122L29.0143 59.8944L31.9777 63.5363C34.1795 62.9547 35.592 60.8498 36.5613 58.8004C39.9689 51.5345 40.4645 43.2394 37.946 35.6195C38.7527 36.3721 39.4309 37.2514 39.9539 38.2228C40.2221 38.7044 40.6002 39.116 41.0574 39.424C41.5145 39.732 42.0379 39.9277 42.585 39.9954C44.4267 39.9954 45.3545 37.6413 45.1191 35.8411C44.8837 34.0409 44.0805 32.1853 44.5237 30.3851C46.955 32.4402 49.8261 33.9089 52.9153 34.6779C54.3001 35.0379 56.1833 35.121 57.0696 33.9163C57.3587 33.4685 57.5125 32.9468 57.5125 32.4138C57.5125 31.8808 57.3587 31.3591 57.0696 30.9113C56.4919 30.0216 55.7492 29.2507 54.8816 28.6403C57.6053 30.3472 60.7656 31.2274 63.9795 31.1744C64.3289 31.2125 64.6823 31.1685 65.0117 31.0459C65.341 30.9233 65.6372 30.7255 65.8766 30.4682C66.4167 29.6097 65.6966 28.4741 65.0596 27.7264Z" fill="#263238"/>
<path d="M32.6981 53.8838C32.4904 53.8838 24.3895 53.8838 26.799 61.4446C29.2085 69.0054 36.3954 65.0034 36.34 64.7818C36.2846 64.5603 32.6981 53.8838 32.6981 53.8838Z" fill="#B5675E"/>
<path d="M33.072 62.6494C33.072 62.6494 32.975 62.7879 32.7812 62.9679C32.5089 63.202 32.1565 63.3211 31.798 63.3002C30.898 63.3002 29.8039 62.2202 29.3193 60.8492C29.0946 60.2053 29.0142 59.5198 29.0839 58.8413C29.0649 58.5727 29.1162 58.3037 29.2327 58.0609C29.3493 57.8181 29.5271 57.6098 29.7485 57.4566C29.8877 57.3664 30.0542 57.3281 30.2187 57.3484C30.3833 57.3686 30.5355 57.4461 30.6487 57.5673C30.8148 57.7473 30.8149 57.9135 30.8564 57.9135C30.898 57.9135 30.981 57.7335 30.8564 57.4289C30.7594 57.2543 30.6017 57.1212 30.4133 57.055C30.1555 56.9517 29.8679 56.9517 29.6101 57.055C29.3185 57.2198 29.0738 57.4565 28.8993 57.7425C28.7248 58.0285 28.6263 58.3543 28.613 58.689C28.5017 59.4538 28.5826 60.2343 28.8485 60.96C29.0264 61.6502 29.406 62.2718 29.9387 62.7453C30.4715 63.2189 31.1332 63.523 31.8395 63.6188C32.0631 63.61 32.282 63.5521 32.4806 63.4492C32.6793 63.3463 32.8528 63.2008 32.9889 63.0233C33.1274 62.8433 33.1135 62.6494 33.072 62.6494Z" fill="#894943"/>
<path d="M23.905 101.728C25.6775 90.4146 38.0849 81.4967 38.0849 80.6659C49.5092 82.9646 63.4122 82.2999 69.9344 79.9873L74.5318 84.4186L88 95.8421C88 95.8421 73.5074 104.849 63.3571 107.342C48.014 111.122 23.905 101.728 23.905 101.728Z" fill="#407BFF"/>
</g>
<defs>
<clipPath id="clip0_1167_3649">
<rect width="100" height="100" rx="50" fill="white"/>
</clipPath>
</defs>
</svg>
