<svg width="24" height="25" viewBox="0 0 24 25" fill="none" xmlns="http://www.w3.org/2000/svg">
<path d="M11.9974 7.49722C9.229 7.49722 6.99478 9.73144 6.99478 12.4998C6.99478 15.2682 9.229 17.5024 11.9974 17.5024C14.7658 17.5024 17 15.2682 17 12.4998C17 9.73144 14.7658 7.49722 11.9974 7.49722ZM11.9974 15.7511C10.2071 15.7511 8.74606 14.2901 8.74606 12.4998C8.74606 10.7095 10.2071 9.24849 11.9974 9.24849C13.7877 9.24849 15.2487 10.7095 15.2487 12.4998C15.2487 14.2901 13.7877 15.7511 11.9974 15.7511ZM17.2049 6.12644C16.5585 6.12644 16.0365 6.64841 16.0365 7.29477C16.0365 7.94113 16.5585 8.4631 17.2049 8.4631C17.8512 8.4631 18.3732 7.94357 18.3732 7.29477C18.3734 7.14129 18.3433 6.98928 18.2847 6.84744C18.226 6.70561 18.14 6.57674 18.0314 6.46821C17.9229 6.35968 17.794 6.27363 17.6522 6.21498C17.5104 6.15634 17.3583 6.12625 17.2049 6.12644ZM21.7489 12.4998C21.7489 11.1534 21.7611 9.81924 21.6855 8.4753C21.6099 6.91427 21.2538 5.52886 20.1123 4.38736C18.9683 3.24342 17.5854 2.88975 16.0243 2.81414C14.678 2.73853 13.3438 2.75073 11.9998 2.75073C10.6534 2.75073 9.31924 2.73853 7.9753 2.81414C6.41427 2.88975 5.02886 3.24586 3.88736 4.38736C2.74342 5.5313 2.38975 6.91427 2.31414 8.4753C2.23853 9.82168 2.25073 11.1559 2.25073 12.4998C2.25073 13.8438 2.23853 15.1804 2.31414 16.5243C2.38975 18.0854 2.74586 19.4708 3.88736 20.6123C5.0313 21.7562 6.41427 22.1099 7.9753 22.1855C9.32168 22.2611 10.6559 22.2489 11.9998 22.2489C13.3462 22.2489 14.6804 22.2611 16.0243 22.1855C17.5854 22.1099 18.9708 21.7538 20.1123 20.6123C21.2562 19.4683 21.6099 18.0854 21.6855 16.5243C21.7635 15.1804 21.7489 13.8462 21.7489 12.4998ZM19.6025 18.2512C19.4244 18.6951 19.2098 19.0269 18.8659 19.3683C18.522 19.7122 18.1927 19.9269 17.7488 20.1049C16.4658 20.6147 13.4194 20.5001 11.9974 20.5001C10.5754 20.5001 7.5265 20.6147 6.24354 20.1074C5.79962 19.9293 5.4679 19.7147 5.12643 19.3708C4.78251 19.0269 4.56787 18.6976 4.38982 18.2537C3.88249 16.9683 3.99712 13.9218 3.99712 12.4998C3.99712 11.0778 3.88249 8.02894 4.38982 6.74597C4.56787 6.30206 4.78251 5.97034 5.12643 5.62887C5.47034 5.28739 5.79962 5.07031 6.24354 4.89226C7.5265 4.38492 10.5754 4.49956 11.9974 4.49956C13.4194 4.49956 16.4683 4.38492 17.7512 4.89226C18.1951 5.07031 18.5269 5.28495 18.8683 5.62887C19.2122 5.97278 19.4269 6.30206 19.6049 6.74597C20.1123 8.02894 19.9976 11.0778 19.9976 12.4998C19.9976 13.9218 20.1123 16.9683 19.6025 18.2512Z" fill="white"/>
</svg>
