<svg width="24" height="25" viewBox="0 0 24 25" fill="none" xmlns="http://www.w3.org/2000/svg">
<path d="M19.1499 7.53122C18.2137 7.33098 17.366 6.83696 16.7304 6.12118C16.0947 5.4054 15.7042 4.50528 15.616 3.55206V3.13867H12.3867V15.9545C12.3847 16.5219 12.205 17.0744 11.8728 17.5343C11.5406 17.9943 11.0726 18.3386 10.5347 18.5189C9.9967 18.6992 9.41576 18.7064 8.87349 18.5395C8.33122 18.3726 7.85488 18.0399 7.5114 17.5883C7.16258 17.1292 6.96909 16.5709 6.95897 15.9944C6.94885 15.4178 7.12264 14.8531 7.45512 14.382C7.78761 13.9109 8.26152 13.5579 8.80812 13.3743C9.35472 13.1907 9.9456 13.1859 10.4951 13.3608V10.08C9.26978 9.91057 8.02219 10.1284 6.9268 10.703C5.83141 11.2776 4.94302 12.1802 4.38588 13.2846C3.82874 14.3889 3.63072 15.6398 3.81952 16.8623C4.00832 18.0847 4.5745 19.2176 5.43886 20.1024C6.26315 20.9458 7.32006 21.5244 8.4747 21.7645C9.62933 22.0045 10.8293 21.895 11.9214 21.45C13.0136 21.005 13.9483 20.2446 14.6064 19.266C15.2644 18.2873 15.6159 17.1347 15.616 15.9554V9.40691C16.921 10.3399 18.4858 10.8402 20.0901 10.8374V7.62871C19.7741 7.6291 19.459 7.59643 19.1499 7.53122Z" fill="white"/>
</svg>
