<svg width="24" height="25" viewBox="0 0 24 25" fill="none" xmlns="http://www.w3.org/2000/svg">
<path d="M22.5 12.1879C22.5 12.1363 22.5 12.0777 22.4977 12.0098C22.4953 11.8199 22.4906 11.6066 22.4859 11.3793C22.4672 10.7254 22.4344 10.0738 22.3828 9.45977C22.3125 8.61367 22.2094 7.9082 22.0687 7.37852C21.9203 6.82574 21.6295 6.3216 21.2252 5.91648C20.8209 5.51135 20.3173 5.21944 19.7648 5.06992C19.1016 4.8918 17.8031 4.78164 15.975 4.71367C15.1055 4.68086 14.175 4.65977 13.2445 4.64805C12.9187 4.64336 12.6164 4.64102 12.3445 4.63867H11.6555C11.3836 4.64102 11.0812 4.64336 10.7555 4.64805C9.825 4.65977 8.89453 4.68086 8.025 4.71367C6.19687 4.78398 4.89609 4.89414 4.23516 5.06992C3.6825 5.21908 3.17876 5.51086 2.7744 5.91604C2.37004 6.32122 2.07928 6.82556 1.93125 7.37852C1.78828 7.9082 1.6875 8.61367 1.61719 9.45977C1.56562 10.0738 1.53281 10.7254 1.51406 11.3793C1.50703 11.6066 1.50469 11.8199 1.50234 12.0098C1.50234 12.0777 1.5 12.1363 1.5 12.1879V12.3191C1.5 12.3707 1.5 12.4293 1.50234 12.4973C1.50469 12.6871 1.50937 12.9004 1.51406 13.1277C1.53281 13.7816 1.56562 14.4332 1.61719 15.0473C1.6875 15.8934 1.79063 16.5988 1.93125 17.1285C2.23125 18.2512 3.1125 19.1371 4.23516 19.4371C4.89609 19.6152 6.19687 19.7254 8.025 19.7934C8.89453 19.8262 9.825 19.8473 10.7555 19.859C11.0812 19.8637 11.3836 19.866 11.6555 19.8684H12.3445C12.6164 19.866 12.9187 19.8637 13.2445 19.859C14.175 19.8473 15.1055 19.8262 15.975 19.7934C17.8031 19.723 19.1039 19.6129 19.7648 19.4371C20.8875 19.1371 21.7687 18.2535 22.0687 17.1285C22.2117 16.5988 22.3125 15.8934 22.3828 15.0473C22.4344 14.4332 22.4672 13.7816 22.4859 13.1277C22.493 12.9004 22.4953 12.6871 22.4977 12.4973C22.4977 12.4293 22.5 12.3707 22.5 12.3191V12.1879ZM20.8125 12.3098C20.8125 12.359 20.8125 12.4129 20.8102 12.4762C20.8078 12.659 20.8031 12.8605 20.7984 13.0785C20.782 13.702 20.7492 14.3254 20.7 14.9043C20.6367 15.659 20.5477 16.2777 20.4375 16.6926C20.2922 17.234 19.8656 17.6629 19.3266 17.8059C18.8344 17.9371 17.5945 18.0426 15.9094 18.1059C15.0562 18.1387 14.1375 18.1598 13.2211 18.1715C12.9 18.1762 12.6023 18.1785 12.3352 18.1785H11.6648L10.7789 18.1715C9.8625 18.1598 8.94609 18.1387 8.09063 18.1059C6.40547 18.0402 5.16328 17.9371 4.67344 17.8059C4.13437 17.6605 3.70781 17.234 3.5625 16.6926C3.45234 16.2777 3.36328 15.659 3.3 14.9043C3.25078 14.3254 3.22031 13.702 3.20156 13.0785C3.19453 12.8605 3.19219 12.6566 3.18984 12.4762C3.18984 12.4129 3.1875 12.3566 3.1875 12.3098V12.1973C3.1875 12.148 3.1875 12.0941 3.18984 12.0309C3.19219 11.848 3.19688 11.6465 3.20156 11.4285C3.21797 10.8051 3.25078 10.1816 3.3 9.60273C3.36328 8.84805 3.45234 8.2293 3.5625 7.81445C3.70781 7.27305 4.13437 6.84414 4.67344 6.70117C5.16562 6.56992 6.40547 6.46445 8.09063 6.40117C8.94375 6.36836 9.8625 6.34727 10.7789 6.33555C11.1 6.33086 11.3977 6.32852 11.6648 6.32852H12.3352L13.2211 6.33555C14.1375 6.34727 15.0539 6.36836 15.9094 6.40117C17.5945 6.4668 18.8367 6.56992 19.3266 6.70117C19.8656 6.84648 20.2922 7.27305 20.4375 7.81445C20.5477 8.2293 20.6367 8.84805 20.7 9.60273C20.7492 10.1816 20.7797 10.8051 20.7984 11.4285C20.8055 11.6465 20.8078 11.8504 20.8102 12.0309C20.8102 12.0941 20.8125 12.1504 20.8125 12.1973V12.3098ZM9.91406 15.3941L15.3516 12.2301L9.91406 9.11289V15.3941Z" fill="white"/>
</svg>
