<svg width="100" height="100" viewBox="0 0 100 100" fill="none" xmlns="http://www.w3.org/2000/svg">
<g clip-path="url(#clip0_1730_1279)">
<rect width="100" height="100" rx="50" fill="#999999"/>
<path d="M70.9314 24.7495C73.076 26.4709 74.7725 28.6854 75.8762 31.2043C76.9798 33.7231 77.4579 36.4716 77.2696 39.2151C77.0652 41.8731 76.3393 44.8991 78.067 46.9233C79.7947 48.9475 83.1786 48.8759 84.7631 50.941C86.6953 53.3638 85.08 56.9828 85.7854 60.0088C86.1531 61.4201 87.0116 62.6543 88.2069 63.4898C89.4022 64.3254 90.856 64.7078 92.3078 64.5683C88.8932 67.3318 84.7829 69.1005 80.4286 69.6798L77.1061 65.4066C78.3635 66.8992 78.0261 69.2811 76.8096 70.8146C75.4768 72.2605 73.7495 73.2841 71.8412 73.7588C67.3659 75.1395 62.6321 75.4676 58.0091 74.7174C53.3861 73.9673 48.9989 72.1593 45.1897 69.4345" fill="#672F23"/>
<path d="M21.0425 48.2007C21.707 46.1561 22.8213 44.2852 23.2711 42.1895C24.2321 37.6914 22.0342 32.631 24.2219 28.5724C25.7758 25.6895 29.0881 24.2787 32.2163 23.3178C35.3446 22.3568 38.708 21.5389 41.0388 19.2285C42.7461 17.5417 43.7275 15.2211 45.4347 13.5343C47.8576 11.1217 51.4561 10.3038 54.8706 10.0994C58.379 9.75285 61.9175 10.3162 65.1448 11.735C66.7482 12.4666 68.1573 13.5648 69.2583 14.941C70.3592 16.3172 71.1213 17.933 71.4831 19.6579C71.7591 21.3549 71.5546 23.1235 72.0862 24.7694C72.6689 26.5585 74.0797 27.9488 74.9487 29.6254C75.8227 31.4223 76.0749 33.4586 75.666 35.4144C75.2571 37.3703 74.2101 39.1349 72.6894 40.4312L48.6448 71.5706C43.5332 73.4823 31.3269 71.1719 27.4115 67.4302C23.4961 63.6886 19.3557 53.3429 21.0425 48.2007Z" fill="#672F23"/>
<path d="M72.0558 36.5055C71.0335 29.4414 65.6869 21.0994 58.6738 22.3875L37.0214 29.6663C34.8848 30.0548 36.4183 33.5306 36.6227 35.6877L41.3355 84.5334C41.3355 84.5334 38.4118 86.578 37.3588 86.2202C37.3006 86.1999 37.2375 86.1982 37.1782 86.2154C37.119 86.2326 37.0666 86.2678 37.0284 86.3162C36.9901 86.3646 36.9679 86.4237 36.9649 86.4853C36.9618 86.5469 36.978 86.6079 37.0112 86.6598C39.6181 90.4321 51.8857 106.942 64.5419 101.902C67.3737 100.778 64.2454 91.8736 64.5419 88.6124L64.1636 80.1784C63.8774 75.8745 63.7445 74.1161 63.7547 74.157C63.7649 74.1979 72.6999 71.9489 73.6711 59.9777C74.2027 53.9767 73.1803 44.3568 72.0558 36.5055Z" fill="#FFBF9D"/>
<path d="M69.3466 47.9248C69.3812 48.3195 69.2608 48.7121 69.0107 49.0194C68.7607 49.3266 68.4008 49.5244 68.0074 49.5708C67.8157 49.6011 67.6199 49.5926 67.4316 49.546C67.2432 49.4993 67.0661 49.4154 66.9108 49.2991C66.7554 49.1828 66.625 49.0366 66.5271 48.869C66.4293 48.7015 66.366 48.516 66.341 48.3235C66.3064 47.9289 66.4269 47.5363 66.6769 47.229C66.9269 46.9218 67.2868 46.724 67.6803 46.6776C67.8719 46.6473 68.0677 46.6558 68.2561 46.7024C68.4444 46.7491 68.6215 46.833 68.7769 46.9493C68.9322 47.0656 69.0627 47.2118 69.1605 47.3794C69.2584 47.5469 69.3217 47.7324 69.3466 47.9248Z" fill="#181A20"/>
<path d="M54.7789 48.8342C54.816 49.2309 54.6951 49.6263 54.4425 49.9345C54.1898 50.2427 53.8258 50.4387 53.4294 50.4801C53.2377 50.5104 53.042 50.502 52.8536 50.4553C52.6653 50.4086 52.4882 50.3247 52.3328 50.2084C52.1775 50.0921 52.047 49.9459 51.9491 49.7783C51.8513 49.6108 51.788 49.4253 51.7631 49.2329C51.7286 48.8366 51.8505 48.4427 52.1026 48.1351C52.3548 47.8276 52.7172 47.6308 53.1125 47.587C53.304 47.5581 53.4993 47.5675 53.6871 47.6148C53.8749 47.662 54.0514 47.7461 54.2065 47.8621C54.3615 47.9782 54.4919 48.1239 54.5902 48.2907C54.6885 48.4576 54.7526 48.6423 54.7789 48.8342Z" fill="#181A20"/>
<path d="M71.1359 42.4046C70.9724 42.6806 69.5616 41.7912 67.793 42.0468C66.0244 42.3024 64.8896 43.5189 64.6545 43.294C64.4194 43.0691 64.6545 42.7215 65.1759 42.1592C65.8099 41.4437 66.6793 40.9791 67.6265 40.8497C68.5737 40.7203 69.5358 40.9347 70.3385 41.4539C70.9212 41.8219 71.1359 42.2512 71.1359 42.4046Z" fill="#181A20"/>
<path d="M55.2186 43.6818C55.0142 43.9374 53.6238 42.9356 51.7224 43.0173C49.8209 43.0991 48.4714 44.1726 48.2567 43.9272C48.0421 43.6818 48.3487 43.3649 48.9417 42.9049C49.7234 42.2683 50.6941 41.9088 51.7019 41.8826C52.7014 41.842 53.6851 42.1411 54.4928 42.7311C55.1062 43.1298 55.3209 43.5694 55.2186 43.6818Z" fill="#181A20"/>
<path d="M61.1784 54.8762C62.0192 54.5409 62.8983 54.3108 63.7956 54.1913C64.2045 54.1197 64.5929 54.0072 64.6441 53.721C64.6457 53.2878 64.5175 52.8641 64.276 52.5045L62.7937 49.4375C60.7491 45.0416 59.2054 41.4227 59.3894 41.3409C59.5734 41.2591 61.434 44.7554 63.4786 49.1411C63.9796 50.2247 64.4498 51.2572 64.9099 52.208C65.2078 52.6941 65.3271 53.2689 65.2472 53.8334C65.1973 53.9842 65.1146 54.122 65.005 54.2369C64.8953 54.3518 64.7616 54.441 64.6134 54.4979C64.3851 54.5767 64.1483 54.6281 63.908 54.6513C63.0118 54.8444 62.0942 54.92 61.1784 54.8762Z" fill="#181A20"/>
<path d="M63.7957 74.0956C58.2247 74.5923 52.6252 73.5305 47.6228 71.0287C47.6228 71.0287 52.2436 79.0334 63.9797 77.0092L63.7957 74.0956Z" fill="#FF9A6C"/>
<path d="M56.2 59.6401C56.3849 59.2317 56.674 58.8792 57.0383 58.6178C57.4764 58.4034 57.9768 58.3526 58.449 58.4747C59.1511 58.5805 59.8002 58.9104 60.2994 59.4152C60.5445 59.6694 60.7173 59.9843 60.8 60.3276C60.8827 60.6709 60.8722 61.03 60.7697 61.3678C60.5857 62.0528 59.5634 62.3901 58.8682 62.5537C58.1574 62.6543 57.4339 62.5023 56.8236 62.1243C56.5561 61.9998 56.3231 61.8118 56.1449 61.5766C55.9667 61.3413 55.8487 61.0661 55.8013 60.7749C55.825 60.3667 55.9632 59.9735 56.2 59.6401Z" fill="#DF6F1E"/>
<path d="M56.5371 57.3502C56.7927 57.3502 56.9358 59.0779 58.5817 60.2229C60.2276 61.3679 62.0678 61.0203 62.0985 61.2452C62.0985 61.3474 61.71 61.6132 60.9126 61.695C59.8747 61.7938 58.8354 61.5222 57.9786 60.9283C57.1595 60.3554 56.595 59.4867 56.4042 58.5054C56.2509 57.8001 56.4144 57.34 56.5371 57.3502Z" fill="#181A20"/>
<path d="M55.0753 37.293C54.9526 37.753 53.3067 37.6712 51.4052 38.0495C49.5037 38.4277 48.0009 39.0718 47.7147 38.6833C47.5818 38.4993 47.8272 38.0699 48.4099 37.5894C49.1992 36.9882 50.1212 36.5851 51.0985 36.4138C52.0684 36.2208 53.0701 36.2593 54.0223 36.5262C54.7788 36.7614 55.1264 37.0783 55.0753 37.293Z" fill="#181A20"/>
<path d="M70.1134 36.4036C69.817 36.7921 68.4982 36.516 66.9545 36.608C65.4108 36.7001 64.1227 37.0783 63.7854 36.7103C63.6423 36.5365 63.7854 36.148 64.3681 35.7595C65.113 35.2577 65.9851 34.9776 66.883 34.9519C67.7764 34.8923 68.6686 35.0835 69.4592 35.504C70.0112 35.8413 70.2157 36.2094 70.1134 36.4036Z" fill="#181A20"/>
<path d="M32.2266 31.3632C33.3205 29.6866 35.2935 28.8176 37.1541 28.102C45.2333 24.9838 53.6551 22.8389 62.2415 21.7126C63.2638 23.471 62.3233 25.8632 60.7081 27.1513C59.0928 28.4394 57.0278 28.9403 55.0956 29.6559C53.1634 30.3715 51.1904 31.4858 50.4032 33.3873C49.616 35.2888 50.2703 37.8037 49.524 39.8585C48.2462 43.4059 43.2982 44.5509 42.0408 48.0983C41.09 50.787 42.6541 53.6494 43.0631 56.471C43.2571 57.9051 43.1445 59.364 42.7326 60.7512C42.3208 62.1385 41.6191 63.4225 40.674 64.5184C39.7289 65.6143 38.5619 66.497 37.2501 67.1082C35.9384 67.7194 34.5119 68.0452 33.0649 68.064C32.472 57.8954 31.8824 47.7235 31.2963 37.5481C31.1532 35.432 31.0714 33.2033 32.2266 31.3632Z" fill="#672F23"/>
<path d="M11.7397 57.0645C13.3448 55.6231 15.3587 54.3759 16.0028 52.321C16.9331 49.3155 14.5306 45.7885 16.0743 43.0589C17.4953 40.5645 21.6663 40.6974 22.9749 38.1519C23.9972 36.1073 22.8215 34.4 23.21 32.6519C23.5985 30.9037 26.0827 29.3805 27.8615 29.585L41.7546 49.7141C43.0427 56.4716 44.3411 60.0599 42.8894 64.0264C41.9407 66.1309 41.2209 68.3313 40.7426 70.5896C40.4359 72.8796 41.0186 75.466 42.8894 76.8257C34.5781 77.4697 26.7983 73.125 19.6115 68.9233L11.9953 64.4762C11.1667 64.0746 10.4477 63.4783 9.89961 62.7383C8.77507 60.8777 10.1347 58.506 11.7397 57.0645Z" fill="#672F23"/>
<path d="M19.3967 66.8784C19.6854 66.9707 19.9839 67.029 20.2861 67.0522C21.1525 67.1342 22.0265 67.072 22.8726 66.8681C24.2233 66.5439 25.4668 65.8747 26.4813 64.9258C27.8202 63.6377 28.6603 61.9176 28.8531 60.0698C28.9754 58.9995 28.8851 57.9156 28.5873 56.8802C28.2082 55.7952 27.6893 54.7642 27.0436 53.8133C26.3573 52.8311 25.8199 51.7528 25.4488 50.6135C25.255 50.0311 25.1949 49.4126 25.2727 48.8039C25.3506 48.1951 25.5645 47.6116 25.8986 47.0968C26.6551 46.0745 28.0557 45.8291 29.354 45.3077C30.0859 45.085 30.7185 44.6166 31.1451 43.9814C31.5716 43.3463 31.7659 42.5834 31.6951 41.8217C31.5209 40.3534 31.2059 38.9053 30.7545 37.4973C30.5911 36.7979 30.5911 36.0703 30.7545 35.3709C30.9412 34.6849 31.365 34.0872 31.9506 33.6841C33.2274 32.9461 34.6776 32.5614 36.1523 32.5698C37.6639 32.5137 39.1371 32.0777 40.4358 31.3022C41.6799 30.5307 42.6906 29.4351 43.3596 28.133C43.9246 26.8716 44.2902 25.53 44.4432 24.1562C44.5824 22.8845 44.8531 21.6306 45.2508 20.4146C45.6876 19.3044 46.3569 18.3005 47.2137 17.4704C48.6329 16.0955 50.4522 15.2071 52.409 14.9333C54.3659 14.6595 56.3592 15.0146 58.1012 15.9471C59.3031 16.5629 60.3864 17.3867 61.301 18.3802C62.0654 19.2452 62.7274 20.1954 63.2741 21.212C63.2572 21.1369 63.2296 21.0646 63.1923 20.9973C63.131 20.8644 63.0492 20.6497 62.906 20.3942C62.5081 19.6223 62.0134 18.9043 61.4339 18.2575C60.5297 17.216 59.4416 16.3496 58.2239 15.7018C56.6049 14.819 54.7683 14.4148 52.9284 14.5363C50.6848 14.7095 48.5677 15.6436 46.9274 17.1841C46.0342 18.0482 45.3369 19.0941 44.8828 20.251C44.46 21.4874 44.172 22.7659 44.0241 24.0642C43.8786 25.3864 43.5339 26.6789 43.0018 27.8979C42.3668 29.1263 41.409 30.1583 40.2313 30.883C38.9894 31.6153 37.5831 32.0231 36.1421 32.0689C34.5823 32.0698 33.0508 32.4862 31.7053 33.2752C30.9948 33.7338 30.4753 34.435 30.2434 35.2483C30.0645 36.0184 30.0645 36.8192 30.2434 37.5893C30.6879 38.9713 31.0027 40.3916 31.1839 41.8319C31.2175 42.4995 31.0501 43.1619 30.7034 43.7334C30.3281 44.2434 29.8133 44.6339 29.2211 44.8579C28.5975 45.1237 27.933 45.3077 27.2889 45.5735C26.6227 45.8267 26.0341 46.2496 25.5817 46.8003C25.211 47.3722 24.9736 48.02 24.8869 48.6959C24.8002 49.3718 24.8664 50.0586 25.0807 50.7055C25.4674 51.8835 26.0292 52.9967 26.7471 54.0076C27.3807 54.9332 27.8926 55.9365 28.2703 56.9927C28.5692 57.9857 28.6665 59.0284 28.5566 60.0596C28.3874 61.8377 27.6028 63.5009 26.3382 64.7622C25.367 65.6961 24.1745 66.368 22.8726 66.7148C21.7352 66.9917 20.5551 67.0472 19.3967 66.8784Z" fill="#AE7461"/>
<path d="M8.32525 52.5663C8.18396 52.7678 8.08964 52.9983 8.04922 53.2411C7.92007 53.9435 8.04703 54.6689 8.40704 55.2857C8.65189 55.7349 9.00284 56.1174 9.42934 56.4C9.96301 56.7197 10.5759 56.8827 11.1979 56.8702C11.9595 56.8623 12.7038 56.6418 13.3468 56.2335C13.9898 55.8253 14.5061 55.2457 14.8373 54.5598C15.2357 53.7783 15.4392 52.9119 15.4303 52.0347C15.406 51.0901 15.2085 50.158 14.8476 49.2847C14.1831 47.4957 12.987 45.7373 12.9665 43.6416C12.926 43.1259 12.9902 42.6074 13.1554 42.1172C13.3205 41.6271 13.5832 41.1754 13.9275 40.7894C14.7685 40.0879 15.8521 39.7463 16.9433 39.8386C18.1552 39.936 19.3747 39.8113 20.5418 39.4706C21.1547 39.221 21.6734 38.7846 22.0242 38.2234C22.3593 37.6661 22.5654 37.0408 22.6273 36.3934C22.6815 35.1557 22.5819 33.9161 22.3308 32.7029C22.148 31.5607 22.2143 30.3924 22.5251 29.2782C23.1035 27.1386 24.4886 25.3065 26.3894 24.1667C28.1719 23.265 30.1477 22.8123 32.145 22.8479C33.9292 22.8502 35.7026 22.5707 37.3996 22.0198C39.839 21.0868 41.8776 19.3338 43.1654 17.0617C43.6653 16.2527 44.0119 15.3586 44.1877 14.4241C43.8883 15.3073 43.5049 16.1597 43.0428 16.9696C42.4862 17.9023 41.7975 18.7494 40.9981 19.4845C39.9402 20.4579 38.6997 21.2119 37.3485 21.7029C35.6759 22.2143 33.9348 22.466 32.1859 22.4492C30.1203 22.3974 28.0737 22.8538 26.2258 23.7782C24.23 24.9681 22.7665 26.878 22.1366 29.1146C21.8095 30.2886 21.7363 31.5189 21.9219 32.7234C22.1667 33.896 22.2663 35.0943 22.2184 36.2912C22.1998 36.8614 22.0225 37.4151 21.7064 37.8901C21.3904 38.3651 20.9481 38.7425 20.4293 38.9799C19.3174 39.2979 18.1578 39.4156 17.0046 39.3275C15.7934 39.2421 14.597 39.6348 13.6719 40.4213C13.2851 40.8522 12.9896 41.3569 12.8034 41.9051C12.6171 42.4534 12.5439 43.0336 12.5883 43.6109C12.6419 44.6734 12.9024 45.7151 13.355 46.6778C13.7537 47.6184 14.2035 48.4873 14.5409 49.3665C14.8919 50.1893 15.0894 51.0693 15.1236 51.9632C15.1401 52.7839 14.9614 53.5968 14.6022 54.3349C14.3003 54.9706 13.8301 55.5116 13.2426 55.899C12.6551 56.2865 11.9727 56.5057 11.2695 56.5329C10.6909 56.559 10.1167 56.4208 9.61336 56.1342C9.19398 55.8823 8.84291 55.5312 8.59106 55.1119C8.23386 54.5272 8.08268 53.8398 8.16168 53.1593C8.20425 52.9585 8.25887 52.7605 8.32525 52.5663Z" fill="#181A20"/>
<path d="M95.8449 57.5239C96.0952 58.2281 96.0952 58.9971 95.8449 59.7014C95.7065 60.1021 95.4805 60.4669 95.1834 60.7693C94.8864 61.0717 94.5256 61.3041 94.1274 61.4495C93.5893 61.6047 93.019 61.6095 92.4784 61.4635C91.9377 61.3176 91.4474 61.0263 91.0605 60.6215C90.629 60.1387 90.3795 59.5204 90.3551 58.8733C90.322 58.1607 90.4297 57.4486 90.672 56.7776C91.1116 55.3668 92.0112 53.8436 91.8681 52.0034C91.807 51.0718 91.5507 50.1635 91.1156 49.3375C90.6806 48.5115 90.0766 47.7862 89.343 47.2088C88.5743 46.5941 87.697 46.1294 86.7566 45.8389C85.7939 45.5724 84.8009 45.4315 83.8021 45.4198C82.8376 45.4068 81.8762 45.3076 80.9294 45.1233C80.0452 44.9317 79.2544 44.4406 78.6906 43.733C78.1963 43.0034 77.9165 42.1498 77.883 41.2692C77.8358 40.4115 77.908 39.5513 78.0976 38.7135C78.5549 37.1303 78.8057 35.4947 78.8439 33.8473C78.7609 32.3872 78.2449 30.985 77.3616 29.8194C76.6111 28.892 75.6919 28.115 74.6525 27.5294C73.9002 27.0818 73.1795 26.5831 72.4954 26.0369C71.9256 25.555 71.4625 24.9596 71.1357 24.2887C71.1357 24.2887 71.1357 24.2887 71.1357 24.4318C71.1821 24.5713 71.2367 24.7078 71.2993 24.8408C71.5539 25.3468 71.9006 25.801 72.3216 26.18C72.9951 26.76 73.7129 27.2864 74.4685 27.7543C75.4592 28.3464 76.3325 29.1157 77.0447 30.0239C77.8653 31.1439 78.3382 32.4808 78.4043 33.8677C78.3403 35.4781 78.0793 37.0745 77.6274 38.6215C77.4211 39.4985 77.3385 40.4 77.382 41.2999C77.4155 42.269 77.724 43.2086 78.2714 44.009C78.891 44.8166 79.7797 45.3752 80.7761 45.5834C81.7482 45.7853 82.7377 45.8914 83.7306 45.9003C84.6911 45.9102 85.6463 46.0442 86.5726 46.299C87.4563 46.5691 88.2816 47.0025 89.0057 47.5768C89.6904 48.1137 90.2558 48.7873 90.6659 49.5547C91.076 50.3221 91.3218 51.1665 91.3876 52.0341C91.5307 53.7107 90.7027 55.1726 90.2426 56.6549C90.0014 57.379 89.8974 58.1418 89.936 58.904C89.9762 59.6304 90.2733 60.3188 90.7742 60.8464C91.2003 61.2934 91.7439 61.6111 92.3425 61.7631C92.9411 61.915 93.5704 61.8949 94.1581 61.7051C94.5878 61.5388 94.9746 61.2779 95.2896 60.9416C95.6047 60.6053 95.8398 60.2024 95.9778 59.7627C96.1643 59.216 96.1927 58.6278 96.0596 58.0657C96.0142 57.8758 95.9419 57.6933 95.8449 57.5239Z" fill="#181A20"/>
<path d="M92.0522 102.25C90.9658 98.5527 89.0138 95.1674 86.358 92.3748C84.3951 90.3302 66.5559 84.135 66.5559 84.135C50.9555 87.7131 43.4211 80.6285 41.8059 80.3934C40.6916 80.2298 32.2987 84.1346 32.2987 84.1346L40.5602 104.369C40.5602 104.369 77.5353 106.577 92.0522 102.25Z" fill="#FF725E"/>
<path d="M32.2987 84.1346C32.2987 84.1346 16.7691 87.1432 15.1743 104.921L40.5602 104.369" fill="#FF725E"/>
</g>
<defs>
<clipPath id="clip0_1730_1279">
<rect width="100" height="100" rx="50" fill="white"/>
</clipPath>
</defs>
</svg>
