<svg width="100" height="100" viewBox="0 0 100 100" fill="none" xmlns="http://www.w3.org/2000/svg">
<g clip-path="url(#clip0_1774_1666)">
<rect width="100" height="100" rx="50" fill="#999999"/>
<path d="M25.6724 84.7257C25.6724 84.7257 21.7017 87.0976 18 90.9999L32.3373 102.5H66L90.5 83.9999L62.3339 79.6381L38.4551 80.9602L32.3373 83.0937L25.6724 84.7257Z" fill="#407BFF"/>
<path d="M41.5461 16.0979C41.9867 15.0877 42.7285 14.2381 43.6701 13.6654C44.6117 13.0926 45.7072 12.8244 46.8069 12.8976C48.0096 11.8049 49.5427 11.1451 51.163 11.0229C52.7834 10.9007 54.3981 11.323 55.7512 12.2229C56.6678 11.5742 57.7337 11.1679 58.8497 11.042C59.9656 10.916 61.0952 11.0745 62.1334 11.5026C63.1524 11.9451 64.0424 12.639 64.7201 13.5192C65.3978 14.3994 65.8411 15.4373 66.0083 16.5355C67.1077 16.2709 68.2616 16.3483 69.3157 16.7573C70.3699 17.1662 71.2741 17.8873 71.9074 18.824C72.5037 19.7766 72.792 20.8899 72.7333 22.0122C72.6746 23.1346 72.2716 24.2116 71.5791 25.0968C72.8255 25.3783 73.9231 26.1122 74.6595 27.1563C75.3959 28.2005 75.7187 29.4807 75.5656 30.7492C75.4124 32.0177 74.7941 33.1843 73.8303 34.0231C72.8665 34.862 71.6258 35.3135 70.3483 35.2902L43.0869 22.006C42.2486 21.303 41.6498 20.3565 41.3737 19.2978C41.0976 18.2391 41.1578 17.1208 41.5461 16.0979Z" fill="#263238"/>
<path d="M75.3993 63.6176C74.9343 57.9648 73.0105 46.3946 71.1596 35.946C70.1719 30.5049 67.1729 25.6347 62.7589 22.3035C58.3448 18.9723 52.8389 17.4239 47.3356 17.9663L46.1959 18.0757C33.9876 19.9448 28.7632 31.2687 30.9788 43.3221L37.7166 84.6517C38.2951 88.1953 40.2246 91.3767 43.0997 93.5275C45.9748 95.6783 49.5716 96.631 53.1343 96.1854C55.016 95.9498 56.8295 95.3308 58.4625 94.3667C60.0955 93.4025 61.5134 92.1136 62.6286 90.5798C63.7438 89.0459 64.5325 87.2996 64.946 85.4488C65.3595 83.598 65.389 81.6821 65.0327 79.8194L64.7409 78.2695C64.7409 78.2695 76.311 75.3336 75.3993 63.6176Z" fill="#FFBF9D"/>
<path d="M64.8138 78.2434C59.3487 78.7566 53.8502 77.7068 48.9585 75.2163C48.9585 75.2163 53.3987 83.2945 65.0691 81.1245L64.8138 78.2434Z" fill="#FF8B56"/>
<path d="M67.0661 47.3435C67.1073 47.7788 66.9769 48.213 66.7028 48.5536C66.4286 48.8942 66.0322 49.1143 65.5982 49.167C65.3866 49.2048 65.1696 49.1999 64.9599 49.1527C64.7502 49.1055 64.5521 49.0168 64.3772 48.892C64.2022 48.7671 64.0539 48.6086 63.9411 48.4256C63.8282 48.2427 63.7531 48.0391 63.72 47.8267C63.6786 47.3928 63.8077 46.9599 64.08 46.6195C64.3523 46.2791 64.7464 46.0581 65.1788 46.0032C65.3909 45.9654 65.6084 45.9702 65.8187 46.0173C66.029 46.0644 66.2277 46.153 66.4034 46.2777C66.5791 46.4025 66.7282 46.561 66.8419 46.744C66.9557 46.927 67.0319 47.1308 67.0661 47.3435Z" fill="#263238"/>
<path d="M69.1448 41.909C68.9625 42.1461 67.5948 41.3255 65.7804 41.5079C63.9661 41.6902 62.7261 42.7022 62.5073 42.5017C62.2884 42.3011 62.5802 42.0002 63.1181 41.5261C63.8517 40.9139 64.7555 40.5415 65.7075 40.4593C66.6592 40.3588 67.618 40.5666 68.4428 41.052C69.0172 41.4258 69.236 41.7996 69.1448 41.909Z" fill="#263238"/>
<path d="M50.6 48.9572C50.639 49.3907 50.509 49.8224 50.2371 50.1622C49.9653 50.5021 49.5726 50.7237 49.1412 50.7807C48.9289 50.8184 48.7113 50.8132 48.5011 50.7654C48.2908 50.7176 48.0923 50.6282 47.9173 50.5024C47.7422 50.3766 47.5941 50.2171 47.4817 50.0331C47.3693 49.8491 47.2949 49.6445 47.2629 49.4313C47.2216 48.9974 47.3507 48.5645 47.623 48.2241C47.8953 47.8837 48.2894 47.6627 48.7218 47.6078C48.9341 47.5688 49.1522 47.5731 49.3629 47.6203C49.5736 47.6676 49.7726 47.7569 49.948 47.8829C50.1233 48.0089 50.2715 48.169 50.3835 48.3536C50.4955 48.5382 50.5692 48.7435 50.6 48.9572Z" fill="#263238"/>
<path d="M51.3569 43.8882C51.1654 44.1253 49.7978 43.3138 47.9925 43.487C46.1872 43.6603 44.9381 44.6906 44.7193 44.49C44.5005 44.2894 44.7831 43.9885 45.3302 43.5144C46.0627 42.8989 46.9666 42.5233 47.9195 42.4385C48.8709 42.3444 49.8277 42.5517 50.6548 43.0312C51.2201 43.4415 51.448 43.8153 51.3569 43.8882Z" fill="#263238"/>
<path d="M59.2067 56.6539C60.1328 56.2668 61.1038 55.9973 62.0969 55.8516C62.5619 55.7604 63.0087 55.6328 63.0087 55.3045C63.0279 54.8153 62.8975 54.3319 62.6348 53.9187L60.9299 50.5543C58.5593 45.7585 56.7905 41.7924 56.9911 41.7012C57.1917 41.61 59.2705 45.4212 61.641 50.217C62.2154 51.4022 62.7625 52.5328 63.2913 53.6087C63.6379 54.1495 63.7832 54.795 63.7016 55.4322C63.6486 55.6017 63.5579 55.7571 63.4363 55.8865C63.3148 56.016 63.1654 56.1163 62.9995 56.1798C62.75 56.2733 62.4896 56.3345 62.2245 56.3622C61.2354 56.5893 60.221 56.6874 59.2067 56.6539Z" fill="#263238"/>
<path d="M51.1561 36.841C51.0193 37.3425 49.1867 37.2787 47.0896 37.7528C44.9926 38.2269 43.315 38.9472 42.9959 38.5369C42.85 38.3363 43.1053 37.853 43.7526 37.3151C44.6252 36.646 45.6377 36.1828 46.7145 35.9602C47.7913 35.7376 48.9045 35.7613 49.9708 36.0296C50.7822 36.2484 51.2108 36.5948 51.1561 36.841Z" fill="#263238"/>
<path d="M67.987 36.7677C67.7043 37.2053 66.4188 36.8953 64.9144 37.023C63.41 37.1506 62.1791 37.5609 61.8327 37.1597C61.6868 36.9591 61.8327 36.5397 62.3615 36.093C63.0661 35.5593 63.9125 35.2453 64.7947 35.1902C65.6769 35.135 66.5558 35.3412 67.3214 35.783C67.8958 36.1477 68.1055 36.5944 67.987 36.7677Z" fill="#263238"/>
<path d="M69.4913 30.686C69.4913 30.686 65.6802 23.6564 61.9603 22.2797C57.4471 20.6203 56.043 25.489 51.8216 24.7323C47.6002 23.9755 43.2967 22.3891 39.3944 25.9358C35.1274 29.8198 37.5071 32.0354 37.7168 37.2506C38.5739 58.4123 35.2642 64.7217 33.2128 54.9203C32.9939 53.8445 29.8666 53.2701 28.9822 48.7204C27.8334 42.8214 26.9126 35.6186 27.8517 31.2695C28.6449 27.6225 30.4502 24.9511 33.8692 21.8967C39.2486 17.0736 47.199 16.2256 52.6513 16.253C58.1036 16.2803 69.1175 21.4682 69.4913 30.686Z" fill="#263238"/>
<path d="M33.933 54.5283C33.8745 54.0991 33.73 53.6861 33.5081 53.314C33.2862 52.942 32.9914 52.6186 32.6415 52.3632C32.2916 52.1078 31.8937 51.9256 31.4717 51.8277C31.0498 51.7297 30.6124 51.7179 30.1857 51.7931C28.0066 52.2125 25.627 53.6804 26.2469 58.1753C27.2681 66.1532 35.1365 63.4817 35.1183 63.2538C35.1 63.0258 34.3706 57.8562 33.933 54.5283Z" fill="#FFBF9D"/>
<path d="M32.9848 60.4726C32.9848 60.4726 32.8572 60.5912 32.6292 60.7279C32.3147 60.9086 31.9435 60.964 31.5899 60.8829C30.6781 60.6732 29.7664 59.4332 29.5931 58.0018C29.4833 57.3195 29.5301 56.6211 29.7299 55.9595C29.7743 55.7016 29.8804 55.4584 30.0392 55.2504C30.198 55.0424 30.4046 54.8759 30.6416 54.7651C30.8009 54.692 30.9813 54.6794 31.1491 54.7298C31.317 54.7801 31.4607 54.8899 31.5534 55.0386C31.6901 55.2483 31.6537 55.4124 31.6993 55.4215C31.7449 55.4307 31.8543 55.2666 31.6993 54.9474C31.6303 54.7549 31.4987 54.5911 31.3254 54.4824C31.0809 54.3469 30.7935 54.3109 30.5231 54.3821C30.2011 54.4859 29.9117 54.6715 29.6831 54.9209C29.4545 55.1702 29.2947 55.4747 29.2193 55.8045C28.9659 56.5362 28.897 57.3191 29.0187 58.0839C29.274 59.6885 30.2952 61.0835 31.4987 61.2659C31.7216 61.3026 31.95 61.288 32.1664 61.2233C32.3829 61.1585 32.5817 61.0452 32.7478 60.892C32.994 60.6641 33.0122 60.4818 32.9848 60.4726Z" fill="#FF8B56"/>
<path d="M32.6203 39.0198C33.6926 39.7155 34.9204 40.1352 36.1943 40.2415C37.4708 40.2415 38.8475 39.3844 38.9296 38.1262C38.9752 37.5609 38.7746 36.9318 39.1028 36.4669C39.431 36.0019 40.3246 35.9927 40.9993 36.0019C42.1833 35.9847 43.3256 35.5614 44.2351 34.803C45.1445 34.0446 45.766 32.9969 45.9957 31.8352C46.6795 32.6648 48.0744 32.5007 48.9224 31.8352C49.6946 31.0813 50.3603 30.2254 50.9009 29.2914C51.1765 28.8275 51.5599 28.437 52.0186 28.1529C52.4773 27.8688 52.9978 27.6995 53.5358 27.6593C54.1333 27.8016 54.7451 27.875 55.3593 27.8782C56.417 27.6867 56.8181 26.4011 56.8728 25.3435C56.9275 24.2859 56.9458 23.0641 57.7846 22.4077C58.6234 21.7512 59.681 22.0065 60.6657 22.0612C61.6504 22.1159 62.8904 21.7603 63.0545 20.7939C63.0719 20.5365 63.0364 20.2784 62.9502 20.0353C62.8639 19.7922 62.7288 19.5694 62.5531 19.3806C61.799 18.4671 60.7596 17.8337 59.602 17.5823C58.4443 17.3309 57.2358 17.4762 56.1708 17.9948C55.6352 16.7008 54.7308 15.5929 53.5703 14.809C52.4097 14.0251 51.0442 13.5999 49.6438 13.5863C48.2434 13.5727 46.8699 13.9713 45.6944 14.7325C44.5188 15.4936 43.5931 16.5838 43.0325 17.8671C42.1009 17.1869 41.0213 16.7373 39.8823 16.5552C38.7433 16.3731 37.5773 16.4638 36.4802 16.8197C35.383 17.1757 34.3858 17.7867 33.5706 18.6028C32.7554 19.4188 32.1454 20.4166 31.7906 21.5141C30.7817 21.3649 29.7511 21.5059 28.8195 21.9209C27.8879 22.3359 27.0937 23.0075 26.5298 23.8573C25.9952 24.7211 25.7212 25.7207 25.7406 26.7364C25.76 27.752 26.072 28.7404 26.6392 29.5831C25.9252 30.0203 25.3344 30.6324 24.9228 31.3615C24.5112 32.0906 24.2923 32.9126 24.2869 33.7498C24.4145 35.4001 26.2015 36.8954 27.7698 36.3119C27.5284 36.9973 27.5474 37.7476 27.8231 38.42C28.0988 39.0924 28.6119 39.6401 29.265 39.9589C29.9397 40.2392 30.6933 40.2653 31.3858 40.0322C32.0782 39.7992 32.6627 39.3228 33.0306 38.6915" fill="#263238"/>
<path d="M59.7811 60.3007L55.4959 59.3889C55.252 59.3159 54.9921 59.3159 54.7483 59.3889C54.4896 59.5095 54.2872 59.725 54.183 59.9907C53.8508 60.6382 53.7169 61.3693 53.7979 62.0926C53.879 62.8158 54.1715 63.4991 54.6388 64.0571C55.1306 64.5912 55.7942 64.9359 56.514 65.0308C57.2338 65.1258 57.9641 64.9651 58.5776 64.5768C59.8267 63.665 60.1367 61.96 59.9088 60.4465L59.7811 60.3007Z" fill="#FF8B56"/>
<path d="M58.76 64.7581C58.76 64.7581 58.6141 64.9405 58.2403 65.1046C57.7066 65.3347 57.1223 65.4227 56.5445 65.3599C55.6641 65.2589 54.8506 64.8408 54.256 64.1837C53.8892 63.782 53.617 63.3032 53.4592 62.7826C53.3015 62.262 53.2622 61.7127 53.3442 61.175C53.4257 60.6183 53.6279 60.0861 53.9368 59.6159C54.0905 59.3937 54.2678 59.1889 54.4657 59.005C54.5781 58.8879 54.7197 58.8029 54.876 58.7588C55.0319 58.7226 55.1941 58.7226 55.3501 58.7588C55.5826 58.8126 55.8111 58.8827 56.0339 58.9685L56.6265 59.1691L57.7115 59.552C58.4447 59.7623 59.1468 60.0689 59.7994 60.4638C59.0421 60.406 58.2964 60.2434 57.5839 59.9806L56.4806 59.6706L55.8698 59.4882C55.6601 59.4335 55.4321 59.3514 55.2589 59.3241C55.1832 59.3057 55.1038 59.3087 55.0298 59.3329C54.9557 59.357 54.8898 59.4014 54.8395 59.4609C54.341 59.9502 54.0201 60.592 53.9277 61.2844C53.86 61.7394 53.8909 62.2037 54.0183 62.6457C54.1458 63.0877 54.3667 63.4972 54.6662 63.8464C55.1605 64.432 55.8445 64.8256 56.5992 64.9587C57.1198 65.0525 57.6545 65.0338 58.1674 64.904C58.5321 64.7946 58.7327 64.7126 58.76 64.7581Z" fill="#263238"/>
</g>
<defs>
<clipPath id="clip0_1774_1666">
<rect width="100" height="100" rx="50" fill="white"/>
</clipPath>
</defs>
</svg>
