<svg width="100" height="100" viewBox="0 0 100 100" fill="none" xmlns="http://www.w3.org/2000/svg">
<g clip-path="url(#clip0_1885_1153)">
<rect width="100" height="100" rx="50" fill="#999999"/>
<path d="M50.4206 81.2144L48.6681 62.9109L21.223 28.999C19.3988 37.3924 17.3594 53.5951 20.0957 61.6913C21.1205 64.7658 22.4733 67.8403 22.1454 71.0583C21.8277 74.0303 20.0957 76.8076 20.2904 79.7899C20.4647 82.0138 21.7457 83.9815 22.9858 85.8467C23.1607 86.308 23.4251 86.7301 23.7639 87.0888C24.1026 87.4475 24.5089 87.7357 24.9595 87.9366C25.4101 88.1376 25.8959 88.2475 26.3891 88.2599C26.8823 88.2724 27.3731 88.1871 27.8332 88.0091L48.4837 83.9098C49.1452 83.8619 49.764 83.5653 50.2156 83.0796C50.507 82.5031 50.5798 81.8405 50.4206 81.2144Z" fill="#101E38"/>
<path d="M80.9915 62.9197C77.2816 56.7707 74.2276 39.5124 74.0123 33.8758C73.7971 28.2392 70.5689 21.5778 66.6335 17.54C62.6981 13.5021 55.8727 11.9444 51.261 15.2136L50.3181 20.0098C52.1321 41.7671 51.8861 63.8728 53.6898 85.5993C53.9358 88.4586 56.2519 91.0412 57.5535 93.6033C58.855 96.1654 61.4581 98.2663 64.3174 98.0921C68.0683 97.8564 73.7459 96.1551 74.9039 92.5785C79.1365 79.686 96.9174 89.217 80.9915 62.9197Z" fill="#101E38"/>
<path d="M68.1402 19.9805C65.5196 16.6174 62.1776 13.8852 58.3605 11.9856C54.5435 10.0859 50.3488 9.06724 46.0857 9.00453C41.0742 8.92254 39.0041 9.96786 35.3966 10.9415C31.7875 11.8061 28.5982 13.9142 26.3883 16.8958C23.8262 20.5237 21.6843 24.5923 21.2027 28.9991C20.5648 33.5161 20.3452 38.0823 20.5468 42.6396C20.7565 47.2202 22.2284 51.6536 24.7998 55.4501L36.3702 57.4998C42.755 57.7252 49.2319 57.9302 55.4527 56.4749C61.6734 55.0197 67.7507 51.6684 71.0507 46.2266C75.6727 38.5915 73.746 26.8982 68.1402 19.9805Z" fill="#101E38"/>
<path d="M57.8916 19.9078L42.5191 13.7588L38.4915 14.22C29.4319 14.22 23.1804 24.2531 23.1189 31.6422C23.0574 39.8409 23.2931 49.7613 24.5947 55.7668C27.1978 67.8599 37.5076 68.8643 37.5076 68.8643C37.5076 68.8643 37.3027 75.3002 37.2207 79.3586L60.7919 77.6573L61.9705 24.0789C61.9432 22.997 61.5075 21.9655 60.7508 21.1917C59.9941 20.418 58.9726 19.9592 57.8916 19.9078Z" fill="#FFBF9D"/>
<path d="M42.6215 52.909C42.5519 52.4688 42.3722 52.0534 42.0991 51.7013C41.826 51.3492 41.4684 51.0719 41.0594 50.895C40.6505 50.7181 40.2034 50.6474 39.7598 50.6896C39.3162 50.7317 38.8905 50.8853 38.5221 51.136C38.0238 51.5181 37.6366 52.0265 37.4006 52.6085C37.1645 53.1904 37.0882 53.8249 37.1796 54.4462C37.445 54.8192 37.7872 55.1311 38.1831 55.3609C38.5791 55.5907 39.0197 55.7331 39.4752 55.7785H39.9056C40.6244 55.7721 41.315 55.498 41.8426 55.0099C42.1237 54.742 42.34 54.4136 42.4749 54.0495C42.6099 53.6854 42.66 53.2953 42.6215 52.909Z" fill="#FF8B56"/>
<path d="M27.1465 41.9317C27.1625 42.3395 27.3379 42.7247 27.635 43.0045C27.932 43.2843 28.327 43.4364 28.735 43.428C28.9349 43.4335 29.1339 43.3988 29.3202 43.3261C29.5065 43.2533 29.6763 43.144 29.8196 43.0045C29.963 42.865 30.0768 42.6982 30.1546 42.514C30.2323 42.3297 30.2724 42.1317 30.2723 41.9317C30.2537 41.5249 30.0775 41.1412 29.781 40.8619C29.4845 40.5827 29.091 40.4297 28.6838 40.4355C28.4835 40.4285 28.2839 40.4622 28.097 40.5344C27.91 40.6067 27.7396 40.7159 27.596 40.8557C27.4524 40.9955 27.3386 41.1629 27.2613 41.3478C27.1841 41.5327 27.145 41.7313 27.1465 41.9317Z" fill="#101E38"/>
<path d="M25.7833 35.6914C25.9883 35.8861 27.1156 34.9433 28.8578 34.8511C30.6 34.7589 31.8196 35.5377 31.9323 35.3225C32.045 35.1073 31.7991 34.8716 31.2457 34.5129C30.4925 34.0425 29.6107 33.8202 28.7246 33.8775C27.8481 33.9249 27.0089 34.2477 26.3265 34.7998C25.8345 35.2303 25.6808 35.6094 25.7833 35.6914Z" fill="#101E38"/>
<path d="M36.5954 48.8918C35.6923 48.6549 34.762 48.5377 33.8284 48.5434C33.3979 48.5434 32.988 48.4614 32.8958 48.1745C32.8395 47.7312 32.918 47.2812 33.1212 46.8832C33.4594 45.8583 33.8284 44.7105 34.2075 43.5422C35.7141 38.7869 36.7799 34.8823 36.5954 34.8311C36.4109 34.7798 35.0172 38.5717 33.5209 43.327C33.1622 44.5055 32.8138 45.6226 32.4961 46.6884C32.2536 47.2224 32.2064 47.8245 32.3628 48.3897C32.4358 48.5369 32.5409 48.6658 32.6704 48.7669C32.7999 48.868 32.9505 48.9387 33.111 48.9738C33.3497 49.027 33.5944 49.0477 33.8386 49.0353C34.76 49.1006 35.6858 49.0524 36.5954 48.8918Z" fill="#101E38"/>
<path d="M37.395 68.8136C43.1409 68.589 48.7113 66.7724 53.4849 63.5664C53.4849 63.5664 49.6008 72.257 37.3335 71.7651L37.395 68.8136Z" fill="#FF9A6C"/>
<path d="M41.6071 49.7814C41.3304 49.7814 41.4329 51.6057 39.9366 52.9892C38.4404 54.3727 36.4932 54.2702 36.4932 54.5264C36.4932 54.7827 36.9441 54.8647 37.764 54.8339C38.8363 54.7949 39.8602 54.3774 40.654 53.6553C41.4132 52.9604 41.8726 51.9976 41.935 50.9703C41.9658 50.2016 41.7301 49.7609 41.6071 49.7814Z" fill="#101E38"/>
<path d="M26.3473 29.7972C26.6548 30.1867 27.9358 29.8485 29.4218 29.8895C30.9078 29.9305 32.2094 30.2584 32.4963 29.8895C32.6296 29.705 32.4963 29.3156 31.9019 28.9262C31.157 28.4608 30.2985 28.209 29.4202 28.1981C28.5419 28.1873 27.6775 28.4179 26.9212 28.8647C26.4088 29.2131 26.2141 29.6025 26.3473 29.7972Z" fill="#101E38"/>
<path d="M45.4708 41.5114C45.4794 41.9187 45.329 42.3134 45.0517 42.6118C44.7743 42.9102 44.3917 43.0889 43.9848 43.1101C43.7858 43.1298 43.5848 43.1094 43.3938 43.0501C43.2028 42.9907 43.0256 42.8937 42.8727 42.7647C42.7199 42.6357 42.5944 42.4774 42.5038 42.2991C42.4131 42.1208 42.3592 41.9261 42.3451 41.7266C42.3365 41.3193 42.4869 40.9246 42.7642 40.6262C43.0416 40.3278 43.4242 40.1491 43.8311 40.1279C44.0301 40.1082 44.2311 40.1286 44.4221 40.1879C44.6131 40.2473 44.7903 40.3443 44.9432 40.4733C45.096 40.6023 45.2215 40.7606 45.3121 40.9389C45.4028 41.1172 45.4567 41.3119 45.4708 41.5114Z" fill="#101E38"/>
<path d="M48.5553 35.0349C48.3606 35.2502 47.1616 34.3893 45.4808 34.42C43.8001 34.4508 42.5805 35.3219 42.4063 35.1169C42.2321 34.912 42.5088 34.6557 43.0315 34.2561C43.7507 33.7363 44.614 33.4534 45.5013 33.4465C46.3802 33.4256 47.2425 33.6879 47.9609 34.1946C48.4631 34.584 48.6681 34.9427 48.5553 35.0349Z" fill="#101E38"/>
<path d="M61.9293 41.2451L59.8181 43.428C50.6971 34.7066 32.8854 12.8571 33.8795 14.1587C38.0344 12.6036 42.5134 12.1173 46.9052 12.7444C53.6794 13.8922 66.5411 17.2844 66.3771 25.2884C66.2131 33.2924 61.9293 41.2451 61.9293 41.2451Z" fill="#101E38"/>
<path d="M74.002 39.4311C73.9836 39.2656 73.9422 39.1035 73.8791 38.9494C73.7274 38.4974 73.5389 38.0587 73.3154 37.6376C72.4523 36.1009 71.2672 34.7689 69.8412 33.733C67.7189 32.2155 65.3511 31.075 62.8416 30.3613C60.0643 29.4594 56.9283 28.7523 53.8538 27.4405C50.9542 26.2247 48.2033 24.6808 45.6551 22.839C43.5716 21.3125 41.6333 19.5972 39.8648 17.7148C38.6684 16.4582 37.5493 15.1303 36.5135 13.7384C36.1651 13.2772 35.8884 12.898 35.6732 12.6008C35.5849 12.4604 35.4819 12.3299 35.3657 12.2114C35.4299 12.3623 35.5088 12.5065 35.6014 12.6418C35.7757 12.9185 36.0216 13.3285 36.3701 13.8409C37.3682 15.278 38.4603 16.6474 39.6393 17.9403C41.4013 19.8447 43.3401 21.5777 45.4296 23.1157C47.9912 24.9961 50.7676 26.5649 53.7 27.7889C56.6616 28.9121 59.6786 29.8836 62.7391 30.6994C65.212 31.3825 67.5534 32.4735 69.667 33.9277C71.0859 34.921 72.2829 36.1983 73.1822 37.6786C73.7766 38.7752 73.9611 39.4413 74.002 39.4311Z" fill="#3B8BB2"/>
<path d="M71.5831 40.7324C71.6117 40.1118 71.5032 39.4925 71.2654 38.9185C70.6385 37.3303 69.5497 35.9666 68.1397 35.0036C66.0298 33.6476 63.6714 32.7245 61.2016 32.2878C58.2397 31.6966 55.3525 30.7789 52.5929 29.5515C49.8411 28.3 47.2586 26.7057 44.9067 24.8065C42.9862 23.2762 41.2217 21.5598 39.639 19.6823C38.5757 18.3987 37.5934 17.0502 36.6977 15.6444C36.421 15.173 36.1853 14.7938 36.0008 14.4864C35.8164 14.1789 35.7446 14.0867 35.7241 14.0969C35.7789 14.2448 35.844 14.3886 35.9188 14.5274L36.5645 15.7367C37.4099 17.1703 38.3587 18.5403 39.4033 19.836C40.9696 21.7745 42.7314 23.5465 44.6607 25.1242C47.0272 27.0566 49.6308 28.6787 52.4085 29.9512C55.1985 31.1895 58.1213 32.1042 61.1196 32.6772C63.5461 33.0909 65.8703 33.9677 67.9655 35.2598C69.3521 36.1738 70.4447 37.4693 71.1117 38.9902C71.325 39.5543 71.4829 40.1378 71.5831 40.7324Z" fill="#3B8BB2"/>
<path d="M37.2003 77.2979L61.079 74.7153L65.455 78.6917L48.4018 88.7146L40.8795 92.6192L33.4494 90.3543L31.0923 85.927L37.2003 77.2979Z" fill="#FFBF9D"/>
<path d="M20 97.5C20 97.5 12.4915 92.0258 14.3465 88.8693C16.6222 85.3687 19.7317 82.4881 23.3958 80.4862L37.2003 77.2989C37.2003 77.2989 35.7655 84.2064 44.3742 84.688C55.2887 85.2927 62.0731 74.8188 62.0731 74.8188C62.0731 74.8188 74.5351 76.0999 77.9785 77.5551C81.422 79.0104 90.0652 82.0666 91.5 95C91.5 95 70.9593 103.847 57 104.5C42.3104 105.188 20 97.5 20 97.5Z" fill="#06B169"/>
<path d="M76.3383 61.5367L61.1195 58.0215C61.1195 68.7618 58.1372 73.0763 55.6161 78.7334C53.095 84.3905 50.9428 90.765 52.7568 96.6886C53.4127 98.8407 54.8065 100.983 56.9381 101.598C58.4698 101.944 60.0758 101.691 61.4269 100.89C64.5014 99.2507 66.4793 96.0942 67.8116 92.8762C69.1439 89.6582 69.9945 86.2352 71.5625 83.1197C72.8846 80.4756 74.7293 78.0878 75.7131 75.3002C76.697 72.5127 78.2752 64.9801 76.3383 61.5367Z" fill="#101E38"/>
<circle cx="39" cy="90" r="3" fill="#055B37"/>
</g>
<defs>
<clipPath id="clip0_1885_1153">
<rect width="100" height="100" rx="50" fill="white"/>
</clipPath>
</defs>
</svg>
