<svg width="100" height="100" viewBox="0 0 100 100" fill="none" xmlns="http://www.w3.org/2000/svg">
<g clip-path="url(#clip0_1730_1233)">
<rect width="100" height="100" rx="50" fill="#999999"/>
<path d="M18.4655 47.8552C17.7373 40.7995 19.7126 33.7303 23.993 28.0742L23.3517 27.9197C25.6799 26.1302 28.5964 25.2826 31.521 25.5457C34.4456 25.8087 37.1641 27.163 39.1357 29.3392C40.5397 31.2913 41.7611 33.3684 42.7844 35.5444C43.8225 37.7207 45.614 39.4472 47.8273 40.404C49.0361 40.8217 50.3574 40.8395 51.5959 41.1822C52.2259 41.3006 52.8125 41.5857 53.2949 42.0078C53.7772 42.4299 54.1376 42.9736 54.3386 43.5822C54.6975 45.1907 53.2328 46.6948 51.8244 47.4062C50.2794 47.9629 48.8451 48.7886 47.588 49.8452C48.2733 50.0308 48.9129 50.3563 49.4661 50.8015C50.0193 51.2466 50.4742 51.8016 50.8022 52.4314C51.1301 53.0611 51.3239 53.7521 51.3714 54.4606C51.4189 55.169 51.319 55.8797 51.078 56.5476C50.8371 57.2155 50.4603 57.8262 49.9714 58.3412C49.4826 58.8561 48.8922 59.2642 48.2377 59.5396C47.5832 59.8149 46.8788 59.9516 46.1688 59.941C45.4588 59.9304 44.7588 59.7728 44.1128 59.478C44.9643 60.6453 45.3807 62.0736 45.2898 63.5157C45.1988 64.9577 44.6064 66.3224 43.6149 67.3735C42.5862 68.3882 41.3264 69.1378 39.9438 69.5578C38.5612 69.9777 37.0973 70.0554 35.678 69.7841C32.8412 69.1938 30.2129 67.8586 28.0632 65.9158C22.6978 61.3238 19.269 54.8715 18.4655 47.8552Z" fill="#263238"/>
<path d="M74.0055 19.0291C73.4866 18.1823 72.7363 17.5017 71.8432 17.0675C70.9501 16.6332 69.9514 16.4634 68.965 16.578C67.014 16.849 65.1334 17.4931 63.4259 18.4752C63.4809 15.8287 63.0102 13.1976 62.0412 10.7344C61.5304 9.5197 60.677 8.48002 59.5852 7.7423C58.4934 7.00458 57.2104 6.60075 55.8928 6.58008C54.7646 6.76633 53.6883 7.18811 52.7339 7.81799C51.7796 8.44786 50.9686 9.27169 50.3538 10.2358C49.1351 12.154 47.7095 13.9325 46.1026 15.5395C41.5744 19.3476 34.6091 17.9766 29.3054 20.5938C24.0018 23.211 20.7753 31.1734 23.171 36.754C33.529 37.8064 43.9424 38.8727 53.8711 42.1822C59.2163 43.9686 65.0877 46.4057 70.239 44.107C71.8459 43.3865 73.2282 42.2453 74.2401 40.804C75.2519 39.3628 75.8557 37.6749 75.9877 35.9189C76.1196 34.1628 75.7747 32.4037 74.9895 30.8274C74.2043 29.2512 73.008 27.9163 71.5268 26.9637C73.3824 24.5681 75.3903 21.577 74.0055 19.0291Z" fill="#263238"/>
<path d="M68.1618 34.5657C65.5446 27.1434 55.2697 21.8952 47.9581 24.8724L24.8326 36.4352L26.0651 40.4787L41.8098 90.4269C41.8098 90.4269 48.4982 106.089 61.958 101.283C74.0054 96.9076 69.685 84.1124 69.685 84.1124L66.6108 74.7238C66.6108 74.7238 76.4564 71.5112 74.9194 58.3421C74.1162 51.7645 71.0698 42.8189 68.1618 34.5657Z" fill="#B5675E"/>
<path d="M68.051 46.7251C68.1735 47.1456 68.1278 47.5972 67.9237 47.9847C67.7197 48.3722 67.373 48.6654 66.957 48.8022C66.7564 48.8787 66.5425 48.9137 66.328 48.9053C66.1135 48.8969 65.9029 48.8453 65.7089 48.7534C65.5149 48.6616 65.3414 48.5315 65.1989 48.3709C65.0565 48.2104 64.9479 48.0227 64.8799 47.8191C64.7537 47.3986 64.7978 46.9453 65.0023 46.5569C65.2069 46.1684 65.5558 45.8758 65.9739 45.7419C66.1746 45.6675 66.3882 45.634 66.6021 45.6433C66.816 45.6526 67.0259 45.7046 67.2194 45.7962C67.413 45.8878 67.5862 46.0172 67.729 46.1767C67.8718 46.3362 67.9813 46.5227 68.051 46.7251Z" fill="#263238"/>
<path d="M67.8296 41.9046C67.6911 42.1677 66.2095 41.6138 64.4785 42.1123C62.7476 42.6108 61.709 43.8294 61.4598 43.6771C61.2105 43.5248 61.4597 43.1647 61.8752 42.6108C62.4772 41.8713 63.2955 41.3387 64.2154 41.0876C65.1271 40.8313 66.0966 40.8701 66.9849 41.1984C67.6219 41.4476 67.9127 41.78 67.8296 41.9046Z" fill="#263238"/>
<path d="M53.345 50.8799C53.4674 51.3004 53.4218 51.752 53.2177 52.1395C53.0136 52.527 52.667 52.8201 52.251 52.957C52.0504 53.0334 51.8364 53.0685 51.6219 53.0601C51.4074 53.0517 51.1969 53 51.0029 52.9082C50.8088 52.8164 50.6353 52.6863 50.4929 52.5257C50.3504 52.3651 50.2419 52.1774 50.1738 51.9738C50.0514 51.5533 50.097 51.1017 50.3011 50.7142C50.5052 50.3267 50.8518 50.0336 51.2678 49.8967C51.4686 49.8223 51.6822 49.7887 51.8961 49.7981C52.11 49.8074 52.3199 49.8594 52.5134 49.951C52.7069 50.0426 52.8802 50.1719 53.023 50.3315C53.1658 50.491 53.2753 50.6774 53.345 50.8799Z" fill="#263238"/>
<path d="M51.8495 46.7249C51.7111 47.0019 50.2294 46.4341 48.4846 46.9326C46.7398 47.4312 45.7151 48.6636 45.4658 48.4974C45.2166 48.3313 45.4658 47.9989 45.8951 47.4312C46.4998 46.6975 47.3176 46.17 48.2353 45.9218C49.1445 45.6522 50.1168 45.6862 51.0049 46.0187C51.6834 46.2541 51.9742 46.5865 51.8495 46.7249Z" fill="#263238"/>
<path d="M60.7113 57.8025C61.5829 57.2807 62.5123 56.8625 63.4808 56.5562C63.9101 56.39 64.3117 56.1823 64.3117 55.9053C64.3117 55.6284 64.0486 55.2545 63.7162 54.8806L61.6114 52.388C60.8359 51.4741 56.7924 46.2813 56.6124 45.7274C58.6797 47.6299 60.5707 49.7156 62.2622 51.9588L64.2978 54.479C64.4908 54.6559 64.6466 54.8694 64.756 55.1072C64.8654 55.345 64.9261 55.6022 64.9348 55.8638C64.8991 56.0236 64.8301 56.174 64.7322 56.3052C64.6344 56.4365 64.5099 56.5456 64.367 56.6254C64.1321 56.749 63.8865 56.851 63.6331 56.9301C62.6959 57.3321 61.7155 57.6248 60.7113 57.8025Z" fill="#263238"/>
<path d="M66.7214 74.7517C60.8104 76.514 54.5268 76.6051 48.5672 75.0148C48.5672 75.0148 55.3664 82.6033 67.6492 77.8536L66.7214 74.7517Z" fill="#894943"/>
<path d="M55.5327 59.4904C55.8096 59.3935 56.3497 61.2768 58.3022 62.163C60.2547 63.0492 62.2488 62.2738 62.3457 62.523C62.4427 62.7723 61.9995 63.0215 61.1548 63.2846C60.0541 63.6142 58.8726 63.5456 57.8175 63.0908C56.8055 62.6434 56.003 61.826 55.5742 60.806C55.325 60.0443 55.408 59.5181 55.5327 59.4904Z" fill="#263238"/>
<path d="M49.6894 41.0604C49.6894 41.6559 48.0277 41.6836 46.2552 42.3206C44.4827 42.9575 43.1118 43.8992 42.7794 43.4283C42.6271 43.2068 42.7794 42.6252 43.2779 41.9744C43.8894 41.172 44.7294 40.5734 45.6874 40.2572C46.6043 39.925 47.6027 39.8911 48.54 40.1603C49.2739 40.3957 49.7032 40.7835 49.6894 41.0604Z" fill="#263238"/>
<path d="M66.1954 35.9092C66.0569 36.477 64.6583 36.4492 63.1628 36.9755C61.6672 37.5017 60.5456 38.2633 60.0887 37.8894C59.8809 37.7094 59.9086 37.1832 60.2963 36.5046C60.8261 35.7313 61.5975 35.1555 62.4895 34.8673C63.3815 34.5791 64.3439 34.5949 65.2261 34.9122C65.9184 35.2307 66.2646 35.6461 66.1954 35.9092Z" fill="#263238"/>
<path d="M65.0598 27.7264C63.2501 25.9454 61.1026 24.5441 58.7436 23.6048C56.3846 22.6655 53.8617 22.2071 51.323 22.2566C46.2351 22.3864 41.2549 23.7503 36.8108 26.2309C32.3885 28.7006 28.1741 31.5256 24.2094 34.6779C23.7262 34.8792 23.2903 35.1789 22.9295 35.558C22.5686 35.9371 22.2907 36.3873 22.1135 36.8798C21.9363 37.3723 21.8636 37.8963 21.9003 38.4185C21.9369 38.9406 22.0819 39.4494 22.3262 39.9123L29.0146 59.8944L31.978 63.5363C34.1797 62.9547 35.5922 60.8499 36.5615 58.8004C39.9692 51.5345 40.4647 43.2395 37.9463 35.6196C38.753 36.3721 39.4312 37.2515 39.9541 38.2229C40.2223 38.7045 40.6004 39.116 41.0576 39.424C41.5148 39.732 42.0381 39.9278 42.5852 39.9954C44.4269 39.9954 45.3547 37.6413 45.1193 35.8411C44.8839 34.041 44.0808 32.1854 44.5239 30.3852C46.9552 32.4403 49.8263 33.909 52.9155 34.6779C54.3003 35.038 56.1836 35.1211 57.0698 33.9163C57.359 33.4686 57.5128 32.9469 57.5128 32.4139C57.5128 31.8808 57.359 31.3591 57.0698 30.9114C56.4922 30.0216 55.7495 29.2508 54.8819 28.6404C57.6056 30.3472 60.7659 31.2275 63.9798 31.1745C64.3291 31.2126 64.6825 31.1686 65.0119 31.046C65.3413 30.9234 65.6375 30.7256 65.8769 30.4683C66.4169 29.6097 65.6968 28.4742 65.0598 27.7264Z" fill="#263238"/>
<path d="M32.6981 53.8839C32.4904 53.8839 24.3895 53.8839 26.799 61.4447C29.2085 69.0054 36.3954 65.0035 36.34 64.7819C36.2846 64.5604 32.6981 53.8839 32.6981 53.8839Z" fill="#B5675E"/>
<path d="M33.0718 62.649C33.0718 62.649 32.9748 62.7874 32.7809 62.9675C32.5087 63.2015 32.1562 63.3207 31.7978 63.2998C30.8977 63.2998 29.8037 62.2197 29.319 60.8488C29.0943 60.2048 29.014 59.5193 29.0836 58.8409C29.0647 58.5722 29.1159 58.3032 29.2325 58.0604C29.349 57.8176 29.5268 57.6093 29.7483 57.4561C29.8875 57.366 30.0539 57.3277 30.2185 57.3479C30.383 57.3682 30.5353 57.4457 30.6484 57.5669C30.8146 57.7469 30.8146 57.9131 30.8562 57.9131C30.8977 57.9131 30.9808 57.7331 30.8562 57.4284C30.7591 57.2538 30.6015 57.1208 30.413 57.0545C30.1553 56.9513 29.8676 56.9513 29.6099 57.0545C29.3182 57.2194 29.0735 57.4561 28.8991 57.742C28.7246 58.028 28.626 58.3538 28.6128 58.6886C28.5014 59.4534 28.5824 60.2338 28.8483 60.9595C29.0262 61.6498 29.4057 62.2713 29.9385 62.7449C30.4712 63.2184 31.133 63.5225 31.8393 63.6183C32.0628 63.6095 32.2817 63.5516 32.4804 63.4487C32.679 63.3458 32.8526 63.2004 32.9887 63.0228C33.1271 62.8428 33.1133 62.649 33.0718 62.649Z" fill="#894943"/>
<path d="M23.905 101.728C25.6775 90.4145 38.0849 81.4967 38.0849 80.6658C49.5092 82.9645 63.4122 82.2998 69.9344 79.9872L74.5318 84.4185L88 95.842C88 95.842 73.5074 104.849 63.3571 107.342C48.014 111.122 23.905 101.728 23.905 101.728Z" fill="#407BFF"/>
</g>
<defs>
<clipPath id="clip0_1730_1233">
<rect width="100" height="100" rx="50" fill="white"/>
</clipPath>
</defs>
</svg>
