<svg width="100" height="100" viewBox="0 0 100 100" fill="none" xmlns="http://www.w3.org/2000/svg">
<g clip-path="url(#clip0_1885_1117)">
<rect width="100" height="100" rx="50" fill="#999999"/>
<path d="M40.1606 71.8048C39.6418 68.3895 33.6759 65.5255 28.272 60.77C20.8471 54.1557 15.9187 41.6078 25.0945 31.1566C25.9051 15.8636 43.176 10.5353 57.8638 12.6645C66.683 13.9506 75.1563 18.9654 79.0255 27.0821C81.7923 32.9399 82.484 40.5054 78.8634 46.5362C79.0579 44.6124 79.0039 41.7483 78.1717 40.1379C77.975 41.1662 77.6291 42.1602 77.1449 43.0885C76.9035 43.5538 76.5655 43.9622 76.1536 44.2865C75.7417 44.6108 75.2654 44.8435 74.7564 44.969C73.6756 45.1636 73.0164 44.634 72.0653 44.4286C71.1142 44.2233 71.1142 44.353 70.39 44.9798L67.7854 47.2927L61.6682 52.6966L48.8069 64.1421C48.3205 64.5852 40.193 71.9669 40.1606 71.8048Z" fill="#263238"/>
<path d="M36.2698 63.1583C35.4307 63.3079 34.5679 63.2524 33.7549 62.9964C32.9419 62.7405 32.2028 62.2917 31.6008 61.6884C30.2043 60.5024 29.1924 58.9276 28.6939 57.1646C28.1954 55.4016 28.2329 53.5301 28.8016 51.7884C28.9812 51.2043 29.2917 50.6689 29.7093 50.2228C30.1269 49.7766 30.6407 49.4316 31.2117 49.2138C31.7827 48.996 32.3958 48.9113 33.0045 48.966C33.6131 49.0207 34.2013 49.2135 34.7243 49.5296C36.6048 50.7509 37.2317 53.0422 38.842 52.6315C40.2038 52.2856 39.4256 50.4699 39.4256 49.3243C47.4018 45.6172 46.7534 38.0625 46.0725 32.4425C47.7152 28.7246 53.3353 25.7632 59.7444 29.4595C60.8251 27.2979 61.2791 26.1523 64.0675 25.4066C68.0123 24.3258 70.9737 27.2655 72.4111 29.9026C74.9509 34.5716 75.5021 40.4078 75.9993 45.5956C76.9612 55.5171 77.0152 62.9529 73.2109 67.4922C70.8764 70.2806 66.1642 70.9075 61.3763 71.0912L60.2199 78.8188C60.2199 78.8188 63.2569 85.8979 59.9605 89.8535C55.8953 90.9588 51.5585 90.4191 47.8882 88.3513C38.7339 83.1959 38.7988 75.3819 38.7988 75.3819L39.3824 60.4023C39.1832 61.1122 38.7837 61.7496 38.2317 62.2384C37.6797 62.7272 36.9986 63.0465 36.2698 63.1583Z" fill="#C8856A"/>
<path d="M56.7506 44.4716C57.291 45.6173 55.8212 44.9472 54.6755 45.5524C53.5299 46.1577 53.1408 47.714 52.6004 46.6332C52.3426 46.0721 52.3111 45.4332 52.5124 44.8494C52.7137 44.2656 53.1324 43.7819 53.6812 43.4989C53.9458 43.3573 54.236 43.2702 54.5349 43.2425C54.8337 43.2149 55.135 43.2473 55.4211 43.338C55.7071 43.4286 55.9722 43.5757 56.2005 43.7704C56.4289 43.9651 56.6159 44.2035 56.7506 44.4716Z" fill="#263238"/>
<path d="M71.6652 43.2285C71.7516 44.493 70.5844 43.315 69.3523 43.4338C68.1202 43.5527 67.1151 44.9145 67.0286 43.65C66.9979 43.0344 67.2053 42.4306 67.6077 41.9638C68.0101 41.497 68.5768 41.2029 69.1902 41.1426C69.491 41.1099 69.7953 41.1385 70.0847 41.2267C70.3741 41.315 70.6426 41.461 70.874 41.656C71.1053 41.851 71.2947 42.0909 71.4307 42.3612C71.5667 42.6314 71.6465 42.9265 71.6652 43.2285Z" fill="#263238"/>
<path d="M73.0054 37.4357L67.9797 35.1228C68.1147 34.7881 68.3164 34.4844 68.5726 34.2301C68.8287 33.9759 69.1339 33.7765 69.4696 33.644C69.8053 33.5115 70.1645 33.4488 70.5253 33.4596C70.886 33.4705 71.2408 33.5546 71.5679 33.707C72.2369 34.029 72.758 34.5939 73.0251 35.2867C73.2921 35.9794 73.2851 36.7479 73.0054 37.4357Z" fill="#263238"/>
<path d="M52.3086 37.3491L48.5907 41.4453C48.3122 41.2158 48.0833 40.9321 47.918 40.6113C47.7527 40.2906 47.6544 39.9395 47.6291 39.5795C47.6038 39.2196 47.6521 38.8582 47.7709 38.5175C47.8898 38.1768 48.0768 37.8638 48.3205 37.5977C48.8289 37.0568 49.5244 36.7299 50.2653 36.6837C51.0062 36.6376 51.7369 36.8755 52.3086 37.3491Z" fill="#263238"/>
<path d="M56.0911 55.7115L64.7373 58.608C64.5908 59.24 64.3082 59.8325 63.9093 60.3441C63.5104 60.8558 63.0048 61.2743 62.4276 61.5706C61.8505 61.8669 61.2157 62.0338 60.5674 62.0597C59.9192 62.0857 59.2731 61.97 58.6741 61.7207C56.2964 60.8236 55.4426 58.3703 56.0911 55.7115Z" fill="#AF6152"/>
<path d="M58.6528 61.7211C59.29 61.9643 59.9712 62.0711 60.6523 62.0345C60.5016 60.9721 59.9659 60.0021 59.147 59.3087C58.3281 58.6153 57.283 58.2469 56.2102 58.2734H55.9617C56.0531 59.0389 56.3522 59.7648 56.8265 60.3725C57.3009 60.9802 57.9324 61.4466 58.6528 61.7211Z" fill="#FFA8A7"/>
<path d="M61.5491 41.4456L63.9484 54.3393L70.606 51.1294L61.5491 41.4456Z" fill="#AF6152"/>
<path d="M61.4196 71.0911C56.3507 71.0911 46.0833 70.1832 42.0952 64.1309C42.0952 64.1309 44.0406 69.3186 47.564 71.264C51.0873 73.2094 60.9981 73.966 60.9981 73.966L61.4196 71.0911Z" fill="#AF6152"/>
<path d="M74.5835 82.5151C78.3338 83.4446 99.1265 90.371 83.2298 99.9697L60.7171 80.8399L60.1875 78.8512C60.1875 78.8512 69.3741 81.1857 74.5835 82.5151Z" fill="#37474F"/>
<path d="M76.6583 93.2258C67.0934 85.2713 60.8141 80.9373 60.8141 80.9373C62.057 85.9846 60.8789 88.9568 58.3715 89.7457C55.8641 90.5347 47.0557 88.6649 41.922 83.9744L14.2865 103.828C15.9401 108.703 19.2364 117.187 20.1443 122.385C21.0521 127.584 22.9327 137.711 22.3058 142.92C21.679 148.13 13.7893 158.591 11.217 172.739C11.217 172.739 27.4287 186.789 57.2259 185.233C81.0031 184.022 85.0128 174.047 85.0128 174.047C85.0128 174.047 82.246 162.471 80.2465 154.085C81.9866 141.277 83.6294 131.615 83.6294 131.615C83.6294 131.615 92.2756 121.888 89.4224 111.318C86.9474 101.84 80.6032 96.5006 76.6583 93.2258Z" fill="#BA68C8"/>
<path d="M12.6638 89.8306C12.6638 79.0228 38.8094 75.3714 38.8094 75.3714C38.8094 75.3714 38.4203 82.8072 43.5432 86.0496C43.5432 86.0496 32.7354 110.183 24.2837 116.203C15.832 122.223 12.6638 89.8306 12.6638 89.8306Z" fill="#37474F"/>
<path d="M38.8093 75.3714C39.22 78.6138 42.5596 83.0126 45.5102 85.0336C51.7679 89.3567 56.5774 90.1133 59.355 88.4381C62.1326 86.7629 60.587 81.3806 60.2304 78.8191L61.7327 79.2082C62.954 81.8777 64.975 89.5621 60.6519 91.4859C54.6644 94.1446 43.8782 89.454 39.7172 84.169C35.5562 78.884 35.394 76.0091 35.394 76.0091C35.9963 76.0505 36.6012 76.0288 37.1989 75.9442C37.7508 75.7986 38.2895 75.607 38.8093 75.3714Z" fill="#263238"/>
</g>
<defs>
<clipPath id="clip0_1885_1117">
<rect width="100" height="100" rx="50" fill="white"/>
</clipPath>
</defs>
</svg>
