<svg width="56" height="56" viewBox="0 0 56 56" fill="none" xmlns="http://www.w3.org/2000/svg">
<path d="M25.3167 32.0833L25.55 33.95C25.5889 34.2611 25.7153 34.5139 25.9292 34.7083C26.1431 34.9028 26.4056 35 26.7167 35H29.2833C29.5944 35 29.8569 34.9028 30.0708 34.7083C30.2847 34.5139 30.4111 34.2611 30.45 33.95L30.6833 32.0833C30.9944 31.9667 31.2764 31.8305 31.5292 31.675C31.7819 31.5194 32.0056 31.3444 32.2 31.15L33.95 31.9083C34.2222 32.025 34.4944 32.0444 34.7667 31.9667C35.0389 31.8889 35.2528 31.7139 35.4083 31.4417L36.6917 29.225C36.8472 28.9528 36.8958 28.6805 36.8375 28.4083C36.7792 28.1361 36.6333 27.9028 36.4 27.7083L34.8833 26.6C34.9611 26.2889 35 25.9778 35 25.6667C35 25.3555 34.9611 25.0444 34.8833 24.7333L36.4 23.625C36.6333 23.4305 36.7792 23.1972 36.8375 22.925C36.8958 22.6528 36.8472 22.3805 36.6917 22.1083L35.4083 19.8917C35.2528 19.6194 35.0389 19.4444 34.7667 19.3667C34.4944 19.2889 34.2222 19.3083 33.95 19.425L32.2 20.1833C32.0056 19.9889 31.7819 19.8139 31.5292 19.6583C31.2764 19.5028 30.9944 19.3667 30.6833 19.25L30.45 17.3833C30.4111 17.0722 30.2847 16.8194 30.0708 16.625C29.8569 16.4305 29.5944 16.3333 29.2833 16.3333H26.7167C26.4056 16.3333 26.1431 16.4305 25.9292 16.625C25.7153 16.8194 25.5889 17.0722 25.55 17.3833L25.3167 19.25C25.0056 19.3667 24.7236 19.5028 24.4708 19.6583C24.2181 19.8139 23.9944 19.9889 23.8 20.1833L22.05 19.425C21.7778 19.3083 21.5056 19.2889 21.2333 19.3667C20.9611 19.4444 20.7472 19.6194 20.5917 19.8917L19.3083 22.1083C19.1528 22.3805 19.1042 22.6528 19.1625 22.925C19.2208 23.1972 19.3667 23.4305 19.6 23.625L21.1167 24.7333C21.0389 25.0444 21 25.3555 21 25.6667C21 25.9778 21.0389 26.2889 21.1167 26.6L19.6 27.7083C19.3667 27.9028 19.2208 28.1361 19.1625 28.4083C19.1042 28.6805 19.1528 28.9528 19.3083 29.225L20.5917 31.4417C20.7472 31.7139 20.9611 31.8889 21.2333 31.9667C21.5056 32.0444 21.7778 32.025 22.05 31.9083L23.8 31.15C23.9944 31.3444 24.2181 31.5194 24.4708 31.675C24.7236 31.8305 25.0056 31.9667 25.3167 32.0833ZM28 29.1667C27.0278 29.1667 26.2014 28.8264 25.5208 28.1458C24.8403 27.4653 24.5 26.6389 24.5 25.6667C24.5 24.6944 24.8403 23.868 25.5208 23.1875C26.2014 22.5069 27.0278 22.1667 28 22.1667C28.9722 22.1667 29.7986 22.5069 30.4792 23.1875C31.1597 23.868 31.5 24.6944 31.5 25.6667C31.5 26.6389 31.1597 27.4653 30.4792 28.1458C29.7986 28.8264 28.9722 29.1667 28 29.1667ZM14 41.3C11.7833 39.2778 10.0625 36.9153 8.8375 34.2125C7.6125 31.5097 7 28.6611 7 25.6667C7 19.8333 9.04167 14.875 13.125 10.7917C17.2083 6.70832 22.1667 4.66666 28 4.66666C32.8611 4.66666 37.1681 6.09582 40.9208 8.95416C44.6736 11.8125 47.1139 15.5361 48.2417 20.125L51.275 32.0833C51.4694 32.8222 51.3333 33.493 50.8667 34.0958C50.4 34.6986 49.7778 35 49 35H44.3333V42C44.3333 43.2833 43.8764 44.3819 42.9625 45.2958C42.0486 46.2097 40.95 46.6667 39.6667 46.6667H35V49C35 49.6611 34.7764 50.2153 34.3292 50.6625C33.8819 51.1097 33.3278 51.3333 32.6667 51.3333C32.0056 51.3333 31.4514 51.1097 31.0042 50.6625C30.5569 50.2153 30.3333 49.6611 30.3333 49V44.3333C30.3333 43.6722 30.5569 43.118 31.0042 42.6708C31.4514 42.2236 32.0056 42 32.6667 42H39.6667V32.6667C39.6667 32.0055 39.8903 31.4514 40.3375 31.0042C40.7847 30.5569 41.3389 30.3333 42 30.3333H45.9667L43.75 21.2917C42.8556 17.7528 40.95 14.875 38.0333 12.6583C35.1167 10.4417 31.7722 9.33332 28 9.33332C23.4889 9.33332 19.6389 10.9083 16.45 14.0583C13.2611 17.2083 11.6667 21.0389 11.6667 25.55C11.6667 27.8833 12.1431 30.1 13.0958 32.2C14.0486 34.3 15.4 36.1667 17.15 37.8L18.6667 39.2V49C18.6667 49.6611 18.4431 50.2153 17.9958 50.6625C17.5486 51.1097 16.9944 51.3333 16.3333 51.3333C15.6722 51.3333 15.1181 51.1097 14.6708 50.6625C14.2236 50.2153 14 49.6611 14 49V41.3Z" fill="#3FB2FF"/>
</svg>
