<svg width="56" height="56" viewBox="0 0 56 56" fill="none" xmlns="http://www.w3.org/2000/svg">
<path fill-rule="evenodd" clip-rule="evenodd" d="M15.4 7.70001H32.2C34.2788 7.70001 35.4859 7.70744 36.3422 7.82257C36.6119 7.85884 36.7778 7.89802 36.8731 7.92689C36.902 8.02218 36.9412 8.18809 36.9774 8.45784C37.0926 9.31413 37.1 10.5212 37.1 12.6V43.4C37.1 45.4789 37.0926 46.6859 36.9774 47.5422C36.9412 47.8119 36.902 47.9778 36.8731 48.0731C36.7778 48.102 36.6119 48.1412 36.3422 48.1774C35.4859 48.2926 34.2788 48.3 32.2 48.3H15.4C13.3212 48.3 12.1141 48.2926 11.2578 48.1774C10.9881 48.1412 10.8222 48.102 10.7269 48.0731C10.698 47.9778 10.6588 47.8119 10.6226 47.5422C10.5074 46.6859 10.5 45.4789 10.5 43.4V12.6C10.5 10.5212 10.5074 9.31413 10.6226 8.45784C10.6588 8.18809 10.698 8.02218 10.7269 7.92689C10.8222 7.89802 10.9881 7.85884 11.2578 7.82257C12.1141 7.70744 13.3212 7.70001 15.4 7.70001ZM36.9834 7.97007C36.9823 7.97049 36.9725 7.96632 36.9571 7.9563C36.9768 7.96462 36.9845 7.96964 36.9834 7.97007ZM36.8437 7.84295C36.8337 7.82753 36.8295 7.81769 36.8299 7.81662C36.8304 7.81555 36.8354 7.82327 36.8437 7.84295ZM36.83 48.1834C36.8295 48.1824 36.8337 48.1725 36.8437 48.1571C36.8354 48.1767 36.8304 48.1844 36.83 48.1834ZM36.9762 48.0326C36.9717 48.0348 36.9651 48.0385 36.9571 48.0437C36.9768 48.0354 36.9845 48.0304 36.9834 48.03C36.9829 48.0298 36.9804 48.0306 36.9762 48.0326ZM10.6166 48.03C10.6177 48.0295 10.6275 48.0337 10.6429 48.0437C10.6233 48.0354 10.6155 48.0304 10.6166 48.03ZM10.7563 48.1571C10.7663 48.1725 10.7705 48.1823 10.7701 48.1834C10.7696 48.1845 10.7646 48.1768 10.7563 48.1571ZM10.7701 7.81662C10.7705 7.81769 10.7663 7.82755 10.7563 7.843C10.7646 7.82327 10.7696 7.81555 10.7701 7.81662ZM10.643 7.95627C10.6275 7.96632 10.6177 7.97049 10.6166 7.97007C10.6155 7.96964 10.6233 7.96462 10.643 7.95627ZM7 12.6C7 8.64021 7 6.66031 8.23015 5.43016C9.4603 4.20001 11.4402 4.20001 15.4 4.20001H32.2C36.1598 4.20001 38.1397 4.20001 39.3699 5.43016C39.8312 5.89147 40.1195 6.45821 40.2997 7.19525C40.2847 7.13414 40.269 7.07419 40.2526 7.01538C42.6385 7.06627 44.0253 7.28551 44.9699 8.23016C45.393 8.65321 45.6705 9.16494 45.8526 9.81538C45.8691 9.87419 45.8848 9.93413 45.8997 9.99525C45.8848 9.93413 45.8691 9.87419 45.8526 9.81538C48.2385 9.86627 49.6252 10.0855 50.5698 11.0301C51.8 12.2603 51.8 14.2402 51.8 18.2V37.8C51.8 41.7598 51.8 43.7397 50.5698 44.9698C49.6252 45.9145 48.2385 46.1337 45.8526 46.1846C45.6705 46.8351 45.393 47.3468 44.9699 47.7699C44.0253 48.7145 42.6385 48.9337 40.2526 48.9846C40.0705 49.6351 39.7929 50.1468 39.3699 50.5699C38.1397 51.8 36.1598 51.8 32.2 51.8H15.4C11.4402 51.8 9.4603 51.8 8.23015 50.5699C7 49.3397 7 47.3598 7 43.4V12.6ZM40.5912 45.4745C41.1354 45.4569 41.5717 45.4273 41.9422 45.3774C42.212 45.3412 42.3779 45.302 42.4732 45.2731C42.502 45.1778 42.5412 45.0119 42.5775 44.7422C42.6926 43.8859 42.7001 42.6788 42.7001 40.6V15.4C42.7001 13.3212 42.6926 12.1141 42.5775 11.2578C42.5412 10.9881 42.502 10.8222 42.4732 10.7269C42.3779 10.698 42.212 10.6588 41.9422 10.6226C41.5717 10.5727 41.1354 10.5431 40.5912 10.5255C40.6 11.1495 40.6 11.8381 40.6 12.6V43.4C40.6 44.1619 40.6 44.8505 40.5912 45.4745ZM47.5421 42.5774C47.1716 42.6273 46.7354 42.6569 46.1913 42.6745C46.2001 42.0505 46.2001 41.3619 46.2001 40.6V15.4C46.2001 14.6381 46.2001 13.9495 46.1913 13.3255C46.7354 13.3431 47.1716 13.3727 47.5421 13.4226C47.8119 13.4588 47.9778 13.498 48.0731 13.5269C48.102 13.6222 48.1412 13.7881 48.1774 14.0578C48.2925 14.9141 48.3 16.1212 48.3 18.2V37.8C48.3 39.8788 48.2925 41.0859 48.1774 41.9422C48.1411 42.2119 48.102 42.3778 48.0731 42.4731C47.9778 42.502 47.8119 42.5412 47.5421 42.5774ZM42.5835 10.7701C42.5824 10.7705 42.5725 10.7663 42.5571 10.7563C42.5768 10.7646 42.5845 10.7696 42.5835 10.7701ZM42.4438 10.6429C42.4337 10.6275 42.4296 10.6177 42.43 10.6166C42.4304 10.6155 42.4354 10.6233 42.4438 10.6429ZM42.43 45.3834C42.4296 45.3823 42.4338 45.3725 42.4438 45.3571C42.4354 45.3768 42.4304 45.3845 42.43 45.3834ZM42.5571 45.2437C42.5725 45.2337 42.5824 45.2295 42.5834 45.2299C42.5845 45.2304 42.5768 45.2354 42.5571 45.2437ZM48.1834 13.5701C48.1823 13.5705 48.1725 13.5663 48.157 13.5563C48.1767 13.5646 48.1844 13.5696 48.1834 13.5701ZM48.0437 13.4429C48.0337 13.4275 48.0295 13.4177 48.0299 13.4166C48.0303 13.4155 48.0354 13.4233 48.0437 13.4429ZM48.0299 42.5834C48.0298 42.583 48.0302 42.5816 48.0312 42.5792C48.0331 42.5748 48.0372 42.5671 48.0437 42.5571C48.0354 42.5768 48.0303 42.5845 48.0299 42.5834ZM48.157 42.4437C48.1724 42.4337 48.1823 42.4295 48.1834 42.4299C48.1844 42.4304 48.1767 42.4354 48.157 42.4437Z" fill="#3FB2FF"/>
</svg>
