<svg width="56" height="56" viewBox="0 0 56 56" fill="none" xmlns="http://www.w3.org/2000/svg">
<path d="M13.9999 51.3333C12.7166 51.3333 11.618 50.8764 10.7041 49.9625C9.7902 49.0486 9.33325 47.95 9.33325 46.6667V9.33332C9.33325 8.04999 9.7902 6.95138 10.7041 6.03749C11.618 5.1236 12.7166 4.66666 13.9999 4.66666H41.9999C43.2832 4.66666 44.3819 5.1236 45.2957 6.03749C46.2096 6.95138 46.6666 8.04999 46.6666 9.33332V46.6667C46.6666 47.95 46.2096 49.0486 45.2957 49.9625C44.3819 50.8764 43.2832 51.3333 41.9999 51.3333H13.9999ZM13.9999 46.6667H41.9999V9.33332H37.3333V23.625C37.3333 24.0917 37.1388 24.4319 36.7499 24.6458C36.361 24.8597 35.9721 24.85 35.5833 24.6167L32.7249 22.8667C32.336 22.6333 31.9374 22.5167 31.5291 22.5167C31.1208 22.5167 30.7221 22.6333 30.3333 22.8667L27.4749 24.6167C27.086 24.85 26.6874 24.8597 26.2791 24.6458C25.8708 24.4319 25.6666 24.0917 25.6666 23.625V9.33332H13.9999V46.6667Z" fill="#3FB2FF"/>
</svg>
